<?xml version="1.0" standalone="no"?>
<!DOCTYPE svg PUBLIC "-//W3C//DTD SVG 1.1//EN" "http://www.w3.org/Graphics/SVG/1.1/DTD/svg11.dtd" >
<svg xmlns="http://www.w3.org/2000/svg" xmlns:xlink="http://www.w3.org/1999/xlink" version="1.1">
<metadata></metadata>
<defs>
<font id="renault_liferegular" horiz-adv-x="1179" >
<font-face units-per-em="2048" ascent="1526" descent="-522" />
<missing-glyph horiz-adv-x="458" />
<glyph unicode="ff" horiz-adv-x="1298" d="M31 905l14 90h123v117q0 180 88 260t262 80q55 0 106.5 -6t96.5 -23l-27 -127q-31 10 -73.5 17.5t-83.5 7.5q-109 0 -157 -47t-48 -156v-123h491v131q0 180 88 260t263 80q61 0 109 -8t77 -18l-27 -127q-31 10 -68.5 16t-72.5 6q-109 0 -157 -47t-48 -155v-138h301v-129 h-301v-866h-164v866h-491v-866h-164v842q0 16 -2 21t-19 9z" />
<glyph unicode="fi" horiz-adv-x="1132" d="M31 905l14 90h123v131q0 180 83 260t267 80q61 0 109.5 -8t77.5 -18l-27 -127q-31 10 -69 16t-72 6q-109 0 -157 -47t-48 -155v-138h637q18 0 18 -20v-975h-164v866h-491v-866h-164v842q0 16 -2 21t-19 9zM795 1298q0 55 24.5 80t81.5 25q55 0 81 -24.5t26 -80.5 q0 -102 -107 -102q-57 0 -81.5 24.5t-24.5 77.5z" />
<glyph unicode="fl" horiz-adv-x="1144" d="M31 905l14 90h123v113q0 178 96 264q51 45 138 69.5t212 24.5q43 0 91.5 -3t93.5 -8t85 -13t70 -17q18 -6 23.5 -14t5.5 -20v-1252q0 -12 3 -18t13 -10l62 -27l-17 -84h-206q-18 0 -19 20v1299q-39 8 -94 13t-109 5q-86 0 -143 -17t-88 -46q-53 -49 -53 -162v-117h301 v-129h-301v-866h-164v842q0 16 -2 21t-19 9z" />
<glyph unicode="ffi" horiz-adv-x="1785" d="M31 905l14 90h123v117q0 180 88 260t262 80q55 0 106.5 -6t96.5 -23l-27 -127q-31 10 -73.5 17.5t-83.5 7.5q-109 0 -157 -47t-48 -156v-123h491v131q0 180 88 260t263 80q61 0 109 -8t77 -18l-27 -127q-31 10 -68.5 16t-72.5 6q-109 0 -157 -47t-48 -155v-138h635 q18 0 18 -20v-975h-163v866h-490v-866h-164v866h-491v-866h-164v842q0 16 -2 21t-19 9zM1448 1298q0 55 24.5 80t81.5 25q55 0 81 -24.5t26 -80.5q0 -102 -107 -102q-57 0 -81.5 24.5t-24.5 77.5z" />
<glyph unicode="ffl" horiz-adv-x="1800" d="M31 905l14 90h123v117q0 180 88 260t262 80q55 0 106.5 -6t96.5 -23l-27 -127q-31 10 -73.5 17.5t-83.5 7.5q-109 0 -157 -47t-48 -156v-123h491v113q0 178 97 264q51 45 138 69.5t212 24.5q43 0 91 -3t93 -8t85 -13t71 -17q18 -6 23 -14t5 -20v-1252q0 -12 3.5 -18 t13.5 -10l61 -27l-16 -84h-207q-18 0 -18 20v1299q-39 8 -94.5 13t-108.5 5q-86 0 -143.5 -17t-88.5 -46q-53 -49 -53 -162v-117h301v-129h-301v-866h-164v866h-491v-866h-164v842q0 16 -2 21t-19 9z" />
<glyph unicode="ft" horiz-adv-x="1402" d="M31 905l14 90h123v131q0 180 83 260t267 80q61 0 109.5 -8t77.5 -18l-27 -127q-31 10 -69 16t-72 6q-109 0 -157 -47t-48 -155v-138h483v297h164v-297h340v-129h-340v-561q0 -106 46 -152.5t151 -46.5q37 0 73.5 5.5t71.5 13.5v-131q-78 -18 -170 -19q-176 0 -256 76 t-80 248v567h-483v-866h-164v842q0 16 -2 21t-19 9z" />
<glyph unicode="tt" horiz-adv-x="1474" d="M29 905l14 90h123v297h164v-297h557v297h164v-297h342v-129h-342v-561q0 -106 46 -152.5t150 -46.5q37 0 74 5.5t72 13.5v-131q-78 -18 -170 -19q-176 0 -256 76t-80 248v567h-557v-561q0 -106 46 -152.5t150 -46.5q37 0 74 5.5t72 13.5v-131q-78 -18 -170 -19 q-176 0 -256 76t-80 248v543q0 16 -2 21t-19 9z" />
<glyph unicode=" "  horiz-adv-x="458" />
<glyph unicode="&#x09;" horiz-adv-x="458" />
<glyph unicode="&#xa0;" horiz-adv-x="458" />
<glyph unicode="!" horiz-adv-x="505" d="M143 88q0 59 26 84t85 25t85 -25t26 -84q0 -57 -26 -81.5t-85 -24.5t-85 24.5t-26 81.5zM170 1376h166l-8 -958h-150z" />
<glyph unicode="&#x22;" horiz-adv-x="882" d="M166 911v465h141v-465h-141zM575 911v465h140v-465h-140z" />
<glyph unicode="#" horiz-adv-x="1335" d="M51 362v115h262l54 422h-248v115h262l45 362h127l-45 -362h399l45 362h127l-43 -362h246v-115h-260l-53 -422h245v-115h-260l-45 -362h-129l45 362h-399l-45 -362h-127l45 362h-248zM442 477h398l53 422h-399z" />
<glyph unicode="$" d="M139 985q0 166 89 249t286 97v340h152v-338q172 -6 319 -49v-135q-178 55 -367 55q-168 0 -237.5 -49t-69.5 -166q0 -84 54.5 -125t136.5 -65.5t178 -44t178 -57.5t136.5 -106.5t54.5 -191.5q0 -168 -91.5 -254t-291.5 -102v-338h-152v336q-199 10 -360 63v136 q197 -68 407 -68q172 0 244 53.5t72 169.5q0 86 -54.5 130t-136.5 70t-178 46.5t-178 57t-136.5 102t-54.5 184.5z" />
<glyph unicode="%" horiz-adv-x="1769" d="M90 1032q0 195 79 282t257 87t257 -87t79 -282t-79 -281.5t-257 -86.5t-257 86.5t-79 281.5zM221 1032q0 -137 47 -196.5t158 -59.5t158 59.5t47 196.5t-47 196.5t-158 59.5t-158 -59.5t-47 -196.5zM522 0l619 1376h106l-618 -1376h-107zM1008 344q0 195 78.5 282 t256.5 87t257 -87t79 -282t-78.5 -282t-257.5 -87q-178 0 -256.5 87t-78.5 282zM1139 344q0 -137 47 -196.5t157 -59.5q111 0 158 59.5t47 196.5t-47 196.5t-158 59.5t-157.5 -59.5t-46.5 -196.5z" />
<glyph unicode="&#x26;" horiz-adv-x="1378" d="M100 362q0 129 76 233.5t240 176.5q-100 88 -142.5 165t-42.5 159q0 305 373 305q182 0 268 -74t86 -221q0 -117 -75.5 -205t-241.5 -168l350 -352q25 61 34 134t9 153h154q-2 -117 -22.5 -219.5t-67.5 -182.5l260 -266h-187l-165 168q-74 -96 -182.5 -144.5 t-243.5 -48.5q-244 0 -362 94.5t-118 292.5zM260 373q0 -268 320 -269q213 0 325 168l-403 408q-125 -59 -183.5 -135t-58.5 -172zM387 1090q0 -63 38 -123t126 -138q133 59 192.5 123t59.5 146q0 90 -48.5 134t-154.5 44q-111 0 -162 -46t-51 -140z" />
<glyph unicode="'" horiz-adv-x="473" d="M166 911v465h141v-465h-141z" />
<glyph unicode="(" horiz-adv-x="636" d="M150 590q0 248 68.5 463t203.5 389h164q-139 -178 -210 -394.5t-71 -457.5q0 -242 70.5 -458t210.5 -394h-164q-135 174 -203.5 389t-68.5 463z" />
<glyph unicode=")" horiz-adv-x="636" d="M51 -262q139 178 210 394t71 458t-71 458t-210 394h164q135 -174 203.5 -389t68.5 -463t-68.5 -463t-203.5 -389h-164z" />
<glyph unicode="*" horiz-adv-x="964" d="M80 1040l35 111l309 -100v325h117v-325l309 100l37 -111l-309 -100l190 -264l-94 -68l-191 264l-190 -264l-94 68l190 264z" />
<glyph unicode="+" d="M152 520v139h368v369h139v-369h369v-139h-369v-368h-139v368h-368z" />
<glyph unicode="," horiz-adv-x="473" d="M63 -295l117 465h172l-155 -465h-134z" />
<glyph unicode="-" horiz-adv-x="655" d="M53 442v127h549v-127h-549z" />
<glyph unicode="." horiz-adv-x="473" d="M125 90q0 59 26.5 84t86.5 25q59 0 84.5 -24.5t25.5 -84.5q0 -59 -25.5 -83.5t-84.5 -24.5t-86 24.5t-27 83.5z" />
<glyph unicode="/" horiz-adv-x="786" d="M18 -262l605 1704h145l-604 -1704h-146z" />
<glyph unicode="0" d="M84 688q0 188 28.5 323.5t90 221.5t158 127t229.5 41t229 -41t157.5 -127t90.5 -221t29 -324q0 -188 -29 -323.5t-90.5 -221.5t-157.5 -127t-229 -41t-229.5 41t-158 127t-90 221.5t-28.5 323.5zM244 688q0 -154 19.5 -263.5t60.5 -178t107.5 -101t158.5 -32.5 t158.5 32.5t107.5 101t60.5 178.5t19.5 263q0 154 -19.5 263.5t-60.5 178t-107.5 101.5t-158.5 33t-158.5 -33t-107.5 -101.5t-60.5 -178t-19.5 -263.5z" />
<glyph unicode="1" d="M244 1061v137l405 178h137v-1376h-163v1227z" />
<glyph unicode="2" d="M113 0v123l542 528q92 90 136.5 172t44.5 168q0 145 -74 209t-246 64q-180 0 -360 -62v139q92 33 186 46.5t199 13.5q244 0 352 -93.5t108 -299.5q0 -111 -50 -211.5t-156 -204.5l-463 -457h682v-135h-901z" />
<glyph unicode="3" d="M113 27v135q162 -55 333 -56q217 0 311.5 66t94.5 217q0 150 -100.5 214.5t-331.5 64.5h-51v100l397 479h-637v129h823v-112l-397 -486q242 -12 352.5 -106t110.5 -285q0 -217 -131 -314.5t-428 -97.5q-186 0 -346 52z" />
<glyph unicode="4" d="M57 303v123l682 950h172v-944h201v-129h-201v-303h-151v303h-703zM217 432h543v756z" />
<glyph unicode="5" d="M150 27v135q166 -55 333 -56q211 0 303.5 69t92.5 222q0 152 -96.5 219.5t-315.5 67.5q-66 0 -133.5 -4t-138.5 -10v706h786v-129h-635v-448q88 6 180 6q274 0 397.5 -96.5t123.5 -313.5q0 -221 -131.5 -320.5t-419.5 -99.5q-186 0 -346 52z" />
<glyph unicode="6" d="M113 623q0 205 33.5 352t107.5 241.5t188.5 139.5t278.5 45q162 0 303 -43v-133q-72 23 -145.5 34t-145.5 11q-125 0 -212 -33t-141 -103.5t-79 -179t-27 -258.5q35 94 125 138.5t246 44.5q238 0 344.5 -104.5t106.5 -338.5q0 -242 -116 -351.5t-374 -109.5 q-131 0 -224 37t-153.5 115t-88 201t-27.5 295zM289 459q0 -352 315 -353q178 0 255 77t77 249q0 168 -71.5 244t-237.5 76q-178 0 -258 -70.5t-80 -222.5z" />
<glyph unicode="7" d="M123 1241v135h924v-116l-574 -1260h-166l565 1241h-749z" />
<glyph unicode="8" d="M96 354q0 156 72 237t240 114q-147 29 -213 108.5t-66 224.5q0 193 108.5 278t352.5 85t352.5 -85t108.5 -278q0 -145 -65.5 -225t-213.5 -108q168 -33 239.5 -114t71.5 -237q0 -201 -115.5 -290t-377.5 -89t-378 89t-116 290zM256 360q0 -137 78 -196.5t256 -59.5 t256 59.5t78 196.5q0 66 -17.5 114t-56.5 81t-103.5 52.5t-156.5 29.5q-92 -10 -155.5 -29.5t-103.5 -52.5t-57.5 -81t-17.5 -114zM287 1032q0 -123 68.5 -182.5t234.5 -77.5q166 18 234.5 77.5t68.5 182.5q0 129 -69.5 184.5t-233.5 55.5t-233.5 -55.5t-69.5 -184.5z" />
<glyph unicode="9" d="M84 940q0 242 115.5 351.5t373.5 109.5q131 0 224.5 -37t154 -115t88 -200.5t27.5 -294.5q0 -205 -34 -352.5t-107.5 -241.5t-189 -139.5t-277.5 -45.5t-303 43v134q72 -23 145.5 -34.5t144.5 -11.5q125 0 212 33t141.5 103.5t79 178t26.5 259.5q-35 -94 -125 -138 t-245 -44q-238 0 -344.5 104.5t-106.5 337.5zM244 944q0 -168 71.5 -243.5t237.5 -75.5q178 0 258 70.5t80 222.5q0 352 -316 352q-178 0 -254.5 -77t-76.5 -249z" />
<glyph unicode=":" horiz-adv-x="505" d="M141 90q0 59 26.5 84t86.5 25q59 0 84.5 -24.5t25.5 -84.5q0 -59 -25.5 -83.5t-84.5 -24.5t-86 24.5t-27 83.5zM141 905q0 59 26.5 84t86.5 25q59 0 84.5 -24.5t25.5 -84.5q0 -59 -25.5 -83.5t-84.5 -24.5t-86 24.5t-27 83.5z" />
<glyph unicode=";" horiz-adv-x="505" d="M79 -295l117 465h172l-155 -465h-134zM141 905q0 59 26.5 84t86.5 25q59 0 84.5 -24.5t25.5 -84.5q0 -59 -25.5 -83.5t-84.5 -24.5t-86 24.5t-27 83.5z" />
<glyph unicode="&#x3c;" d="M152 512v156l876 362v-147l-709 -293l709 -293v-147z" />
<glyph unicode="=" d="M152 315v142h876v-142h-876zM152 723v141h876v-141h-876z" />
<glyph unicode="&#x3e;" d="M152 150v147l708 293l-708 293v147l876 -362v-156z" />
<glyph unicode="?" horiz-adv-x="909" d="M63 1212v134q156 55 326 55q231 0 332.5 -81t101.5 -263q0 -84 -28.5 -144.5t-70.5 -107.5t-91 -86t-91 -80t-71 -90t-29 -115v-16h-139v26q0 86 26.5 146.5t65.5 106.5t85 84t85 77t65.5 83t26.5 106q0 121 -66.5 172t-219.5 51q-150 0 -308 -58zM262 88q0 59 25.5 84 t85.5 25q59 0 84.5 -25t25.5 -84q0 -57 -25.5 -81.5t-84.5 -24.5t-85 24.5t-26 81.5z" />
<glyph unicode="@" horiz-adv-x="2000" d="M117 498q0 242 52 414.5t161.5 284.5t281.5 164t412 52q227 0 390 -46t267.5 -144.5t153.5 -252t49 -368.5q0 -285 -87 -420t-290 -135q-88 0 -148.5 33t-86.5 94q-47 -66 -124 -96.5t-192 -30.5q-201 0 -287.5 106.5t-86.5 344.5t87 344t287 106q213 0 297 -119l9 95 h131v-609q0 -76 32.5 -109.5t106.5 -33.5q115 0 162 102.5t47 315.5q0 184 -41 317t-129 217t-224.5 124t-328.5 40q-201 0 -344.5 -45t-235.5 -140t-135 -244.5t-43 -360.5t45 -360.5t142.5 -245t250 -140.5t365.5 -45q287 0 561 90v-131q-268 -84 -567 -84 q-248 0 -426 52.5t-292 163t-168 283.5t-54 417zM743 498q0 -172 58.5 -246t193.5 -74q129 0 184.5 54.5t55.5 181.5v168q0 127 -55.5 181t-184.5 54q-135 0 -193.5 -73.5t-58.5 -245.5z" />
<glyph unicode="A" horiz-adv-x="1327" d="M41 0q43 164 105.5 356.5t134 381t146.5 356.5t140 282h193q66 -115 140.5 -282.5t146 -356t134 -381t105.5 -356.5h-172q-23 82 -50.5 175t-59.5 192h-680q-33 -98 -60.5 -191.5t-50.5 -175.5h-172zM367 494h594q-35 102 -73 204.5t-77 196.5t-75.5 178t-71.5 152 q-35 -68 -73 -152t-76 -178t-76 -196.5t-72 -204.5z" />
<glyph unicode="B" horiz-adv-x="1316" d="M94 1300l15 76h647q219 0 315 -87t96 -275q0 -236 -182 -303q231 -57 232 -336q0 -197 -100.5 -286t-328.5 -89h-612v1247q0 18 -20 27zM340 129h420q156 0 223.5 59.5t67.5 194.5t-68 194.5t-223 59.5h-420v-508zM340 764h387q147 0 212 57.5t65 184.5t-65 184t-212 57 h-387v-483z" />
<glyph unicode="C" horiz-adv-x="1236" d="M100 688q0 188 38 323.5t118 221.5t204 127t296 41q133 0 241.5 -18.5t157.5 -34.5l-25 -134q-78 23 -167 36.5t-185 13.5q-133 0 -228 -33t-156.5 -101.5t-90.5 -178t-29 -263.5t29 -263.5t90.5 -178t156.5 -101t228 -32.5q96 0 186.5 13t180.5 40v-139 q-178 -51 -389 -52q-172 0 -296 41t-204 127t-118 221.5t-38 323.5z" />
<glyph unicode="D" horiz-adv-x="1447" d="M94 1300l15 76h522q190 0 325.5 -39t222.5 -123t128 -214t41 -312t-41 -312t-128 -214t-222.5 -123t-325.5 -39h-455v1247q0 18 -20 27zM346 135h272q147 0 253 31t173.5 98.5t99.5 172t32 251.5t-32 251.5t-99.5 172.5t-173 98.5t-253.5 30.5h-272v-1106z" />
<glyph unicode="E" horiz-adv-x="1208" d="M94 1300l15 76h991v-135h-754v-477h606v-127h-606v-502h770v-135h-940v1247q0 18 -20 27z" />
<glyph unicode="F" horiz-adv-x="1175" d="M94 1300l15 76h991v-135h-754v-477h606v-131h-606v-633h-170v1247q0 18 -20 27z" />
<glyph unicode="G" horiz-adv-x="1378" d="M100 688q0 197 42 332t128 220t218.5 123t310.5 38q68 0 132 -5t119.5 -13.5t99.5 -17.5t69 -17l-25 -134q-78 23 -177 36.5t-196 13.5q-143 0 -247.5 -30t-172 -98.5t-100.5 -178t-33 -269.5q0 -154 30 -263.5t92.5 -179t160.5 -102t237 -32.5q162 0 306 32v455h-353 v121h510v-688q-227 -55 -479 -56q-176 0 -303 41t-209 127t-121 221.5t-39 323.5z" />
<glyph unicode="H" horiz-adv-x="1513" d="M94 1300l15 76h219q18 0 18 -20v-588h828v608h169v-1376h-169v633h-828v-633h-170v1247q0 18 -20 27z" />
<glyph unicode="I" horiz-adv-x="520" d="M96 1300l15 76h219q18 0 18 -20v-1356h-170v1247q0 18 -20 27z" />
<glyph unicode="J" horiz-adv-x="899" d="M59 2v137q55 -12 108.5 -19t104.5 -7q154 0 220.5 67.5t66.5 222.5v973h170v-979q0 -221 -102.5 -321.5t-329.5 -100.5q-131 0 -238 27z" />
<glyph unicode="K" horiz-adv-x="1243" d="M94 1300l15 76h219q18 0 18 -20v-654l643 674h199l-602 -637l618 -739h-198l-525 633l-135 -139v-494h-170v1247q0 18 -20 27z" />
<glyph unicode="L" horiz-adv-x="1067" d="M94 1300l15 76h219q18 0 18 -20v-1221h666v-135h-836v1247q0 18 -20 27z" />
<glyph unicode="M" horiz-adv-x="1677" d="M94 1300l15 76h188q31 0 41 -8t31 -41l473 -754l501 803h164v-1376h-157v1120l-449 -710h-51q-25 0 -40 1t-25.5 6t-19.5 16t-22 32l-409 649v-1114h-158v1247q0 18 -20 27z" />
<glyph unicode="N" horiz-adv-x="1513" d="M94 1300l15 76h192q29 0 40 -5t21 -21l824 -1114v1140h157v-1376h-165l-844 1141v-1141h-158v1247q0 18 -20 27z" />
<glyph unicode="O" horiz-adv-x="1509" d="M100 688q0 188 38 323.5t118 221.5t204 127t296 41t296 -41t203.5 -127t116.5 -221t37 -324q0 -188 -37 -323.5t-116.5 -221.5t-203.5 -127t-296 -41t-296 41t-204 127t-118 221.5t-38 323.5zM274 688q0 -154 27 -263.5t85 -178t149.5 -101t220.5 -32.5q127 0 218 32.5 t149.5 101t86 178.5t27.5 263q0 154 -27.5 263.5t-86 178t-149.5 101.5t-218 33q-129 0 -220.5 -33t-149.5 -101.5t-85 -178t-27 -263.5z" />
<glyph unicode="P" horiz-adv-x="1284" d="M94 1300l15 76h608q256 0 369.5 -100t113.5 -324q0 -221 -114.5 -321.5t-368.5 -100.5h-377v-530h-164v1247q0 18 -20 27zM340 664h365q176 0 252.5 67.5t76.5 220.5q0 154 -76.5 221.5t-252.5 67.5h-365v-577z" />
<glyph unicode="Q" horiz-adv-x="1509" d="M100 688q0 188 38 323.5t118 221.5t204 127t296 41t296 -41t203.5 -127t116.5 -221t37 -324q0 -260 -70.5 -416.5t-224.5 -230.5l186 -291h-172l-155 246q-47 -10 -102.5 -15.5t-114.5 -5.5q-172 0 -296 41t-204 127t-118 221.5t-38 323.5zM268 688q0 -156 28 -265.5 t86 -180t151.5 -103.5t222.5 -33q39 0 73.5 3.5t65.5 7.5l-127 200h172l96 -151q109 61 158 187t49 335q0 154 -27.5 263.5t-86 178t-151.5 101.5t-222 33t-222.5 -33t-151.5 -101.5t-86 -178t-28 -263.5z" />
<glyph unicode="R" horiz-adv-x="1316" d="M94 1300l15 76h624q248 0 357.5 -95t109.5 -312q0 -182 -81 -275.5t-259 -111.5l369 -582h-187l-350 563h-352v-563h-164v1247q0 18 -20 27zM340 694h375q172 0 245.5 62.5t73.5 212.5t-73.5 213t-245.5 63h-375v-551z" />
<glyph unicode="S" horiz-adv-x="1204" d="M115 1018q0 180 120.5 281.5t382.5 101.5q115 0 223.5 -17.5t200.5 -46.5l-24 -131q-98 33 -192.5 47.5t-194.5 14.5q-186 0 -269 -54.5t-83 -191.5q0 -68 34.5 -110t93 -69.5t131 -47t149.5 -39t150.5 -46t132 -70.5t93.5 -109.5t35 -163.5q0 -201 -125 -296.5 t-387 -95.5q-119 0 -236 16.5t-227 51.5v137q113 -37 224.5 -54t225.5 -17q190 0 275.5 58t85.5 195q0 94 -60.5 145.5t-151.5 81t-197.5 53.5t-197.5 65t-151.5 112.5t-60.5 198.5z" />
<glyph unicode="T" horiz-adv-x="1214" d="M43 1241v135h1128v-135h-479v-1241h-170v1241h-479z" />
<glyph unicode="U" horiz-adv-x="1499" d="M86 1300l14 76h219q18 0 19 -20v-817q0 -227 96 -326.5t318 -99.5q219 0 316 99t97 327v837h170v-850q0 -145 -33.5 -249.5t-104.5 -171t-181.5 -98.5t-263.5 -32q-154 0 -264.5 32t-181 98.5t-104.5 171t-34 249.5v721q0 18 -21 27z" />
<glyph unicode="V" horiz-adv-x="1327" d="M41 1376h172q37 -137 91 -305t114.5 -336t124.5 -321t121 -262q57 109 120.5 262t124 321t114.5 336t91 305h172q-43 -164 -105.5 -356.5t-134 -380.5t-146.5 -356t-140 -283h-193q-66 115 -140.5 283t-146 356t-134 380.5t-105.5 356.5z" />
<glyph unicode="W" horiz-adv-x="1994" d="M82 1376h168q8 -49 23.5 -114.5t34 -143.5t41 -163t44.5 -171q51 -195 100.5 -350t90.5 -260h4q41 104 88 260t100 350q23 86 45.5 168t41 156t32.5 135.5t25 104.5h157q18 -92 57.5 -241t86.5 -323q53 -195 100 -350t88 -260h4q41 104 90 260t101 350q23 86 45 171 t40.5 163t33 143.5t24.5 114.5h166q-27 -135 -70 -308t-97 -358.5t-114.5 -369.5t-122.5 -340h-190q-98 262 -176 510q-23 68 -44.5 146.5t-40 157.5t-34.5 152.5t-25 135.5h-2q-10 -61 -25.5 -135t-34.5 -153t-41 -157.5t-42 -146.5q-37 -123 -82 -251t-94 -259h-191 q-61 156 -122.5 340t-115.5 369.5t-97 358.5t-70 308z" />
<glyph unicode="X" horiz-adv-x="1325" d="M59 0l498 700l-481 676h188l400 -563l397 563h190l-481 -676l498 -700h-193l-411 588l-414 -588h-191z" />
<glyph unicode="Y" horiz-adv-x="1226" d="M25 1376h188l403 -641l400 641h188l-506 -788v-588h-170v588z" />
<glyph unicode="Z" horiz-adv-x="1269" d="M90 0v119l858 1122h-842v135h1055v-119l-856 -1122h873v-135h-1088z" />
<glyph unicode="[" horiz-adv-x="636" d="M195 -262v1704h389v-129h-238v-1446h238v-129h-389z" />
<glyph unicode="\" horiz-adv-x="786" d="M18 1442h146l604 -1704h-145z" />
<glyph unicode="]" horiz-adv-x="636" d="M53 -133h240v1446h-240v129h391v-1704h-391v129z" />
<glyph unicode="^" d="M104 500l402 876h168l401 -876h-160l-325 710l-326 -710h-160z" />
<glyph unicode="_" horiz-adv-x="983" d="M0 -199h983v-127h-983v127z" />
<glyph unicode="`" horiz-adv-x="491" d="M-72 1442h178l248 -287h-151z" />
<glyph unicode="a" horiz-adv-x="1085" d="M90 268q0 152 95.5 221.5t306.5 69.5q164 0 290 -43v137q0 129 -68.5 183.5t-228.5 54.5q-154 0 -307 -49v131q78 23 158 35t168 12q231 0 333.5 -89t102.5 -290v-502q0 -12 3 -18t13 -10l62 -27l-17 -84h-170q-10 0 -13 2t-5 14l-8 86q-90 -127 -336 -127 q-197 0 -288 71t-91 222zM252 270q0 -92 59.5 -134t188.5 -42q147 0 214.5 52.5t67.5 164.5v90q-115 45 -266 45q-141 0 -202.5 -39.5t-61.5 -136.5z" />
<glyph unicode="b" horiz-adv-x="1155" d="M66 1358l16 84h207q18 0 18 -21v-528q49 66 128 96.5t202 30.5q227 0 329.5 -123t102.5 -399t-102.5 -399.5t-329.5 -123.5q-131 0 -216 37t-138 103l-13 -115h-127v1303q0 12 -3 18t-13 10zM307 201q49 -39 120 -67t171 -28q162 0 232.5 91.5t70.5 300.5t-70.5 300 t-232.5 91q-156 0 -223.5 -65.5t-67.5 -219.5v-403z" />
<glyph unicode="c" horiz-adv-x="948" d="M86 498q0 274 116.5 398t375.5 124q111 0 185.5 -13.5t115.5 -29.5l-27 -127q-43 16 -104.5 27.5t-147.5 11.5q-184 0 -265 -91t-81 -300t81 -300.5t265 -91.5q139 0 268 41v-133q-125 -39 -290 -39q-258 0 -375 123.5t-117 399.5z" />
<glyph unicode="d" horiz-adv-x="1173" d="M86 498q0 276 102.5 399t331.5 123q121 0 200 -31t130 -96v549h164v-1303q0 -12 3 -18t13 -10l62 -27l-17 -84h-174q-10 0 -13 2t-5 14l-11 99q-51 -66 -137 -103t-215 -37q-229 0 -331.5 123t-102.5 400zM254 498q0 -209 70.5 -300.5t234.5 -91.5q100 0 171 28t120 67 v403q0 154 -67.5 219.5t-223.5 65.5q-164 0 -234.5 -91t-70.5 -300z" />
<glyph unicode="e" horiz-adv-x="1071" d="M86 498q0 137 27.5 236.5t85 163t146.5 93t214 29.5q227 0 328.5 -120t101.5 -386v-32.5t-2 -30.5h-739q6 -186 95 -266.5t290 -80.5q158 0 317 50v-131q-76 -25 -156.5 -36.5t-172.5 -11.5q-281 0 -408 123.5t-127 399.5zM248 563h583q-4 180 -66.5 259t-205.5 79 q-160 0 -233.5 -79t-77.5 -259z" />
<glyph unicode="f" horiz-adv-x="643" d="M31 905l14 90h123v131q0 180 83 260t267 80q61 0 109.5 -8t77.5 -18l-27 -127q-31 10 -69 16t-72 6q-109 0 -157 -47t-48 -155v-138h299v-129h-299v-866h-164v842q0 16 -2 21t-19 9z" />
<glyph unicode="g" horiz-adv-x="1153" d="M86 498q0 276 102.5 399t331.5 123q104 0 195.5 -27.5t161.5 -81.5l8 84h129v-1038q0 -123 -35 -202t-94.5 -125t-138 -63.5t-166.5 -17.5q-66 0 -125.5 5.5t-92.5 11.5v131q53 -8 108.5 -12t100.5 -4q279 0 279 247v174q-49 -66 -129 -96.5t-201 -30.5 q-229 0 -331.5 123t-102.5 400zM254 498q0 -209 70.5 -300.5t234.5 -91.5q156 0 223.5 66t67.5 219v424q-49 29 -129 51.5t-162 22.5q-164 0 -234.5 -91t-70.5 -300z" />
<glyph unicode="h" horiz-adv-x="1155" d="M61 1358l17 84h207q18 0 18 -21v-516q53 49 133 82t191 33q207 0 296 -92t89 -303v-486q0 -12 3 -18t13 -10l62 -27l-17 -84h-207q-18 0 -18 20v601q0 145 -57.5 204.5t-192.5 59.5q-49 0 -95 -7.5t-85 -18.5t-69 -23.5t-46 -24.5v-811h-164v1303q0 12 -3 18t-13 10z" />
<glyph unicode="i" horiz-adv-x="471" d="M84 911l16 84h207q18 0 19 -20v-975h-164v856q0 12 -3 18.5t-14 10.5zM133 1298q0 55 24.5 80t82.5 25q55 0 80.5 -24.5t25.5 -80.5q0 -102 -106 -102q-57 0 -82 24.5t-25 77.5z" />
<glyph unicode="j" horiz-adv-x="471" d="M-78 -313q18 -2 34.5 -2h27.5q106 0 142 51t36 153v967q0 12 -3 18.5t-14 10.5l-61 26l16 84h207q18 0 19 -20v-1086q0 -154 -72 -243.5t-240 -89.5h-44.5t-47.5 4v127zM133 1298q0 55 24.5 80t82.5 25q55 0 80.5 -24.5t25.5 -80.5q0 -102 -106 -102q-57 0 -82 24.5 t-25 77.5z" />
<glyph unicode="k" horiz-adv-x="976" d="M61 1358l17 84h207q18 0 18 -21v-886l434 460h191l-414 -442l422 -553h-186l-338 451l-109 -109v-342h-164v1303q0 12 -3 18t-13 10z" />
<glyph unicode="l" horiz-adv-x="473" d="M70 1358l16 84h207q18 0 18 -21v-1282q0 -12 3 -18t14 -10l61 -27l-16 -84h-207q-18 0 -19 20v1283q0 12 -3 18t-13 10z" />
<glyph unicode="m" horiz-adv-x="1789" d="M74 911l16 84h207q18 0 18 -20v-62q53 47 127 77t181 30q123 0 191.5 -33.5t113.5 -101.5q66 61 154.5 98t199.5 37q193 0 279 -87t86 -284v-510q0 -12 3 -18t13 -10l61 -27l-16 -84h-207q-18 0 -18 20v623q0 129 -53.5 185.5t-176.5 56.5q-94 0 -168.5 -21.5 t-119.5 -58.5q10 -35 13 -70t3 -80v-655h-164v643q0 129 -53 185.5t-176 56.5q-45 0 -87 -7.5t-78 -18.5t-64.5 -23.5t-43.5 -24.5v-811h-163v856q0 12 -3.5 18.5t-13.5 10.5z" />
<glyph unicode="n" horiz-adv-x="1167" d="M74 911l16 84h207q18 0 18 -20v-70q53 49 133 82t191 33q207 0 296 -92t89 -303v-486q0 -12 3 -18t13 -10l62 -27l-17 -84h-206q-18 0 -19 20v601q0 145 -57.5 204.5t-192.5 59.5q-49 0 -95 -7.5t-85 -18.5t-68.5 -23.5t-46.5 -24.5v-811h-163v856q0 12 -3.5 18.5 t-13.5 10.5z" />
<glyph unicode="o" horiz-adv-x="1153" d="M86 498q0 274 116.5 398t375.5 124q258 0 373.5 -124t115.5 -398q0 -276 -115.5 -399.5t-373.5 -123.5t-375 123.5t-117 399.5zM254 498q0 -209 76 -300.5t248 -91.5q170 0 245.5 91.5t75.5 300.5t-75.5 300t-245.5 91q-172 0 -248 -91t-76 -300z" />
<glyph unicode="p" horiz-adv-x="1163" d="M74 911l16 84h207q18 0 18 -20v-82q47 61 123 94t207 33q227 0 329.5 -123t102.5 -399t-102.5 -399.5t-329.5 -123.5q-123 0 -199.5 31t-130.5 78v-510h-163v1282q0 12 -3.5 18.5t-13.5 10.5zM315 201q49 -39 120 -67t171 -28q162 0 232.5 91.5t70.5 300.5t-70.5 300 t-232.5 91q-156 0 -223.5 -65.5t-67.5 -219.5v-403z" />
<glyph unicode="q" horiz-adv-x="1150" d="M86 498q0 276 102.5 399t331.5 123q129 0 215 -34t137 -107l13 116h129v-1407l-164 -28v526q-51 -47 -130 -79t-200 -32q-229 0 -331.5 123t-102.5 400zM254 498q0 -209 70.5 -300.5t234.5 -91.5q100 0 171 28t120 67v403q0 154 -67.5 219.5t-223.5 65.5 q-164 0 -234.5 -91t-70.5 -300z" />
<glyph unicode="r" horiz-adv-x="747" d="M74 911l16 84h207q18 0 18 -20v-101q115 145 324 146q27 0 53.5 -2t42.5 -6l-28 -144q-18 4 -41 8.5t-52 4.5q-109 0 -177 -32t-122 -77v-772h-163v856q0 12 -3.5 18.5t-13.5 10.5z" />
<glyph unicode="s" horiz-adv-x="952" d="M102 733q0 145 104.5 216t291.5 71q86 0 165.5 -11.5t155.5 -33.5l-26 -127q-137 45 -287 45q-127 0 -186.5 -40t-59.5 -118q0 -61 44 -91t111.5 -47t144.5 -31.5t144.5 -46.5t111.5 -87t44 -156q0 -150 -103.5 -225.5t-295.5 -75.5q-193 0 -348 50v133q162 -55 336 -56 q131 0 192 45.5t61 126.5q0 68 -44 101t-111.5 51t-144 31.5t-144.5 42t-112 82t-44 151.5z" />
<glyph unicode="t" horiz-adv-x="753" d="M29 905l14 90h123v297h164v-297h342v-129h-342v-561q0 -106 46 -152.5t150 -46.5q37 0 74 6t72 13v-131q-78 -18 -170 -19q-176 0 -256 76t-80 248v543q0 16 -2 21t-19 9z" />
<glyph unicode="u" horiz-adv-x="1150" d="M70 909l14 86h209q18 0 18 -20v-584q0 -154 62.5 -219.5t210.5 -65.5q145 0 208.5 66t63.5 219v604h164v-616q0 -213 -103.5 -308.5t-332.5 -95.5q-231 0 -334 95.5t-103 308.5v481q0 10 -14 19z" />
<glyph unicode="v" horiz-adv-x="1040" d="M49 995h166q27 -98 62.5 -208.5t76.5 -222t83 -217t83 -195.5q39 90 82 195.5t84 217t77 222t62 208.5h166q-33 -117 -75 -242.5t-92 -254.5t-106 -255t-114 -243h-168q-59 117 -114.5 243t-105.5 255t-92 255t-75 242z" />
<glyph unicode="w" horiz-adv-x="1632" d="M49 995h164q14 -49 30.5 -107.5t35 -116.5t36 -115.5t31.5 -102.5q35 -111 70 -214t65 -189h4q31 86 67 189t71 214q14 45 30.5 98.5t31.5 108.5t30.5 108.5t27.5 102.5h146q12 -49 27.5 -102.5t32 -108.5t32.5 -108.5t31 -98.5q35 -111 70.5 -214t66.5 -189h4 q31 86 65.5 189t69.5 214q14 45 31.5 102.5t36 115.5t35 116.5t30.5 107.5h162q-35 -119 -77 -254t-88 -269t-93 -256t-88 -216h-178q-35 78 -71 177t-73 210q-14 41 -28.5 90t-27.5 99.5t-24.5 95.5t-17.5 80h-2q-6 -35 -17.5 -80t-24.5 -95.5t-27.5 -99.5t-28.5 -90 q-37 -111 -73 -210t-71 -177h-178q-41 94 -88 216t-93 256t-89 269.5t-76 253.5z" />
<glyph unicode="x" horiz-adv-x="1024" d="M55 0l357 506l-344 489h176l268 -387l270 387h174l-344 -489l357 -506h-181l-276 401l-283 -401h-174z" />
<glyph unicode="y" horiz-adv-x="1024" d="M20 995h179l329 -796l285 796h174l-426 -1134q-33 -88 -67.5 -147.5t-79.5 -96.5t-101.5 -52.5t-132.5 -15.5h-33.5t-33.5 5v127q14 -2 29.5 -2.5t25.5 -0.5q47 0 83 10.5t64.5 34t51 63.5t45.5 99l39 109z" />
<glyph unicode="z" horiz-adv-x="985" d="M94 0v113l582 753h-565v129h772v-114l-582 -752h598v-129h-805z" />
<glyph unicode="{" horiz-adv-x="636" d="M20 526v127h23q98 0 141 43t43 142v299q0 160 73 232.5t239 72.5h45v-129h-23q-98 0 -140 -42t-42 -141v-305q0 -92 -34 -152.5t-105 -82.5q72 -23 105.5 -83.5t33.5 -152.5v-305q0 -98 42 -140t140 -42h23v-129h-45q-166 0 -239 72.5t-73 232.5v299q0 98 -43 141 t-141 43h-23z" />
<glyph unicode="|" horiz-adv-x="491" d="M176 -459v1966h139v-1966h-139z" />
<glyph unicode="}" horiz-adv-x="636" d="M53 -133h23q98 0 141 42t43 140v305q0 92 33 152.5t104 83.5q-72 23 -104.5 83t-32.5 152v305q0 98 -43 140.5t-141 42.5h-23v129h47q164 0 238 -73t74 -232v-299q0 -98 42 -141.5t140 -43.5h22v-127h-22q-98 0 -140 -43t-42 -141v-299q0 -160 -74 -232.5t-238 -72.5h-47 v129z" />
<glyph unicode="~" d="M90 424q2 182 69 267t214 85q82 0 138 -35.5t100 -79t86 -79t98 -35.5q82 0 117.5 50t37.5 159h140q-2 -182 -69 -267.5t-214 -85.5q-82 0 -138.5 36t-100.5 79t-86 79t-97 36q-82 0 -118 -50.5t-38 -158.5h-139z" />
<glyph unicode="&#xa1;" horiz-adv-x="505" d="M143 907q0 57 26 82t85 25t85 -25t26 -82q0 -59 -26 -83.5t-85 -24.5t-85 24.5t-26 83.5zM170 -381l8 959h150l8 -959h-166z" />
<glyph unicode="&#xa2;" d="M205 688q0 246 91 370t294 146v342h151v-336q137 -6 244 -39v-133q-127 41 -266 41q-186 0 -267 -91t-81 -300t80.5 -300t267.5 -91q139 0 266 41v-133q-55 -16 -115.5 -26.5t-128.5 -12.5v-336h-151v342q-203 23 -294 145.5t-91 370.5z" />
<glyph unicode="&#xa3;" d="M162 0v131h184v506h-151v127h151v201q0 227 105.5 331.5t341.5 104.5q123 0 237 -31v-135q-111 31 -213 31q-162 0 -231.5 -71t-69.5 -237v-194h404v-127h-404v-506h531v-131h-885z" />
<glyph unicode="&#xa4;" d="M106 303l150 152q-53 79 -53 233t53 234l-150 151l99 98l151 -149q80 53 234 53t233 -53l152 149l98 -98l-149 -151q53 -80 53 -234t-53 -233l149 -152l-98 -98l-152 149q-80 -53 -233 -53q-154 0 -234 53l-151 -149zM334 688q0 -137 59.5 -196.5t196.5 -59.5t196.5 59.5 t59.5 196.5t-59.5 196.5t-196.5 59.5t-196.5 -59.5t-59.5 -196.5z" />
<glyph unicode="&#xa5;" d="M16 1376h187l387 -614l387 614h186l-442 -686h287v-102h-334v-203h334v-104h-334v-281h-168v281h-334v104h334v203h-334v102h287z" />
<glyph unicode="&#xa6;" horiz-adv-x="491" d="M176 -360v786h139v-786h-139zM176 623v786h139v-786h-139z" />
<glyph unicode="&#xa7;" horiz-adv-x="1138" d="M106 623q0 158 101 243q-33 35 -50.5 81.5t-17.5 107.5q0 184 109.5 265t353.5 81q205 0 371 -51v-136q-176 55 -359 56q-166 0 -234.5 -49.5t-68.5 -165.5q0 -82 53.5 -123t134.5 -65.5t175 -45t175 -58.5t134 -106.5t53 -189.5q0 -154 -96 -242q31 -35 47.5 -82 t16.5 -108q0 -184 -110 -269t-357 -85q-115 0 -219.5 16t-196.5 47v135q193 -68 403 -67q170 0 238.5 53t68.5 170q0 63 -30.5 103t-81.5 65.5t-116.5 42t-133.5 34t-133.5 40t-116.5 60.5t-82 96.5t-31 146.5zM274 625q0 -59 27 -98.5t72 -65t101 -40.5t116.5 -31.5 t118 -36t102.5 -50.5q59 59 59 162q0 61 -26.5 101t-70.5 66.5t-100.5 43t-115.5 32t-116.5 34t-102.5 49.5q-64 -51 -64 -166z" />
<glyph unicode="&#xa8;" horiz-adv-x="491" d="M-61 1298q0 100 102 101q55 0 79.5 -23.5t24.5 -77.5q0 -53 -24.5 -76.5t-79.5 -23.5q-102 0 -102 100zM346 1298q0 53 24.5 77t80.5 24q102 0 102 -101q0 -100 -102 -100q-55 0 -80 23.5t-25 76.5z" />
<glyph unicode="&#xa9;" horiz-adv-x="1703" d="M86 688q0 197 44 339t136 234.5t237.5 136.5t348.5 44t348.5 -44t237.5 -136.5t136 -234.5t44 -339t-44 -339t-136 -234t-237.5 -136.5t-348.5 -44.5t-348.5 44.5t-237.5 136.5t-136 234t-44 339zM188 688q0 -176 39 -302t121 -206t207 -117.5t297 -37.5t297 37.5 t207 117.5t121 206t39 302t-38 302t-118 206t-206 118t-302 38t-302 -38t-206 -118t-118 -206t-38 -302zM467 688q0 233 97.5 337.5t316.5 104.5q70 0 130 -8t119 -24v-107q-57 16 -113 25.5t-116 9.5q-164 0 -233.5 -78t-69.5 -260t69.5 -260t233.5 -78q59 0 115.5 9.5 t113.5 25.5v-106q-59 -16 -119.5 -24.5t-129.5 -8.5q-219 0 -316.5 104.5t-97.5 337.5z" />
<glyph unicode="&#xaa;" horiz-adv-x="774" d="M80 897q0 104 63.5 149.5t206.5 45.5q109 0 189 -29v80q0 84 -43 118.5t-142 34.5q-55 0 -107 -6t-106 -22v96q51 16 105.5 22.5t115.5 6.5q156 0 225.5 -60.5t69.5 -195.5v-422h-96l-8 61q-61 -78 -217 -78q-133 0 -194.5 47.5t-61.5 151.5zM86 467v102h602v-102h-602z M201 901q0 -59 36.5 -86t118.5 -27q96 0 139.5 33t43.5 109v53q-35 14 -79 20.5t-91 6.5q-92 0 -130 -25t-38 -84z" />
<glyph unicode="&#xab;" horiz-adv-x="1013" d="M63 498l285 395h156l-271 -395l271 -396h-156zM504 498l287 395h153l-268 -395l268 -396h-153z" />
<glyph unicode="&#xac;" d="M152 520v139h876v-507h-141v368h-735z" />
<glyph unicode="&#xad;" horiz-adv-x="655" d="M53 442v127h549v-127h-549z" />
<glyph unicode="&#xae;" horiz-adv-x="1703" d="M86 688q0 197 44 339t136 234.5t237.5 136.5t348.5 44t348.5 -44t237.5 -136.5t136 -234.5t44 -339t-44 -339t-136 -234t-237.5 -136.5t-348.5 -44.5t-348.5 44.5t-237.5 136.5t-136 234t-44 339zM188 688q0 -176 39 -302t121 -206t207 -117.5t297 -37.5t297 37.5 t207 117.5t121 206t39 302t-38 302t-118 206t-206 118t-302 38t-302 -38t-206 -118t-118 -206t-38 -302zM549 262v852h354q160 0 229.5 -59.5t69.5 -196.5q0 -219 -205 -246l224 -350h-140l-207 338h-204v-338h-121zM670 700h225q98 0 140 36t42 122t-42 121t-140 35h-225 v-314z" />
<glyph unicode="&#xaf;" horiz-adv-x="491" d="M-63 1241v117h618v-117h-618z" />
<glyph unicode="&#xb0;" horiz-adv-x="702" d="M96 1145q0 123 66.5 186.5t189.5 63.5t188.5 -63.5t65.5 -186.5t-65.5 -187.5t-188.5 -64.5q-125 0 -190.5 64.5t-65.5 187.5zM195 1145q0 -158 157 -158q156 0 156 158q0 156 -156 155q-157 1 -157 -155z" />
<glyph unicode="&#xb1;" d="M152 0v139h876v-139h-876zM152 698v142h368v366h139v-366h369v-142h-369v-368h-139v368h-368z" />
<glyph unicode="&#xb2;" horiz-adv-x="712" d="M57 786v91l328 317q57 55 83 102t26 95q0 86 -43 122.5t-144 36.5q-57 0 -112.5 -8t-112.5 -26v104q57 18 117.5 26.5t126.5 8.5q154 0 224.5 -59.5t70.5 -190.5q0 -66 -34 -129.5t-95 -122.5l-271 -264h404v-103h-568z" />
<glyph unicode="&#xb3;" horiz-adv-x="712" d="M57 801v100q104 -31 211 -31q125 0 181.5 37t56.5 123t-59.5 123t-194.5 37h-35v74l227 276h-378v98h526v-82l-236 -284q147 -10 212 -68.5t65 -173.5q0 -139 -84 -199.5t-273 -60.5q-59 0 -113 7t-106 24z" />
<glyph unicode="&#xb4;" horiz-adv-x="491" d="M137 1155l248 287h178l-274 -287h-152z" />
<glyph unicode="&#xb5;" horiz-adv-x="1161" d="M145 -426v1421h164v-610q0 -147 60.5 -210.5t197.5 -63.5q152 0 219.5 65.5t67.5 218.5v600h164v-995h-129l-12 125q-84 -147 -312 -148q-190 0 -256 111v-514h-164z" />
<glyph unicode="&#xb6;" horiz-adv-x="1214" d="M84 952q0 424 463 424h497v-1671h-141v1542h-246v-717h-110q-463 0 -463 422z" />
<glyph unicode="&#xb7;" horiz-adv-x="473" d="M125 506q0 59 26.5 84t86.5 25q59 0 84.5 -24.5t25.5 -84.5q0 -59 -25.5 -83.5t-84.5 -24.5t-86 24.5t-27 83.5z" />
<glyph unicode="&#xb8;" horiz-adv-x="491" d="M41 -354q41 -10 77 -17.5t77 -7.5q78 0 110.5 20.5t32.5 71.5q0 49 -29.5 69.5t-103.5 20.5h-17v197h115v-123q86 -6 126 -46t40 -122q0 -98 -60.5 -140t-193.5 -42q-47 0 -90 5t-84 15v99z" />
<glyph unicode="&#xb9;" horiz-adv-x="557" d="M66 1432v104l245 102h99v-852h-125v738z" />
<glyph unicode="&#xba;" horiz-adv-x="825" d="M80 1044q0 184 79 266.5t253 82.5t252.5 -82t78.5 -267q0 -184 -77.5 -265t-253.5 -81q-174 0 -253 81t-79 265zM86 467v102h651v-102h-651zM207 1044q0 -131 47 -188t158 -57t157.5 57t46.5 188q0 133 -47 189.5t-157 56.5q-111 0 -158 -56.5t-47 -189.5z" />
<glyph unicode="&#xbb;" horiz-adv-x="1013" d="M68 102l270 396l-270 395h155l287 -395l-287 -396h-155zM510 102l268 396l-268 395h154l286 -395l-286 -396h-154z" />
<glyph unicode="&#xbc;" horiz-adv-x="1769" d="M164 1169v105l246 102h98v-852h-125v738zM522 0l619 1376h106l-618 -1376h-107zM1053 184v92l417 576h129v-571h125v-97h-125v-184h-112v184h-434zM1171 281h316v434z" />
<glyph unicode="&#xbd;" horiz-adv-x="1769" d="M164 1170v104l245 102h99v-852h-125v738zM523 0l618 1376h107l-619 -1376h-106zM1093 0v91l328 317q57 55 83 102t26 95q0 86 -43 122.5t-144 36.5q-57 0 -112.5 -8t-112.5 -26v104q57 18 117.5 26.5t126.5 8.5q154 0 224.5 -59.5t70.5 -190.5q0 -66 -34 -129.5 t-95 -122.5l-271 -264h404v-103h-568z" />
<glyph unicode="&#xbe;" horiz-adv-x="1769" d="M78 539v100q104 -31 211 -31q125 0 181 37t56 123t-59 123t-195 37h-34v73l227 277h-379v98h526v-82l-235 -284q147 -10 211.5 -68.5t64.5 -173.5q0 -139 -84 -199.5t-272 -60.5q-59 0 -113.5 7t-105.5 24zM522 0l619 1376h106l-618 -1376h-107zM1053 184v92l417 576h129 v-571h125v-97h-125v-184h-112v184h-434zM1171 281h316v434z" />
<glyph unicode="&#xbf;" horiz-adv-x="843" d="M84 -63q0 84 28.5 145t70.5 108.5t92.5 86t92.5 79.5t70.5 89.5t28.5 115.5v17h139v-29q0 -84 -26.5 -144.5t-65.5 -106.5t-85 -84t-85 -77t-65.5 -83t-26.5 -105q0 -121 66.5 -172t220.5 -51q72 0 148.5 14t156.5 43v-133q-158 -55 -324 -56q-231 0 -333.5 81 t-102.5 262zM426 907q0 57 25.5 82t85.5 25q59 0 84.5 -25t25.5 -82q0 -59 -25.5 -83.5t-84.5 -24.5t-85 24.5t-26 83.5z" />
<glyph unicode="&#xc0;" horiz-adv-x="1327" d="M41 0q43 164 105.5 356.5t134 381t146.5 356.5t140 282h193q66 -115 140.5 -282.5t146 -356t134 -381t105.5 -356.5h-172q-23 82 -50.5 175t-59.5 192h-680q-33 -98 -60.5 -191.5t-50.5 -175.5h-172zM346 1802h178l248 -287h-151zM367 494h594q-35 102 -73 204.5 t-77 196.5t-75.5 178t-71.5 152q-35 -68 -73 -152t-76 -178t-76 -196.5t-72 -204.5z" />
<glyph unicode="&#xc1;" horiz-adv-x="1327" d="M41 0q43 164 105.5 356.5t134 381t146.5 356.5t140 282h193q66 -115 140.5 -282.5t146 -356t134 -381t105.5 -356.5h-172q-23 82 -50.5 175t-59.5 192h-680q-33 -98 -60.5 -191.5t-50.5 -175.5h-172zM367 494h594q-35 102 -73 204.5t-77 196.5t-75.5 178t-71.5 152 q-35 -68 -73 -152t-76 -178t-76 -196.5t-72 -204.5zM555 1515l248 287h178l-274 -287h-152z" />
<glyph unicode="&#xc2;" horiz-adv-x="1327" d="M41 0q43 164 105.5 356.5t134 381t146.5 356.5t140 282h193q66 -115 140.5 -282.5t146 -356t134 -381t105.5 -356.5h-172q-23 82 -50.5 175t-59.5 192h-680q-33 -98 -60.5 -191.5t-50.5 -175.5h-172zM330 1515l252 287h164l252 -287h-150l-184 195l-185 -195h-149z M367 494h594q-35 102 -73 204.5t-77 196.5t-75.5 178t-71.5 152q-35 -68 -73 -152t-76 -178t-76 -196.5t-72 -204.5z" />
<glyph unicode="&#xc3;" horiz-adv-x="1327" d="M41 0q43 164 105.5 356.5t134 381t146.5 356.5t140 282h193q66 -115 140.5 -282.5t146 -356t134 -381t105.5 -356.5h-172q-23 82 -50.5 175t-59.5 192h-680q-33 -98 -60.5 -191.5t-50.5 -175.5h-172zM346 1538v20q0 111 43 160t138 49q43 0 77.5 -16.5t63.5 -36 t55.5 -35.5t54.5 -16q47 0 65.5 23.5t18.5 80.5v14h119v-22q0 -111 -43 -160t-137 -49q-43 0 -78 16.5t-63.5 36t-56 35.5t-54.5 16q-47 0 -65.5 -23.5t-18.5 -80.5v-12h-119zM367 494h594q-35 102 -73 204.5t-77 196.5t-75.5 178t-71.5 152q-35 -68 -73 -152t-76 -178 t-76 -196.5t-72 -204.5z" />
<glyph unicode="&#xc4;" horiz-adv-x="1327" d="M41 0q43 164 105.5 356.5t134 381t146.5 356.5t140 282h193q66 -115 140.5 -282.5t146 -356t134 -381t105.5 -356.5h-172q-23 82 -50.5 175t-59.5 192h-680q-33 -98 -60.5 -191.5t-50.5 -175.5h-172zM357 1658q0 100 102 101q55 0 79.5 -23.5t24.5 -77.5 q0 -53 -24.5 -76.5t-79.5 -23.5q-102 0 -102 100zM367 494h594q-35 102 -73 204.5t-77 196.5t-75.5 178t-71.5 152q-35 -68 -73 -152t-76 -178t-76 -196.5t-72 -204.5zM764 1658q0 53 24.5 77t80.5 24q102 0 102 -101q0 -100 -102 -100q-55 0 -80 23.5t-25 76.5z" />
<glyph unicode="&#xc5;" horiz-adv-x="1327" d="M41 0q43 164 105.5 356.5t134 381t146.5 356.5t140 282h193q66 -115 140.5 -282.5t146 -356t134 -381t105.5 -356.5h-172q-23 82 -50.5 175t-59.5 192h-680q-33 -98 -60.5 -191.5t-50.5 -175.5h-172zM367 494h594q-35 102 -73 204.5t-77 196.5t-75.5 178t-71.5 152 q-35 -68 -73 -152t-76 -178t-76 -196.5t-72 -204.5zM453 1658q0 102 50 147.5t161 45.5t161 -45t50 -148q0 -100 -50.5 -146t-160.5 -46q-111 0 -161 46t-50 146zM549 1658q0 -61 26.5 -87.5t88.5 -26.5q61 0 87.5 25.5t26.5 88.5q0 61 -26.5 89t-87.5 28t-88 -28t-27 -89z " />
<glyph unicode="&#xc6;" horiz-adv-x="1978" d="M-29 0q109 197 230 394.5t240.5 377.5t233 336t210.5 268h985v-135h-754v-477h606v-127h-606v-502h770v-135h-940v367h-588q-55 -92 -109 -183.5t-104 -183.5h-174zM436 494h510v735q-111 -141 -243 -331.5t-267 -403.5z" />
<glyph unicode="&#xc7;" horiz-adv-x="1236" d="M100 688q0 188 38 323.5t118 221.5t204 127t296 41q211 0 389 -51v-140q-90 27 -180.5 40.5t-186.5 13.5q-133 0 -228 -33t-156.5 -101.5t-90.5 -178t-29 -263.5t29 -263.5t90.5 -178t156.5 -101t228 -32.5q96 0 186.5 13t180.5 40v-139q-84 -23 -172 -36.5t-182 -15.5 v-98q86 -6 125.5 -46t39.5 -122q0 -98 -60 -140t-194 -42q-47 0 -90 5t-84 15v99q41 -10 77 -17.5t77 -7.5q78 0 110.5 20.5t32.5 71.5q0 49 -29.5 69.5t-103.5 20.5h-16v177q-301 16 -438.5 185t-137.5 523z" />
<glyph unicode="&#xc8;" horiz-adv-x="1208" d="M94 1300l15 76h991v-135h-754v-477h606v-127h-606v-502h770v-135h-940v1247q0 18 -20 27zM315 1802h178l248 -287h-151z" />
<glyph unicode="&#xc9;" horiz-adv-x="1208" d="M94 1300l15 76h991v-135h-754v-477h606v-127h-606v-502h770v-135h-940v1247q0 18 -20 27zM524 1515l248 287h178l-274 -287h-152z" />
<glyph unicode="&#xca;" horiz-adv-x="1208" d="M94 1300l15 76h991v-135h-754v-477h606v-127h-606v-502h770v-135h-940v1247q0 18 -20 27zM299 1515l252 287h164l252 -287h-150l-184 195l-185 -195h-149z" />
<glyph unicode="&#xcb;" horiz-adv-x="1208" d="M94 1300l15 76h991v-135h-754v-477h606v-127h-606v-502h770v-135h-940v1247q0 18 -20 27zM326 1658q0 100 102 101q55 0 79.5 -23.5t24.5 -77.5q0 -53 -24.5 -76.5t-79.5 -23.5q-102 0 -102 100zM733 1658q0 53 24.5 77t80.5 24q102 0 102 -101q0 -100 -102 -100 q-55 0 -80 23.5t-25 76.5z" />
<glyph unicode="&#xcc;" horiz-adv-x="520" d="M-56 1802h178l248 -287h-151zM96 1300l15 76h219q18 0 18 -20v-1356h-170v1247q0 18 -20 27z" />
<glyph unicode="&#xcd;" horiz-adv-x="520" d="M96 1300l15 76h219q18 0 18 -20v-1356h-170v1247q0 18 -20 27zM153 1515l248 287h178l-274 -287h-152z" />
<glyph unicode="&#xce;" horiz-adv-x="520" d="M-72 1515l252 287h164l252 -287h-150l-184 195l-185 -195h-149zM96 1300l15 76h219q18 0 18 -20v-1356h-170v1247q0 18 -20 27z" />
<glyph unicode="&#xcf;" horiz-adv-x="520" d="M-45 1658q0 100 102 101q55 0 79.5 -23.5t24.5 -77.5q0 -53 -24.5 -76.5t-79.5 -23.5q-102 0 -102 100zM96 1300l15 76h219q18 0 18 -20v-1356h-170v1247q0 18 -20 27zM362 1658q0 53 24.5 77t80.5 24q102 0 102 -101q0 -100 -102 -100q-55 0 -80 23.5t-25 76.5z" />
<glyph unicode="&#xd0;" horiz-adv-x="1497" d="M63 639v123h162v485q0 18 -20 27l-62 26l15 76h522q190 0 325.5 -39t222.5 -123t128 -214t41 -312t-41 -312t-128 -213t-222.5 -123t-325.5 -40h-455v639h-162zM395 135h273q147 0 252.5 31t173 98.5t99.5 172t32 251.5t-32 251.5t-99.5 172.5t-173 98.5t-252.5 30.5 h-273v-479h371v-123h-371v-504z" />
<glyph unicode="&#xd1;" horiz-adv-x="1513" d="M94 1300l15 76h192q29 0 40 -5t21 -21l824 -1114v1140h157v-1376h-165l-844 1141v-1141h-158v1247q0 18 -20 27zM442 1538v20q0 111 43 160t138 49q43 0 77.5 -16.5t63.5 -36t55.5 -35.5t54.5 -16q47 0 65.5 23.5t18.5 80.5v14h119v-22q0 -111 -43 -160t-137 -49 q-43 0 -78 16.5t-63.5 36t-56 35.5t-54.5 16q-47 0 -65.5 -23.5t-18.5 -80.5v-12h-119z" />
<glyph unicode="&#xd2;" horiz-adv-x="1509" d="M100 688q0 188 38 323.5t118 221.5t204 127t296 41t296 -41t203.5 -127t116.5 -221t37 -324q0 -188 -37 -323.5t-116.5 -221.5t-203.5 -127t-296 -41t-296 41t-204 127t-118 221.5t-38 323.5zM274 688q0 -154 27 -263.5t85 -178t149.5 -101t220.5 -32.5q127 0 218 32.5 t149.5 101t86 178.5t27.5 263q0 154 -27.5 263.5t-86 178t-149.5 101.5t-218 33q-129 0 -220.5 -33t-149.5 -101.5t-85 -178t-27 -263.5zM438 1802h178l248 -287h-151z" />
<glyph unicode="&#xd3;" horiz-adv-x="1509" d="M100 688q0 188 38 323.5t118 221.5t204 127t296 41t296 -41t203.5 -127t116.5 -221t37 -324q0 -188 -37 -323.5t-116.5 -221.5t-203.5 -127t-296 -41t-296 41t-204 127t-118 221.5t-38 323.5zM274 688q0 -154 27 -263.5t85 -178t149.5 -101t220.5 -32.5q127 0 218 32.5 t149.5 101t86 178.5t27.5 263q0 154 -27.5 263.5t-86 178t-149.5 101.5t-218 33q-129 0 -220.5 -33t-149.5 -101.5t-85 -178t-27 -263.5zM647 1515l248 287h178l-274 -287h-152z" />
<glyph unicode="&#xd4;" horiz-adv-x="1509" d="M100 688q0 188 38 323.5t118 221.5t204 127t296 41t296 -41t203.5 -127t116.5 -221t37 -324q0 -188 -37 -323.5t-116.5 -221.5t-203.5 -127t-296 -41t-296 41t-204 127t-118 221.5t-38 323.5zM274 688q0 -154 27 -263.5t85 -178t149.5 -101t220.5 -32.5q127 0 218 32.5 t149.5 101t86 178.5t27.5 263q0 154 -27.5 263.5t-86 178t-149.5 101.5t-218 33q-129 0 -220.5 -33t-149.5 -101.5t-85 -178t-27 -263.5zM422 1515l252 287h164l252 -287h-150l-184 195l-185 -195h-149z" />
<glyph unicode="&#xd5;" horiz-adv-x="1509" d="M100 688q0 188 38 323.5t118 221.5t204 127t296 41t296 -41t203.5 -127t116.5 -221t37 -324q0 -188 -37 -323.5t-116.5 -221.5t-203.5 -127t-296 -41t-296 41t-204 127t-118 221.5t-38 323.5zM274 688q0 -154 27 -263.5t85 -178t149.5 -101t220.5 -32.5q127 0 218 32.5 t149.5 101t86 178.5t27.5 263q0 154 -27.5 263.5t-86 178t-149.5 101.5t-218 33q-129 0 -220.5 -33t-149.5 -101.5t-85 -178t-27 -263.5zM438 1538v20q0 111 43 160t138 49q43 0 77.5 -16.5t63.5 -36t55.5 -35.5t54.5 -16q47 0 65.5 23.5t18.5 80.5v14h119v-22 q0 -111 -43 -160t-137 -49q-43 0 -78 16.5t-63.5 36t-56 35.5t-54.5 16q-47 0 -65.5 -23.5t-18.5 -80.5v-12h-119z" />
<glyph unicode="&#xd6;" horiz-adv-x="1509" d="M100 688q0 188 38 323.5t118 221.5t204 127t296 41t296 -41t203.5 -127t116.5 -221t37 -324q0 -188 -37 -323.5t-116.5 -221.5t-203.5 -127t-296 -41t-296 41t-204 127t-118 221.5t-38 323.5zM274 688q0 -154 27 -263.5t85 -178t149.5 -101t220.5 -32.5q127 0 218 32.5 t149.5 101t86 178.5t27.5 263q0 154 -27.5 263.5t-86 178t-149.5 101.5t-218 33q-129 0 -220.5 -33t-149.5 -101.5t-85 -178t-27 -263.5zM449 1658q0 100 102 101q55 0 79.5 -23.5t24.5 -77.5q0 -53 -24.5 -76.5t-79.5 -23.5q-102 0 -102 100zM856 1658q0 53 24.5 77 t80.5 24q102 0 102 -101q0 -100 -102 -100q-55 0 -80 23.5t-25 76.5z" />
<glyph unicode="&#xd7;" d="M184 283l308 307l-308 307l99 98l307 -307l307 307l98 -98l-307 -307l307 -307l-98 -99l-307 308l-307 -308z" />
<glyph unicode="&#xd8;" horiz-adv-x="1509" d="M100 688q0 188 38 323.5t118 221.5t204 127t296 41q254 0 401 -90l98 131h131l-147 -195q88 -86 129 -223t41 -336q0 -188 -37 -323.5t-116.5 -221.5t-203.5 -127t-296 -41q-252 0 -404 88l-96 -129h-131l145 193q-88 86 -129 224t-41 337zM262 688q0 -295 105 -432 l700 936q-111 78 -311 78q-131 0 -224.5 -33t-154 -103.5t-88 -180t-27.5 -265.5zM442 182q57 -41 135 -58.5t179 -17.5q131 0 224 33t152.5 103.5t87 180t27.5 265.5q0 293 -104 430z" />
<glyph unicode="&#xd9;" horiz-adv-x="1499" d="M86 1300l14 76h219q18 0 19 -20v-817q0 -227 96 -326.5t318 -99.5q219 0 316 99t97 327v837h170v-850q0 -145 -33.5 -249.5t-104.5 -171t-181.5 -98.5t-263.5 -32q-154 0 -264.5 32t-181 98.5t-104.5 171t-34 249.5v721q0 18 -21 27zM434 1802h178l248 -287h-151z" />
<glyph unicode="&#xda;" horiz-adv-x="1499" d="M86 1300l14 76h219q18 0 19 -20v-817q0 -227 96 -326.5t318 -99.5q219 0 316 99t97 327v837h170v-850q0 -145 -33.5 -249.5t-104.5 -171t-181.5 -98.5t-263.5 -32q-154 0 -264.5 32t-181 98.5t-104.5 171t-34 249.5v721q0 18 -21 27zM643 1515l248 287h178l-274 -287 h-152z" />
<glyph unicode="&#xdb;" horiz-adv-x="1499" d="M86 1300l14 76h219q18 0 19 -20v-817q0 -227 96 -326.5t318 -99.5q219 0 316 99t97 327v837h170v-850q0 -145 -33.5 -249.5t-104.5 -171t-181.5 -98.5t-263.5 -32q-154 0 -264.5 32t-181 98.5t-104.5 171t-34 249.5v721q0 18 -21 27zM418 1515l252 287h164l252 -287h-150 l-184 195l-185 -195h-149z" />
<glyph unicode="&#xdc;" horiz-adv-x="1499" d="M86 1300l14 76h219q18 0 19 -20v-817q0 -227 96 -326.5t318 -99.5q219 0 316 99t97 327v837h170v-850q0 -145 -33.5 -249.5t-104.5 -171t-181.5 -98.5t-263.5 -32q-154 0 -264.5 32t-181 98.5t-104.5 171t-34 249.5v721q0 18 -21 27zM445 1658q0 100 102 101 q55 0 79.5 -23.5t24.5 -77.5q0 -53 -24.5 -76.5t-79.5 -23.5q-102 0 -102 100zM852 1658q0 53 24.5 77t80.5 24q102 0 102 -101q0 -100 -102 -100q-55 0 -80 23.5t-25 76.5z" />
<glyph unicode="&#xdd;" horiz-adv-x="1226" d="M25 1376h188l403 -641l400 641h188l-506 -788v-588h-170v588zM506 1515l248 287h178l-274 -287h-152z" />
<glyph unicode="&#xde;" horiz-adv-x="1284" d="M94 1300l15 76h231v-252h377q256 0 369.5 -100t113.5 -324q0 -223 -113.5 -323.5t-369.5 -100.5h-377v-276h-164v1247q0 18 -20 27zM340 412h365q176 0 252.5 67.5t76.5 220.5q0 154 -76.5 221.5t-252.5 67.5h-365v-577z" />
<glyph unicode="&#xdf;" horiz-adv-x="1161" d="M145 0v1010q0 240 107.5 348t349.5 108q221 0 320.5 -90t99.5 -291q0 -135 -49 -212.5t-150 -110.5q129 -29 196.5 -123t67.5 -250q0 -219 -106.5 -316.5t-343.5 -97.5q-47 0 -97.5 3.5t-97.5 11.5v135q86 -18 172 -19q168 0 240 68t72 227q0 154 -76 221.5t-252 67.5 h-82v127h66q152 0 217 59.5t65 196.5q0 141 -62.5 201.5t-205.5 60.5q-156 0 -224.5 -78.5t-68.5 -259.5v-997h-158z" />
<glyph unicode="&#xe0;" horiz-adv-x="1085" d="M90 268q0 152 95.5 221.5t306.5 69.5q164 0 290 -43v137q0 129 -68.5 183.5t-228.5 54.5q-154 0 -307 -49v131q78 23 158 35t168 12q231 0 333.5 -89t102.5 -290v-502q0 -12 3 -18t13 -10l62 -27l-17 -84h-170q-10 0 -13 2t-5 14l-8 86q-90 -127 -336 -127 q-197 0 -288 71t-91 222zM225 1442h178l248 -287h-151zM252 270q0 -92 59.5 -134t188.5 -42q147 0 214.5 52.5t67.5 164.5v90q-115 45 -266 45q-141 0 -202.5 -39.5t-61.5 -136.5z" />
<glyph unicode="&#xe1;" horiz-adv-x="1085" d="M90 268q0 152 95.5 221.5t306.5 69.5q164 0 290 -43v137q0 129 -68.5 183.5t-228.5 54.5q-154 0 -307 -49v131q78 23 158 35t168 12q231 0 333.5 -89t102.5 -290v-502q0 -12 3 -18t13 -10l62 -27l-17 -84h-170q-10 0 -13 2t-5 14l-8 86q-90 -127 -336 -127 q-197 0 -288 71t-91 222zM252 270q0 -92 59.5 -134t188.5 -42q147 0 214.5 52.5t67.5 164.5v90q-115 45 -266 45q-141 0 -202.5 -39.5t-61.5 -136.5zM434 1155l248 287h178l-274 -287h-152z" />
<glyph unicode="&#xe2;" horiz-adv-x="1085" d="M90 268q0 152 95.5 221.5t306.5 69.5q164 0 290 -43v137q0 129 -68.5 183.5t-228.5 54.5q-154 0 -307 -49v131q78 23 158 35t168 12q231 0 333.5 -89t102.5 -290v-502q0 -12 3 -18t13 -10l62 -27l-17 -84h-170q-10 0 -13 2t-5 14l-8 86q-90 -127 -336 -127 q-197 0 -288 71t-91 222zM209 1155l252 287h164l252 -287h-150l-184 195l-185 -195h-149zM252 270q0 -92 59.5 -134t188.5 -42q147 0 214.5 52.5t67.5 164.5v90q-115 45 -266 45q-141 0 -202.5 -39.5t-61.5 -136.5z" />
<glyph unicode="&#xe3;" horiz-adv-x="1085" d="M90 268q0 152 95.5 221.5t306.5 69.5q164 0 290 -43v137q0 129 -68.5 183.5t-228.5 54.5q-154 0 -307 -49v131q78 23 158 35t168 12q231 0 333.5 -89t102.5 -290v-502q0 -12 3 -18t13 -10l62 -27l-17 -84h-170q-10 0 -13 2t-5 14l-8 86q-90 -127 -336 -127 q-197 0 -288 71t-91 222zM225 1178v20q0 111 43 160t138 49q43 0 77.5 -16.5t63.5 -36t55.5 -35.5t54.5 -16q47 0 65.5 23.5t18.5 80.5v14h119v-22q0 -111 -43 -160t-137 -49q-43 0 -78 16.5t-63.5 36t-56 35.5t-54.5 16q-47 0 -65.5 -23.5t-18.5 -80.5v-12h-119zM252 270 q0 -92 59.5 -134t188.5 -42q147 0 214.5 52.5t67.5 164.5v90q-115 45 -266 45q-141 0 -202.5 -39.5t-61.5 -136.5z" />
<glyph unicode="&#xe4;" horiz-adv-x="1085" d="M90 268q0 152 95.5 221.5t306.5 69.5q164 0 290 -43v137q0 129 -68.5 183.5t-228.5 54.5q-154 0 -307 -49v131q78 23 158 35t168 12q231 0 333.5 -89t102.5 -290v-502q0 -12 3 -18t13 -10l62 -27l-17 -84h-170q-10 0 -13 2t-5 14l-8 86q-90 -127 -336 -127 q-197 0 -288 71t-91 222zM236 1298q0 100 102 101q55 0 79.5 -23.5t24.5 -77.5q0 -53 -24.5 -76.5t-79.5 -23.5q-102 0 -102 100zM252 270q0 -92 59.5 -134t188.5 -42q147 0 214.5 52.5t67.5 164.5v90q-115 45 -266 45q-141 0 -202.5 -39.5t-61.5 -136.5zM643 1298 q0 53 24.5 77t80.5 24q102 0 102 -101q0 -100 -102 -100q-55 0 -80 23.5t-25 76.5z" />
<glyph unicode="&#xe5;" horiz-adv-x="1085" d="M90 268q0 152 95.5 221.5t306.5 69.5q164 0 290 -43v137q0 129 -68.5 183.5t-228.5 54.5q-154 0 -307 -49v131q78 23 158 35t168 12q231 0 333.5 -89t102.5 -290v-502q0 -12 3 -18t13 -10l62 -27l-17 -84h-170q-10 0 -13 2t-5 14l-8 86q-90 -127 -336 -127 q-197 0 -288 71t-91 222zM252 270q0 -92 59.5 -134t188.5 -42q147 0 214.5 52.5t67.5 164.5v90q-115 45 -266 45q-141 0 -202.5 -39.5t-61.5 -136.5zM332 1298q0 102 50 147.5t161 45.5t161 -45t50 -148q0 -100 -50.5 -146t-160.5 -46q-111 0 -161 46t-50 146zM428 1298 q0 -61 26.5 -87.5t88.5 -26.5q61 0 87.5 25.5t26.5 88.5q0 61 -26.5 89t-87.5 28t-88 -28t-27 -89z" />
<glyph unicode="&#xe6;" horiz-adv-x="1761" d="M90 268q0 152 95.5 220.5t306.5 68.5q164 0 290 -43v139q0 129 -68.5 183.5t-228.5 54.5q-154 0 -307 -49v131q78 23 158 35t168 12q154 0 244 -44t124 -142q92 186 377 186q227 0 328.5 -120t101.5 -386q0 -16 -1 -32.5t-1 -30.5h-741q4 -184 94 -265.5t291 -81.5 q160 0 319 50v-131q-78 -25 -158.5 -36.5t-172.5 -11.5q-172 0 -283 46.5t-170 148.5q-76 -195 -381 -195q-199 0 -292 70.5t-93 222.5zM252 270q0 -92 60.5 -134t191.5 -42q147 0 212.5 52.5t65.5 164.5v90q-115 45 -266 45q-141 0 -202.5 -40t-61.5 -136zM936 563h584 q-4 180 -66 259t-205 79q-160 0 -233.5 -78t-79.5 -260z" />
<glyph unicode="&#xe7;" horiz-adv-x="948" d="M86 498q0 274 116.5 398t375.5 124q166 0 290 -39v-133q-129 41 -268 41q-184 0 -265 -91t-81 -300t81 -300.5t265 -91.5q139 0 268 41v-133q-113 -35 -262 -39v-98q86 -6 126 -46t40 -122q0 -98 -60.5 -140t-193.5 -42q-47 0 -90 5t-84 15v99q41 -10 77 -17.5t77 -7.5 q78 0 110.5 20.5t32.5 71.5q0 49 -29.5 69.5t-103.5 20.5h-16v177q-213 18 -309.5 142t-96.5 376z" />
<glyph unicode="&#xe8;" horiz-adv-x="1071" d="M86 498q0 137 27.5 236.5t85 163t146.5 93t214 29.5q227 0 328.5 -120t101.5 -386v-32.5t-2 -30.5h-739q6 -186 95 -266.5t290 -80.5q158 0 317 50v-131q-76 -25 -156.5 -36.5t-172.5 -11.5q-281 0 -408 123.5t-127 399.5zM237 1442h178l248 -287h-151zM248 563h583 q-4 180 -66.5 259t-205.5 79q-160 0 -233.5 -79t-77.5 -259z" />
<glyph unicode="&#xe9;" horiz-adv-x="1071" d="M86 498q0 137 27.5 236.5t85 163t146.5 93t214 29.5q227 0 328.5 -120t101.5 -386v-32.5t-2 -30.5h-739q6 -186 95 -266.5t290 -80.5q158 0 317 50v-131q-76 -25 -156.5 -36.5t-172.5 -11.5q-281 0 -408 123.5t-127 399.5zM248 563h583q-4 180 -66.5 259t-205.5 79 q-160 0 -233.5 -79t-77.5 -259zM446 1155l248 287h178l-274 -287h-152z" />
<glyph unicode="&#xea;" horiz-adv-x="1071" d="M86 498q0 137 27.5 236.5t85 163t146.5 93t214 29.5q227 0 328.5 -120t101.5 -386v-32.5t-2 -30.5h-739q6 -186 95 -266.5t290 -80.5q158 0 317 50v-131q-76 -25 -156.5 -36.5t-172.5 -11.5q-281 0 -408 123.5t-127 399.5zM221 1155l252 287h164l252 -287h-150l-184 195 l-185 -195h-149zM248 563h583q-4 180 -66.5 259t-205.5 79q-160 0 -233.5 -79t-77.5 -259z" />
<glyph unicode="&#xeb;" horiz-adv-x="1071" d="M86 498q0 137 27.5 236.5t85 163t146.5 93t214 29.5q227 0 328.5 -120t101.5 -386v-32.5t-2 -30.5h-739q6 -186 95 -266.5t290 -80.5q158 0 317 50v-131q-76 -25 -156.5 -36.5t-172.5 -11.5q-281 0 -408 123.5t-127 399.5zM248 563h583q-4 180 -66.5 259t-205.5 79 q-160 0 -233.5 -79t-77.5 -259zM248 1298q0 100 102 101q55 0 79.5 -23.5t24.5 -77.5q0 -53 -24.5 -76.5t-79.5 -23.5q-102 0 -102 100zM655 1298q0 53 24.5 77t80.5 24q102 0 102 -101q0 -100 -102 -100q-55 0 -80 23.5t-25 76.5z" />
<glyph unicode="&#xec;" horiz-adv-x="471" d="M-74 1442h178l248 -287h-151zM84 911l16 84h207q18 0 19 -20v-975h-164v856q0 12 -3 18.5t-14 10.5z" />
<glyph unicode="&#xed;" horiz-adv-x="471" d="M84 911l16 84h207q18 0 19 -20v-975h-164v856q0 12 -3 18.5t-14 10.5zM135 1155l248 287h178l-274 -287h-152z" />
<glyph unicode="&#xee;" horiz-adv-x="471" d="M-90 1155l252 287h164l252 -287h-150l-184 195l-185 -195h-149zM84 911l16 84h207q18 0 19 -20v-975h-164v856q0 12 -3 18.5t-14 10.5z" />
<glyph unicode="&#xef;" horiz-adv-x="471" d="M-84 1298q0 100 102 101q55 0 79.5 -23.5t24.5 -77.5q0 -53 -24.5 -76.5t-79.5 -23.5q-102 0 -102 100zM84 911l16 84h207q18 0 19 -20v-975h-164v856q0 12 -3 18.5t-14 10.5zM323 1298q0 53 24.5 77t80.5 24q102 0 102 -101q0 -100 -102 -100q-55 0 -80 23.5t-25 76.5z " />
<glyph unicode="&#xf0;" horiz-adv-x="1161" d="M90 485q0 270 108.5 390t346.5 120q225 0 315 -135q-25 129 -77 223.5t-140 153.5l-106 -125h-148l152 178q-111 45 -271 51v125q106 -4 196.5 -19t166.5 -48l76 88h147l-121 -141q164 -104 242 -303t78 -504q0 -295 -118 -429.5t-372 -134.5q-250 0 -362.5 121 t-112.5 389zM258 485q0 -207 71.5 -296t235.5 -89q170 0 246 91.5t76 300.5q0 197 -73 287.5t-236 90.5q-170 0 -245 -89t-75 -296z" />
<glyph unicode="&#xf1;" horiz-adv-x="1167" d="M74 911l16 84h207q18 0 18 -20v-70q53 49 133 82t191 33q207 0 296 -92t89 -303v-486q0 -12 3 -18t13 -10l62 -27l-17 -84h-206q-18 0 -19 20v601q0 145 -57.5 204.5t-192.5 59.5q-49 0 -95 -7.5t-85 -18.5t-68.5 -23.5t-46.5 -24.5v-811h-163v856q0 12 -3.5 18.5 t-13.5 10.5zM272 1178v20q0 111 43 160t138 49q43 0 77.5 -16.5t63.5 -36t55.5 -35.5t54.5 -16q47 0 65.5 23.5t18.5 80.5v14h119v-22q0 -111 -43 -160t-137 -49q-43 0 -78 16.5t-63.5 36t-56 35.5t-54.5 16q-47 0 -65.5 -23.5t-18.5 -80.5v-12h-119z" />
<glyph unicode="&#xf2;" horiz-adv-x="1153" d="M86 498q0 274 116.5 398t375.5 124q258 0 373.5 -124t115.5 -398q0 -276 -115.5 -399.5t-373.5 -123.5t-375 123.5t-117 399.5zM254 498q0 -209 76 -300.5t248 -91.5q170 0 245.5 91.5t75.5 300.5t-75.5 300t-245.5 91q-172 0 -248 -91t-76 -300zM260 1442h178l248 -287 h-151z" />
<glyph unicode="&#xf3;" horiz-adv-x="1153" d="M86 498q0 274 116.5 398t375.5 124q258 0 373.5 -124t115.5 -398q0 -276 -115.5 -399.5t-373.5 -123.5t-375 123.5t-117 399.5zM254 498q0 -209 76 -300.5t248 -91.5q170 0 245.5 91.5t75.5 300.5t-75.5 300t-245.5 91q-172 0 -248 -91t-76 -300zM469 1155l248 287h178 l-274 -287h-152z" />
<glyph unicode="&#xf4;" horiz-adv-x="1153" d="M86 498q0 274 116.5 398t375.5 124q258 0 373.5 -124t115.5 -398q0 -276 -115.5 -399.5t-373.5 -123.5t-375 123.5t-117 399.5zM244 1155l252 287h164l252 -287h-150l-184 195l-185 -195h-149zM254 498q0 -209 76 -300.5t248 -91.5q170 0 245.5 91.5t75.5 300.5 t-75.5 300t-245.5 91q-172 0 -248 -91t-76 -300z" />
<glyph unicode="&#xf5;" horiz-adv-x="1153" d="M86 498q0 274 116.5 398t375.5 124q258 0 373.5 -124t115.5 -398q0 -276 -115.5 -399.5t-373.5 -123.5t-375 123.5t-117 399.5zM254 498q0 -209 76 -300.5t248 -91.5q170 0 245.5 91.5t75.5 300.5t-75.5 300t-245.5 91q-172 0 -248 -91t-76 -300zM260 1178v20 q0 111 43 160t138 49q43 0 77.5 -16.5t63.5 -36t55.5 -35.5t54.5 -16q47 0 65.5 23.5t18.5 80.5v14h119v-22q0 -111 -43 -160t-137 -49q-43 0 -78 16.5t-63.5 36t-56 35.5t-54.5 16q-47 0 -65.5 -23.5t-18.5 -80.5v-12h-119z" />
<glyph unicode="&#xf6;" horiz-adv-x="1153" d="M86 498q0 274 116.5 398t375.5 124q258 0 373.5 -124t115.5 -398q0 -276 -115.5 -399.5t-373.5 -123.5t-375 123.5t-117 399.5zM254 498q0 -209 76 -300.5t248 -91.5q170 0 245.5 91.5t75.5 300.5t-75.5 300t-245.5 91q-172 0 -248 -91t-76 -300zM271 1298q0 100 102 101 q55 0 79.5 -23.5t24.5 -77.5q0 -53 -24.5 -76.5t-79.5 -23.5q-102 0 -102 100zM678 1298q0 53 24.5 77t80.5 24q102 0 102 -101q0 -100 -102 -100q-55 0 -80 23.5t-25 76.5z" />
<glyph unicode="&#xf7;" d="M152 526v127h876v-127h-876zM492 229q0 51 22.5 73t75.5 22t75.5 -21.5t22.5 -73.5q0 -51 -22.5 -72.5t-75.5 -21.5t-75.5 21.5t-22.5 72.5zM492 950q0 51 22.5 72.5t75.5 21.5t75.5 -21.5t22.5 -72.5t-22.5 -72.5t-75.5 -21.5t-75.5 21.5t-22.5 72.5z" />
<glyph unicode="&#xf8;" horiz-adv-x="1153" d="M86 498q0 274 116.5 398t375.5 124q182 0 288 -59l76 100h115l-117 -156q127 -125 127 -407q0 -276 -115.5 -399.5t-373.5 -123.5q-182 0 -291 58l-74 -99h-117l115 154q-125 123 -125 410zM236 498q0 -195 65 -291l483 645q-78 49 -206 49q-182 0 -262 -94t-80 -309z M369 141q74 -47 209 -47q180 0 260 94.5t80 309.5q0 195 -66 290z" />
<glyph unicode="&#xf9;" horiz-adv-x="1150" d="M70 909l14 86h209q18 0 18 -20v-584q0 -154 62.5 -219.5t210.5 -65.5q145 0 208.5 66t63.5 219v604h164v-616q0 -213 -103.5 -308.5t-332.5 -95.5q-231 0 -334 95.5t-103 308.5v481q0 10 -14 19zM266 1442h178l248 -287h-151z" />
<glyph unicode="&#xfa;" horiz-adv-x="1150" d="M70 909l14 86h209q18 0 18 -20v-584q0 -154 62.5 -219.5t210.5 -65.5q145 0 208.5 66t63.5 219v604h164v-616q0 -213 -103.5 -308.5t-332.5 -95.5q-231 0 -334 95.5t-103 308.5v481q0 10 -14 19zM475 1155l248 287h178l-274 -287h-152z" />
<glyph unicode="&#xfb;" horiz-adv-x="1150" d="M70 909l14 86h209q18 0 18 -20v-584q0 -154 62.5 -219.5t210.5 -65.5q145 0 208.5 66t63.5 219v604h164v-616q0 -213 -103.5 -308.5t-332.5 -95.5q-231 0 -334 95.5t-103 308.5v481q0 10 -14 19zM250 1155l252 287h164l252 -287h-150l-184 195l-185 -195h-149z" />
<glyph unicode="&#xfc;" horiz-adv-x="1150" d="M70 909l14 86h209q18 0 18 -20v-584q0 -154 62.5 -219.5t210.5 -65.5q145 0 208.5 66t63.5 219v604h164v-616q0 -213 -103.5 -308.5t-332.5 -95.5q-231 0 -334 95.5t-103 308.5v481q0 10 -14 19zM277 1298q0 100 102 101q55 0 79.5 -23.5t24.5 -77.5q0 -53 -24.5 -76.5 t-79.5 -23.5q-102 0 -102 100zM684 1298q0 53 24.5 77t80.5 24q102 0 102 -101q0 -100 -102 -100q-55 0 -80 23.5t-25 76.5z" />
<glyph unicode="&#xfd;" horiz-adv-x="1024" d="M20 995h179l329 -796l285 796h174l-426 -1134q-33 -88 -67.5 -147.5t-79.5 -96.5t-101.5 -52.5t-132.5 -15.5h-33.5t-33.5 5v127q14 -2 29.5 -2.5t25.5 -0.5q47 0 83 10.5t64.5 34t51 63.5t45.5 99l39 109zM391 1155l248 287h178l-274 -287h-152z" />
<glyph unicode="&#xfe;" horiz-adv-x="1159" d="M70 1358l16 84h207q18 0 18 -21v-528q49 66 128 96.5t202 30.5q227 0 329.5 -123t102.5 -399t-102.5 -399.5t-329.5 -123.5q-123 0 -199.5 31t-130.5 78v-510h-164v1729q0 12 -3 18t-13 10zM311 201q49 -39 120 -67t171 -28q162 0 232.5 91.5t70.5 300.5t-70.5 300 t-232.5 91q-156 0 -223.5 -65.5t-67.5 -219.5v-403z" />
<glyph unicode="&#xff;" horiz-adv-x="1024" d="M20 995h179l329 -796l285 796h174l-426 -1134q-33 -88 -67.5 -147.5t-79.5 -96.5t-101.5 -52.5t-132.5 -15.5h-33.5t-33.5 5v127q14 -2 29.5 -2.5t25.5 -0.5q47 0 83 10.5t64.5 34t51 63.5t45.5 99l39 109zM193 1298q0 100 102 101q55 0 79.5 -23.5t24.5 -77.5 q0 -53 -24.5 -76.5t-79.5 -23.5q-102 0 -102 100zM600 1298q0 53 24.5 77t80.5 24q102 0 102 -101q0 -100 -102 -100q-55 0 -80 23.5t-25 76.5z" />
<glyph unicode="&#x100;" horiz-adv-x="1327" d="M41 0q43 164 105.5 356.5t134 381t146.5 356.5t140 282h193q66 -115 140.5 -282.5t146 -356t134 -381t105.5 -356.5h-172q-23 82 -50.5 175t-59.5 192h-680q-33 -98 -60.5 -191.5t-50.5 -175.5h-172zM355 1601v117h618v-117h-618zM367 494h594q-35 102 -73 204.5 t-77 196.5t-75.5 178t-71.5 152q-35 -68 -73 -152t-76 -178t-76 -196.5t-72 -204.5z" />
<glyph unicode="&#x101;" horiz-adv-x="1085" d="M90 268q0 152 95.5 221.5t306.5 69.5q164 0 290 -43v137q0 129 -68.5 183.5t-228.5 54.5q-154 0 -307 -49v131q78 23 158 35t168 12q231 0 333.5 -89t102.5 -290v-502q0 -12 3 -18t13 -10l62 -27l-17 -84h-170q-10 0 -13 2t-5 14l-8 86q-90 -127 -336 -127 q-197 0 -288 71t-91 222zM234 1241v117h618v-117h-618zM252 270q0 -92 59.5 -134t188.5 -42q147 0 214.5 52.5t67.5 164.5v90q-115 45 -266 45q-141 0 -202.5 -39.5t-61.5 -136.5z" />
<glyph unicode="&#x102;" horiz-adv-x="1327" d="M41 0q43 164 105.5 356.5t134 381t146.5 356.5t140 282h193q66 -115 140.5 -282.5t146 -356t134 -381t105.5 -356.5h-172q-23 82 -50.5 175t-59.5 192h-680q-33 -98 -60.5 -191.5t-50.5 -175.5h-172zM352 1802h119q0 -104 44 -148.5t149 -44.5q104 0 148 44t44 149h119 q0 -162 -73.5 -233.5t-237.5 -71.5t-238 71.5t-74 233.5zM367 494h594q-35 102 -73 204.5t-77 196.5t-75.5 178t-71.5 152q-35 -68 -73 -152t-76 -178t-76 -196.5t-72 -204.5z" />
<glyph unicode="&#x103;" horiz-adv-x="1085" d="M90 268q0 152 95.5 221.5t306.5 69.5q164 0 290 -43v137q0 129 -68.5 183.5t-228.5 54.5q-154 0 -307 -49v131q78 23 158 35t168 12q231 0 333.5 -89t102.5 -290v-502q0 -12 3 -18t13 -10l62 -27l-17 -84h-170q-10 0 -13 2t-5 14l-8 86q-90 -127 -336 -127 q-197 0 -288 71t-91 222zM231 1442h119q0 -104 44 -148.5t149 -44.5q104 0 148 44t44 149h119q0 -162 -73.5 -233.5t-237.5 -71.5t-238 71.5t-74 233.5zM252 270q0 -92 59.5 -134t188.5 -42q147 0 214.5 52.5t67.5 164.5v90q-115 45 -266 45q-141 0 -202.5 -39.5 t-61.5 -136.5z" />
<glyph unicode="&#x104;" horiz-adv-x="1327" d="M41 0q43 164 105.5 356.5t134 381t146.5 356.5t140 282h193q66 -115 140.5 -282.5t146 -356t134 -381t105.5 -356.5q-55 -51 -94 -91t-63.5 -72t-35 -59.5t-10.5 -51.5q0 -51 30 -74t97 -23q23 0 42.5 2t33.5 7v-101q-23 -6 -50.5 -8t-61.5 -2q-117 0 -169.5 41 t-52.5 133q0 70 46 140.5t145 158.5h-29q-23 82 -50.5 175t-59.5 192h-680q-33 -98 -60.5 -191.5t-50.5 -175.5h-172zM367 494h594q-35 102 -73 204.5t-77 196.5t-75.5 178t-71.5 152q-35 -68 -73 -152t-76 -178t-76 -196.5t-72 -204.5z" />
<glyph unicode="&#x105;" horiz-adv-x="1085" d="M90 268q0 152 95.5 221.5t306.5 69.5q164 0 290 -43v137q0 129 -68.5 183.5t-228.5 54.5q-154 0 -307 -49v131q78 23 158 35t168 12q231 0 333.5 -89t102.5 -290v-512q0 -12 16 -18l62 -27l-17 -84h-61q-55 -51 -94 -91t-63.5 -72t-35 -59.5t-10.5 -51.5q0 -51 30 -74 t97 -23q23 0 42.5 2t33.5 7v-101q-23 -6 -50.5 -8t-62.5 -2q-117 0 -169 41t-52 133q0 72 50.5 144.5t158.5 166.5l-10 90q-90 -127 -336 -127q-197 0 -288 70.5t-91 222.5zM252 270q0 -92 59.5 -134t188.5 -42q147 0 214.5 52.5t67.5 164.5v90q-115 45 -266 45 q-141 0 -202.5 -40t-61.5 -136z" />
<glyph unicode="&#x106;" horiz-adv-x="1236" d="M100 688q0 188 38 323.5t118 221.5t204 127t296 41q133 0 241.5 -18.5t157.5 -34.5l-25 -134q-78 23 -167 36.5t-185 13.5q-133 0 -228 -33t-156.5 -101.5t-90.5 -178t-29 -263.5t29 -263.5t90.5 -178t156.5 -101t228 -32.5q96 0 186.5 13t180.5 40v-139 q-178 -51 -389 -52q-172 0 -296 41t-204 127t-118 221.5t-38 323.5zM624 1515l248 287h178l-274 -287h-152z" />
<glyph unicode="&#x107;" horiz-adv-x="948" d="M86 498q0 274 116.5 398t375.5 124q111 0 185.5 -13.5t115.5 -29.5l-27 -127q-43 16 -104.5 27.5t-147.5 11.5q-184 0 -265 -91t-81 -300t81 -300.5t265 -91.5q139 0 268 41v-133q-125 -39 -290 -39q-258 0 -375 123.5t-117 399.5zM440 1155l248 287h178l-274 -287h-152z " />
<glyph unicode="&#x108;" horiz-adv-x="1236" d="M100 688q0 188 38 323.5t118 221.5t204 127t296 41q133 0 241.5 -18.5t157.5 -34.5l-25 -134q-78 23 -167 36.5t-185 13.5q-133 0 -228 -33t-156.5 -101.5t-90.5 -178t-29 -263.5t29 -263.5t90.5 -178t156.5 -101t228 -32.5q96 0 186.5 13t180.5 40v-139 q-178 -51 -389 -52q-172 0 -296 41t-204 127t-118 221.5t-38 323.5zM399 1515l252 287h164l252 -287h-150l-184 195l-185 -195h-149z" />
<glyph unicode="&#x109;" horiz-adv-x="948" d="M86 498q0 274 116.5 398t375.5 124q111 0 185.5 -13.5t115.5 -29.5l-27 -127q-43 16 -104.5 27.5t-147.5 11.5q-184 0 -265 -91t-81 -300t81 -300.5t265 -91.5q139 0 268 41v-133q-125 -39 -290 -39q-258 0 -375 123.5t-117 399.5zM215 1155l252 287h164l252 -287h-150 l-184 195l-185 -195h-149z" />
<glyph unicode="&#x10a;" horiz-adv-x="1236" d="M100 688q0 188 38 323.5t118 221.5t204 127t296 41q133 0 241.5 -18.5t157.5 -34.5l-25 -134q-78 23 -167 36.5t-185 13.5q-133 0 -228 -33t-156.5 -101.5t-90.5 -178t-29 -263.5t29 -263.5t90.5 -178t156.5 -101t228 -32.5q96 0 186.5 13t180.5 40v-139 q-178 -51 -389 -52q-172 0 -296 41t-204 127t-118 221.5t-38 323.5zM628 1658q0 53 24.5 77t80.5 24q55 0 79.5 -23.5t24.5 -77.5q0 -53 -24.5 -76.5t-79.5 -23.5t-80 23.5t-25 76.5z" />
<glyph unicode="&#x10b;" horiz-adv-x="948" d="M86 498q0 274 116.5 398t375.5 124q111 0 185.5 -13.5t115.5 -29.5l-27 -127q-43 16 -104.5 27.5t-147.5 11.5q-184 0 -265 -91t-81 -300t81 -300.5t265 -91.5q139 0 268 41v-133q-125 -39 -290 -39q-258 0 -375 123.5t-117 399.5zM444 1298q0 53 24.5 77t80.5 24 q55 0 79.5 -23.5t24.5 -77.5q0 -53 -24.5 -76.5t-79.5 -23.5t-80 23.5t-25 76.5z" />
<glyph unicode="&#x10c;" horiz-adv-x="1236" d="M100 688q0 188 38 323.5t118 221.5t204 127t296 41q133 0 241.5 -18.5t157.5 -34.5l-25 -134q-78 23 -167 36.5t-185 13.5q-133 0 -228 -33t-156.5 -101.5t-90.5 -178t-29 -263.5t29 -263.5t90.5 -178t156.5 -101t228 -32.5q96 0 186.5 13t180.5 40v-139 q-178 -51 -389 -52q-172 0 -296 41t-204 127t-118 221.5t-38 323.5zM399 1802h149l185 -195l184 195h150l-252 -287h-164z" />
<glyph unicode="&#x10d;" horiz-adv-x="948" d="M86 498q0 274 116.5 398t375.5 124q111 0 185.5 -13.5t115.5 -29.5l-27 -127q-43 16 -104.5 27.5t-147.5 11.5q-184 0 -265 -91t-81 -300t81 -300.5t265 -91.5q139 0 268 41v-133q-125 -39 -290 -39q-258 0 -375 123.5t-117 399.5zM215 1442h149l185 -195l184 195h150 l-252 -287h-164z" />
<glyph unicode="&#x10e;" horiz-adv-x="1447" d="M94 1300l15 76h522q190 0 325.5 -39t222.5 -123t128 -214t41 -312t-41 -312t-128 -214t-222.5 -123t-325.5 -39h-455v1247q0 18 -20 27zM346 135h272q147 0 253 31t173.5 98.5t99.5 172t32 251.5t-32 251.5t-99.5 172.5t-173 98.5t-253.5 30.5h-272v-1106zM361 1802h149 l185 -195l184 195h150l-252 -287h-164z" />
<glyph unicode="&#x10f;" horiz-adv-x="1388" d="M86 498q0 276 102.5 399t331.5 123q121 0 200 -31t130 -96v549h164v-1303q0 -12 3 -18t13 -10l62 -27l-17 -84h-174q-10 0 -13 2t-5 14l-11 99q-51 -66 -137 -103t-215 -37q-229 0 -331.5 123t-102.5 400zM254 498q0 -209 70.5 -300.5t234.5 -91.5q100 0 171 28t120 67 v403q0 154 -67.5 219.5t-223.5 65.5q-164 0 -234.5 -91t-70.5 -300zM1141 1135l102 385h145l-133 -385h-114z" />
<glyph unicode="&#x110;" horiz-adv-x="1497" d="M63 639v123h162v485q0 18 -20 27l-62 26l15 76h522q190 0 325.5 -39t222.5 -123t128 -214t41 -312t-41 -312t-128 -213t-222.5 -123t-325.5 -40h-455v639h-162zM395 135h273q147 0 252.5 31t173 98.5t99.5 172t32 251.5t-32 251.5t-99.5 172.5t-173 98.5t-252.5 30.5 h-273v-479h371v-123h-371v-504z" />
<glyph unicode="&#x111;" horiz-adv-x="1187" d="M86 498q0 276 101.5 399t326.5 123q248 0 336 -168v313h-365v115h365v162h164v-162h133v-115h-133v-1026q0 -12 3 -18t13 -10l62 -27l-17 -84h-174q-10 0 -13 2t-5 14l-11 99q-51 -66 -140 -103t-218 -37q-225 0 -326.5 123t-101.5 400zM254 498q0 -209 69.5 -300.5 t229.5 -91.5q100 0 174 28t123 67v350q0 180 -68.5 259t-228.5 79t-229.5 -91t-69.5 -300z" />
<glyph unicode="&#x112;" horiz-adv-x="1208" d="M94 1300l15 76h991v-135h-754v-477h606v-127h-606v-502h770v-135h-940v1247q0 18 -20 27zM324 1601v117h618v-117h-618z" />
<glyph unicode="&#x113;" horiz-adv-x="1071" d="M86 498q0 137 27.5 236.5t85 163t146.5 93t214 29.5q227 0 328.5 -120t101.5 -386v-32.5t-2 -30.5h-739q6 -186 95 -266.5t290 -80.5q158 0 317 50v-131q-76 -25 -156.5 -36.5t-172.5 -11.5q-281 0 -408 123.5t-127 399.5zM246 1241v117h618v-117h-618zM248 563h583 q-4 180 -66.5 259t-205.5 79q-160 0 -233.5 -79t-77.5 -259z" />
<glyph unicode="&#x114;" horiz-adv-x="1208" d="M94 1300l15 76h991v-135h-754v-477h606v-127h-606v-502h770v-135h-940v1247q0 18 -20 27zM321 1802h119q0 -104 44 -148.5t149 -44.5q104 0 148 44t44 149h119q0 -162 -73.5 -233.5t-237.5 -71.5t-238 71.5t-74 233.5z" />
<glyph unicode="&#x115;" horiz-adv-x="1071" d="M86 498q0 137 27.5 236.5t85 163t146.5 93t214 29.5q227 0 328.5 -120t101.5 -386v-32.5t-2 -30.5h-739q6 -186 95 -266.5t290 -80.5q158 0 317 50v-131q-76 -25 -156.5 -36.5t-172.5 -11.5q-281 0 -408 123.5t-127 399.5zM243 1442h119q0 -104 44 -148.5t149 -44.5 q104 0 148 44t44 149h119q0 -162 -73.5 -233.5t-237.5 -71.5t-238 71.5t-74 233.5zM248 563h583q-4 180 -66.5 259t-205.5 79q-160 0 -233.5 -79t-77.5 -259z" />
<glyph unicode="&#x116;" horiz-adv-x="1208" d="M94 1300l15 76h991v-135h-754v-477h606v-127h-606v-502h770v-135h-940v1247q0 18 -20 27zM528 1658q0 53 24.5 77t80.5 24q55 0 79.5 -23.5t24.5 -77.5q0 -53 -24.5 -76.5t-79.5 -23.5t-80 23.5t-25 76.5z" />
<glyph unicode="&#x117;" horiz-adv-x="1071" d="M86 498q0 137 27.5 236.5t85 163t146.5 93t214 29.5q227 0 328.5 -120t101.5 -386v-32.5t-2 -30.5h-739q6 -186 95 -266.5t290 -80.5q158 0 317 50v-131q-76 -25 -156.5 -36.5t-172.5 -11.5q-281 0 -408 123.5t-127 399.5zM248 563h583q-4 180 -66.5 259t-205.5 79 q-160 0 -233.5 -79t-77.5 -259zM450 1298q0 53 24.5 77t80.5 24q55 0 79.5 -23.5t24.5 -77.5q0 -53 -24.5 -76.5t-79.5 -23.5t-80 23.5t-25 76.5z" />
<glyph unicode="&#x118;" horiz-adv-x="1208" d="M94 1300l15 76h991v-131h-754v-481h606v-127h-606v-506h770v-131q-55 -51 -94 -91t-63.5 -72t-35 -59.5t-10.5 -51.5q0 -51 30 -74t97 -23q23 0 42.5 2t33.5 7v-101q-23 -6 -50.5 -8t-61.5 -2q-117 0 -169.5 41t-52.5 133q0 70 46 139.5t147 159.5h-799v1247q0 18 -20 27 z" />
<glyph unicode="&#x119;" horiz-adv-x="1071" d="M86 498q0 137 27.5 236.5t85 163t146.5 93t214 29.5q227 0 328.5 -120t101.5 -386v-32.5t-2 -30.5h-739q6 -186 95 -266.5t290 -80.5q158 0 317 50v-131q-113 -106 -157.5 -174t-44.5 -121q0 -51 29.5 -75t96.5 -24q23 0 42.5 2t33.5 7v-101q-23 -6 -50.5 -8t-59.5 -2 q-117 0 -170.5 42t-53.5 132q0 123 162 285q-39 -4 -77.5 -7.5t-79.5 -3.5q-281 0 -408 123.5t-127 399.5zM248 563h583q-4 180 -66.5 259t-205.5 79q-160 0 -233.5 -79t-77.5 -259z" />
<glyph unicode="&#x11a;" horiz-adv-x="1208" d="M94 1300l15 76h991v-135h-754v-477h606v-127h-606v-502h770v-135h-940v1247q0 18 -20 27zM299 1802h149l185 -195l184 195h150l-252 -287h-164z" />
<glyph unicode="&#x11b;" horiz-adv-x="1071" d="M86 498q0 137 27.5 236.5t85 163t146.5 93t214 29.5q227 0 328.5 -120t101.5 -386v-32.5t-2 -30.5h-739q6 -186 95 -266.5t290 -80.5q158 0 317 50v-131q-76 -25 -156.5 -36.5t-172.5 -11.5q-281 0 -408 123.5t-127 399.5zM221 1442h149l185 -195l184 195h150l-252 -287 h-164zM248 563h583q-4 180 -66.5 259t-205.5 79q-160 0 -233.5 -79t-77.5 -259z" />
<glyph unicode="&#x11c;" horiz-adv-x="1378" d="M100 688q0 197 42 332t128 220t218.5 123t310.5 38q68 0 132 -5t119.5 -13.5t99.5 -17.5t69 -17l-25 -134q-78 23 -177 36.5t-196 13.5q-143 0 -247.5 -30t-172 -98.5t-100.5 -178t-33 -269.5q0 -154 30 -263.5t92.5 -179t160.5 -102t237 -32.5q162 0 306 32v455h-353 v121h510v-688q-227 -55 -479 -56q-176 0 -303 41t-209 127t-121 221.5t-39 323.5zM438 1515l252 287h164l252 -287h-150l-184 195l-185 -195h-149z" />
<glyph unicode="&#x11d;" horiz-adv-x="1153" d="M86 498q0 276 102.5 399t331.5 123q104 0 195.5 -27.5t161.5 -81.5l8 84h129v-1038q0 -123 -35 -202t-94.5 -125t-138 -63.5t-166.5 -17.5q-66 0 -125.5 5.5t-92.5 11.5v131q53 -8 108.5 -12t100.5 -4q279 0 279 247v174q-49 -66 -129 -96.5t-201 -30.5 q-229 0 -331.5 123t-102.5 400zM244 1155l252 287h164l252 -287h-150l-184 195l-185 -195h-149zM254 498q0 -209 70.5 -300.5t234.5 -91.5q156 0 223.5 66t67.5 219v424q-49 29 -129 51.5t-162 22.5q-164 0 -234.5 -91t-70.5 -300z" />
<glyph unicode="&#x11e;" horiz-adv-x="1378" d="M100 688q0 197 42 332t128 220t218.5 123t310.5 38q68 0 132 -5t119.5 -13.5t99.5 -17.5t69 -17l-25 -134q-78 23 -177 36.5t-196 13.5q-143 0 -247.5 -30t-172 -98.5t-100.5 -178t-33 -269.5q0 -154 30 -263.5t92.5 -179t160.5 -102t237 -32.5q162 0 306 32v455h-353 v121h510v-688q-227 -55 -479 -56q-176 0 -303 41t-209 127t-121 221.5t-39 323.5zM460 1802h119q0 -104 44 -148.5t149 -44.5q104 0 148 44t44 149h119q0 -162 -73.5 -233.5t-237.5 -71.5t-238 71.5t-74 233.5z" />
<glyph unicode="&#x11f;" horiz-adv-x="1153" d="M86 498q0 276 102.5 399t331.5 123q104 0 195.5 -27.5t161.5 -81.5l8 84h129v-1038q0 -123 -35 -202t-94.5 -125t-138 -63.5t-166.5 -17.5q-66 0 -125.5 5.5t-92.5 11.5v131q53 -8 108.5 -12t100.5 -4q279 0 279 247v174q-49 -66 -129 -96.5t-201 -30.5 q-229 0 -331.5 123t-102.5 400zM254 498q0 -209 70.5 -300.5t234.5 -91.5q156 0 223.5 66t67.5 219v424q-49 29 -129 51.5t-162 22.5q-164 0 -234.5 -91t-70.5 -300zM266 1442h119q0 -104 44 -148.5t149 -44.5q104 0 148 44t44 149h119q0 -162 -73.5 -233.5t-237.5 -71.5 t-238 71.5t-74 233.5z" />
<glyph unicode="&#x120;" horiz-adv-x="1378" d="M100 688q0 197 42 332t128 220t218.5 123t310.5 38q68 0 132 -5t119.5 -13.5t99.5 -17.5t69 -17l-25 -134q-78 23 -177 36.5t-196 13.5q-143 0 -247.5 -30t-172 -98.5t-100.5 -178t-33 -269.5q0 -154 30 -263.5t92.5 -179t160.5 -102t237 -32.5q162 0 306 32v455h-353 v121h510v-688q-227 -55 -479 -56q-176 0 -303 41t-209 127t-121 221.5t-39 323.5zM667 1658q0 53 24.5 77t80.5 24q55 0 79.5 -23.5t24.5 -77.5q0 -53 -24.5 -76.5t-79.5 -23.5t-80 23.5t-25 76.5z" />
<glyph unicode="&#x121;" horiz-adv-x="1153" d="M86 498q0 276 102.5 399t331.5 123q104 0 195.5 -27.5t161.5 -81.5l8 84h129v-1038q0 -123 -35 -202t-94.5 -125t-138 -63.5t-166.5 -17.5q-66 0 -125.5 5.5t-92.5 11.5v131q53 -8 108.5 -12t100.5 -4q279 0 279 247v174q-49 -66 -129 -96.5t-201 -30.5 q-229 0 -331.5 123t-102.5 400zM254 498q0 -209 70.5 -300.5t234.5 -91.5q156 0 223.5 66t67.5 219v424q-49 29 -129 51.5t-162 22.5q-164 0 -234.5 -91t-70.5 -300zM473 1298q0 53 24.5 77t80.5 24q55 0 79.5 -23.5t24.5 -77.5q0 -53 -24.5 -76.5t-79.5 -23.5t-80 23.5 t-25 76.5z" />
<glyph unicode="&#x122;" horiz-adv-x="1378" d="M100 688q0 197 42 332t128 220t218.5 123t310.5 38q68 0 132 -5t119.5 -13.5t99.5 -17.5t69 -17l-25 -134q-78 23 -177 36.5t-196 13.5q-143 0 -247.5 -30t-172 -98.5t-100.5 -178t-33 -269.5q0 -154 30 -263.5t92.5 -179t160.5 -102t237 -32.5q162 0 306 32v455h-353 v121h510v-688q-227 -55 -479 -56q-176 0 -303 41t-209 127t-121 221.5t-39 323.5zM632 -524l103 385h145l-133 -385h-115z" />
<glyph unicode="&#x123;" horiz-adv-x="1153" d="M86 498q0 276 102.5 399t331.5 123q104 0 195.5 -27.5t161.5 -81.5l8 84h129v-1038q0 -123 -35 -202t-94.5 -125t-138 -63.5t-166.5 -17.5q-66 0 -125.5 5.5t-92.5 11.5v131q53 -8 108.5 -12t100.5 -4q279 0 279 247v174q-49 -66 -129 -96.5t-201 -30.5 q-229 0 -331.5 123t-102.5 400zM254 498q0 -209 70.5 -300.5t234.5 -91.5q156 0 223.5 66t67.5 219v424q-49 29 -129 51.5t-162 22.5q-164 0 -234.5 -91t-70.5 -300zM469 1135l133 385h115l-102 -385h-146z" />
<glyph unicode="&#x124;" horiz-adv-x="1513" d="M94 1300l15 76h219q18 0 18 -20v-588h828v608h169v-1376h-169v633h-828v-633h-170v1247q0 18 -20 27zM426 1515l252 287h164l252 -287h-150l-184 195l-185 -195h-149z" />
<glyph unicode="&#x125;" horiz-adv-x="1155" d="M-113 1528l252 274h162l252 -274h-145l-187 188l-188 -188h-146zM61 1358l17 84h207q18 0 18 -21v-516q53 49 133 82t191 33q207 0 296 -92t89 -303v-486q0 -12 3 -18t13 -10l62 -27l-17 -84h-207q-18 0 -18 20v601q0 145 -57.5 204.5t-192.5 59.5q-49 0 -95 -7.5 t-85 -18.5t-69 -23.5t-46 -24.5v-811h-164v1303q0 12 -3 18t-13 10z" />
<glyph unicode="&#x126;" horiz-adv-x="1509" d="M27 1067v115h145v194h170v-194h827v194h170v-194h144v-115h-144v-1067h-170v627h-827v-627h-170v1067h-145zM342 762h827v305h-827v-305z" />
<glyph unicode="&#x127;" horiz-adv-x="1163" d="M12 1165v115h135v162h164v-162h363v-115h-363v-260q53 49 133 82t191 33q207 0 296 -92t89 -303v-486q0 -12 3 -18t13 -10l62 -27l-17 -84h-207q-18 0 -18 20v601q0 145 -57.5 204.5t-192.5 59.5q-49 0 -95 -7.5t-85 -18.5t-68.5 -23.5t-46.5 -24.5v-811h-164v1165h-135z " />
<glyph unicode="&#x128;" horiz-adv-x="520" d="M-56 1538v20q0 111 43 160t138 49q43 0 77.5 -16.5t63.5 -36t55.5 -35.5t54.5 -16q47 0 65.5 23.5t18.5 80.5v14h119v-22q0 -111 -43 -160t-137 -49q-43 0 -78 16.5t-63.5 36t-56 35.5t-54.5 16q-47 0 -65.5 -23.5t-18.5 -80.5v-12h-119zM96 1300l15 76h219q18 0 18 -20 v-1356h-170v1247q0 18 -20 27z" />
<glyph unicode="&#x129;" horiz-adv-x="471" d="M-74 1178v20q0 111 43 160t138 49q43 0 77.5 -16.5t63.5 -36t55.5 -35.5t54.5 -16q47 0 65.5 23.5t18.5 80.5v14h119v-22q0 -111 -43 -160t-137 -49q-43 0 -78 16.5t-63.5 36t-56 35.5t-54.5 16q-47 0 -65.5 -23.5t-18.5 -80.5v-12h-119zM84 911l16 84h207q18 0 19 -20 v-975h-164v856q0 12 -3 18.5t-14 10.5z" />
<glyph unicode="&#x12a;" horiz-adv-x="520" d="M-47 1601v117h618v-117h-618zM96 1300l15 76h219q18 0 18 -20v-1356h-170v1247q0 18 -20 27z" />
<glyph unicode="&#x12b;" horiz-adv-x="471" d="M-65 1241v117h618v-117h-618zM84 911l16 84h207q18 0 19 -20v-975h-164v856q0 12 -3 18.5t-14 10.5z" />
<glyph unicode="&#x12c;" horiz-adv-x="520" d="M-50 1802h119q0 -104 44 -148.5t149 -44.5q104 0 148 44t44 149h119q0 -162 -73.5 -233.5t-237.5 -71.5t-238 71.5t-74 233.5zM96 1300l15 76h219q18 0 18 -20v-1356h-170v1247q0 18 -20 27z" />
<glyph unicode="&#x12d;" horiz-adv-x="471" d="M-68 1442h119q0 -104 44 -148.5t149 -44.5q104 0 148 44t44 149h119q0 -162 -73.5 -233.5t-237.5 -71.5t-238 71.5t-74 233.5zM84 911l16 84h207q18 0 19 -20v-975h-164v856q0 12 -3 18.5t-14 10.5z" />
<glyph unicode="&#x12e;" horiz-adv-x="520" d="M14 -299q0 70 46 139.5t147 159.5h-29v1247q0 18 -20 27l-62 26l15 76h219q18 0 18 -20v-1356q-55 -51 -94 -91t-63.5 -72t-35 -59.5t-10.5 -51.5q0 -51 30 -74t97 -23q23 0 42.5 2t33.5 7v-101q-23 -6 -50.5 -8t-61.5 -2q-117 0 -169.5 41t-52.5 133z" />
<glyph unicode="&#x12f;" horiz-adv-x="471" d="M-8 -299q0 70 46 139.5t146 159.5h-22v856q0 12 -3 18.5t-14 10.5l-61 26l16 84h207q18 0 19 -20v-975q-55 -51 -94 -91t-64 -72t-35 -59.5t-10 -51.5q0 -51 29.5 -74t97.5 -23q23 0 42 2t34 7v-101q-23 -6 -50.5 -8t-62.5 -2q-117 0 -169 41t-52 133zM137 1298 q0 55 24.5 80t82.5 25q55 0 80.5 -24.5t25.5 -80.5q0 -102 -106 -102q-57 0 -82 24.5t-25 77.5z" />
<glyph unicode="&#x130;" horiz-adv-x="520" d="M96 1300l15 76h219q18 0 18 -20v-1356h-170v1247q0 18 -20 27zM157 1658q0 53 24.5 77t80.5 24q55 0 79.5 -23.5t24.5 -77.5q0 -53 -24.5 -76.5t-79.5 -23.5t-80 23.5t-25 76.5z" />
<glyph unicode="&#x131;" horiz-adv-x="471" d="M84 911l16 84h207q18 0 19 -20v-975h-164v856q0 12 -3 18.5t-14 10.5z" />
<glyph unicode="&#x132;" horiz-adv-x="1417" d="M96 1300l15 76h219q18 0 18 -20v-1356h-170v1247q0 18 -20 27zM577 2v137q55 -12 108.5 -19t104.5 -7q154 0 220.5 67.5t66.5 222.5v973h170v-979q0 -221 -102.5 -321.5t-329.5 -100.5q-131 0 -238 27z" />
<glyph unicode="&#x133;" horiz-adv-x="942" d="M84 911l16 84h207q18 0 19 -20v-975h-164v856q0 12 -3 18.5t-14 10.5zM133 1298q0 55 24.5 80t82.5 25q55 0 80.5 -24.5t25.5 -80.5q0 -102 -106 -102q-57 0 -82 24.5t-25 77.5zM393 -313q18 -2 34.5 -2h27.5q106 0 142 51t36 153v967q0 12 -3 18.5t-14 10.5l-61 26 l16 84h207q18 0 19 -20v-1086q0 -154 -72 -243.5t-240 -89.5h-44.5t-47.5 4v127zM604 1298q0 55 24.5 80t82.5 25q55 0 80.5 -24.5t25.5 -80.5q0 -102 -106 -102q-57 0 -82 24.5t-25 77.5z" />
<glyph unicode="&#x134;" horiz-adv-x="899" d="M59 2v137q55 -12 108.5 -19t104.5 -7q154 0 220.5 67.5t66.5 222.5v973h170v-979q0 -221 -102.5 -321.5t-329.5 -100.5q-131 0 -238 27zM309 1515l252 287h164l252 -287h-150l-184 195l-185 -195h-149z" />
<glyph unicode="&#x135;" horiz-adv-x="471" d="M-90 1155l252 287h164l252 -287h-150l-184 195l-185 -195h-149zM-78 -313q18 -2 34.5 -2h27.5q106 0 142 51t36 153v967q0 12 -3 18.5t-14 10.5l-61 26l16 84h207q18 0 19 -20v-1086q0 -154 -72 -243.5t-240 -89.5h-44.5t-47.5 4v127z" />
<glyph unicode="&#x136;" horiz-adv-x="1243" d="M94 1300l15 76h219q18 0 18 -20v-654l643 674h199l-602 -637l618 -739h-198l-525 633l-135 -139v-494h-170v1247q0 18 -20 27zM479 -524l103 385h145l-133 -385h-115z" />
<glyph unicode="&#x137;" horiz-adv-x="976" d="M61 1358l17 84h207q18 0 18 -21v-886l434 460h191l-414 -442l422 -553h-186l-338 451l-109 -109v-342h-164v1303q0 12 -3 18t-13 10zM344 -524l103 385h145l-133 -385h-115z" />
<glyph unicode="&#x138;" horiz-adv-x="989" d="M74 911l16 84h201q18 0 18 -20v-443l441 463h190l-432 -458l440 -537h-186l-356 432l-97 -96v-336h-157v856q0 12 -3.5 18.5t-13.5 10.5z" />
<glyph unicode="&#x139;" horiz-adv-x="1054" d="M94 1300l15 76h219q18 0 18 -20v-1221h666v-135h-836v1247q0 18 -20 27zM151 1515l248 287h178l-274 -287h-152z" />
<glyph unicode="&#x13a;" horiz-adv-x="473" d="M70 1358l16 84h207q18 0 18 -21v-1282q0 -12 3 -18t14 -10l61 -27l-16 -84h-207q-18 0 -19 20v1283q0 12 -3 18t-13 10zM123 1528l250 274h178l-279 -274h-149z" />
<glyph unicode="&#x13b;" horiz-adv-x="1054" d="M94 1300l15 76h219q18 0 18 -20v-1221h666v-135h-836v1247q0 18 -20 27zM460 -524l103 385h145l-133 -385h-115z" />
<glyph unicode="&#x13c;" horiz-adv-x="473" d="M70 1358l16 84h207q18 0 18 -21v-1282q0 -12 3 -18t14 -10l61 -27l-16 -84h-207q-18 0 -19 20v1283q0 12 -3 18t-13 10zM94 -524l103 385h145l-133 -385h-115z" />
<glyph unicode="&#x13d;" horiz-adv-x="1054" d="M94 1300l15 76h219q18 0 18 -20v-1221h666v-135h-836v1247q0 18 -20 27zM500 1069l102 385h145l-133 -385h-114z" />
<glyph unicode="&#x13e;" horiz-adv-x="690" d="M70 1358l16 84h207q18 0 18 -21v-1282q0 -12 3 -18t14 -10l61 -27l-16 -84h-207q-18 0 -19 20v1283q0 12 -3 18t-13 10zM443 1135l102 385h145l-133 -385h-114z" />
<glyph unicode="&#x13f;" horiz-adv-x="1054" d="M94 1300l15 76h219q18 0 18 -20v-1221h666v-135h-836v1247q0 18 -20 27zM673 727q0 53 24.5 77t80.5 24q55 0 79.5 -23.5t24.5 -77.5q0 -53 -24.5 -76.5t-79.5 -23.5t-80 23.5t-25 76.5z" />
<glyph unicode="&#x140;" horiz-adv-x="659" d="M70 1358l16 84h207q18 0 18 -21v-1282q0 -12 3 -18t14 -10l61 -27l-16 -84h-207q-18 0 -19 20v1283q0 12 -3 18t-13 10zM457 733q0 51 22.5 72.5t75.5 21.5q51 0 73.5 -21.5t22.5 -72.5t-22.5 -72.5t-73.5 -21.5q-53 0 -75.5 21.5t-22.5 72.5z" />
<glyph unicode="&#x141;" horiz-adv-x="1083" d="M43 498v131l162 80v538q0 18 -21 27l-61 26l14 76h219q18 0 19 -20v-561l338 170v-131l-338 -170v-529h665v-135h-835v580z" />
<glyph unicode="&#x142;" horiz-adv-x="624" d="M31 526v131l200 101v545q0 12 -3 18t-13 10l-61 27l16 84h207q18 0 18 -21v-581l199 100v-131l-199 -100v-570q0 -12 3 -18t14 -10l61 -27l-16 -84h-207q-18 0 -19 20v607z" />
<glyph unicode="&#x143;" horiz-adv-x="1513" d="M94 1300l15 76h192q29 0 40 -5t21 -21l824 -1114v1140h157v-1376h-165l-844 1141v-1141h-158v1247q0 18 -20 27zM651 1515l248 287h178l-274 -287h-152z" />
<glyph unicode="&#x144;" horiz-adv-x="1167" d="M74 911l16 84h207q18 0 18 -20v-70q53 49 133 82t191 33q207 0 296 -92t89 -303v-486q0 -12 3 -18t13 -10l62 -27l-17 -84h-206q-18 0 -19 20v601q0 145 -57.5 204.5t-192.5 59.5q-49 0 -95 -7.5t-85 -18.5t-68.5 -23.5t-46.5 -24.5v-811h-163v856q0 12 -3.5 18.5 t-13.5 10.5zM481 1155l248 287h178l-274 -287h-152z" />
<glyph unicode="&#x145;" horiz-adv-x="1513" d="M94 1300l15 76h192q29 0 40 -5t21 -21l824 -1114v1140h157v-1376h-165l-844 1141v-1141h-158v1247q0 18 -20 27zM620 -524l103 385h145l-133 -385h-115z" />
<glyph unicode="&#x146;" horiz-adv-x="1167" d="M74 911l16 84h207q18 0 18 -20v-70q53 49 133 82t191 33q207 0 296 -92t89 -303v-486q0 -12 3 -18t13 -10l62 -27l-17 -84h-206q-18 0 -19 20v601q0 145 -57.5 204.5t-192.5 59.5q-49 0 -95 -7.5t-85 -18.5t-68.5 -23.5t-46.5 -24.5v-811h-163v856q0 12 -3.5 18.5 t-13.5 10.5zM450 -524l103 385h145l-133 -385h-115z" />
<glyph unicode="&#x147;" horiz-adv-x="1513" d="M94 1300l15 76h192q29 0 40 -5t21 -21l824 -1114v1140h157v-1376h-165l-844 1141v-1141h-158v1247q0 18 -20 27zM426 1802h149l185 -195l184 195h150l-252 -287h-164z" />
<glyph unicode="&#x148;" horiz-adv-x="1167" d="M74 911l16 84h207q18 0 18 -20v-70q53 49 133 82t191 33q207 0 296 -92t89 -303v-486q0 -12 3 -18t13 -10l62 -27l-17 -84h-206q-18 0 -19 20v601q0 145 -57.5 204.5t-192.5 59.5q-49 0 -95 -7.5t-85 -18.5t-68.5 -23.5t-46.5 -24.5v-811h-163v856q0 12 -3.5 18.5 t-13.5 10.5zM256 1442h149l185 -195l184 195h150l-252 -287h-164z" />
<glyph unicode="&#x149;" horiz-adv-x="1400" d="M73 992l103 385h145l-133 -385h-115zM307 911l16 84h207q18 0 18 -20v-70q53 49 133 82t191 33q207 0 296 -92t89 -303v-486q0 -12 3 -18t13 -10l62 -27l-17 -84h-206q-18 0 -19 20v601q0 145 -57.5 204.5t-192.5 59.5q-49 0 -95 -7.5t-85 -18.5t-68.5 -23.5t-46.5 -24.5 v-811h-163v856q0 12 -3.5 18.5t-13.5 10.5z" />
<glyph unicode="&#x14a;" horiz-adv-x="1513" d="M94 1300l15 76h192q29 0 40 -5t21 -21l824 -1114v1140h157v-1405q0 -221 -102 -321.5t-330 -100.5q-61 0 -120.5 6.5t-116.5 20.5v137q55 -12 108.5 -19t104.5 -7q154 0 223.5 61.5t69.5 200.5v45l-846 1147v-1141h-158v1247q0 18 -20 27z" />
<glyph unicode="&#x14b;" horiz-adv-x="1169" d="M74 911l16 84h207q18 0 18 -20v-70q53 49 133 82t191 33q207 0 296 -92t89 -303v-752q0 -172 -79 -248t-255 -76q-92 0 -172 19v131q35 -8 72 -13t76 -5q104 0 149 46t45 152v742q0 145 -57.5 204.5t-192.5 59.5q-49 0 -95 -7.5t-85 -18.5t-68.5 -23.5t-46.5 -24.5v-811 h-163v856q0 12 -3.5 18.5t-13.5 10.5z" />
<glyph unicode="&#x14c;" horiz-adv-x="1509" d="M100 688q0 188 38 323.5t118 221.5t204 127t296 41t296 -41t203.5 -127t116.5 -221t37 -324q0 -188 -37 -323.5t-116.5 -221.5t-203.5 -127t-296 -41t-296 41t-204 127t-118 221.5t-38 323.5zM274 688q0 -154 27 -263.5t85 -178t149.5 -101t220.5 -32.5q127 0 218 32.5 t149.5 101t86 178.5t27.5 263q0 154 -27.5 263.5t-86 178t-149.5 101.5t-218 33q-129 0 -220.5 -33t-149.5 -101.5t-85 -178t-27 -263.5zM447 1601v117h618v-117h-618z" />
<glyph unicode="&#x14d;" horiz-adv-x="1153" d="M86 498q0 274 116.5 398t375.5 124q258 0 373.5 -124t115.5 -398q0 -276 -115.5 -399.5t-373.5 -123.5t-375 123.5t-117 399.5zM254 498q0 -209 76 -300.5t248 -91.5q170 0 245.5 91.5t75.5 300.5t-75.5 300t-245.5 91q-172 0 -248 -91t-76 -300zM269 1241v117h618v-117 h-618z" />
<glyph unicode="&#x14e;" horiz-adv-x="1509" d="M100 688q0 188 38 323.5t118 221.5t204 127t296 41t296 -41t203.5 -127t116.5 -221t37 -324q0 -188 -37 -323.5t-116.5 -221.5t-203.5 -127t-296 -41t-296 41t-204 127t-118 221.5t-38 323.5zM274 688q0 -154 27 -263.5t85 -178t149.5 -101t220.5 -32.5q127 0 218 32.5 t149.5 101t86 178.5t27.5 263q0 154 -27.5 263.5t-86 178t-149.5 101.5t-218 33q-129 0 -220.5 -33t-149.5 -101.5t-85 -178t-27 -263.5zM444 1802h119q0 -104 44 -148.5t149 -44.5q104 0 148 44t44 149h119q0 -162 -73.5 -233.5t-237.5 -71.5t-238 71.5t-74 233.5z" />
<glyph unicode="&#x14f;" horiz-adv-x="1153" d="M86 498q0 274 116.5 398t375.5 124q258 0 373.5 -124t115.5 -398q0 -276 -115.5 -399.5t-373.5 -123.5t-375 123.5t-117 399.5zM254 498q0 -209 76 -300.5t248 -91.5q170 0 245.5 91.5t75.5 300.5t-75.5 300t-245.5 91q-172 0 -248 -91t-76 -300zM266 1442h119 q0 -104 44 -148.5t149 -44.5q104 0 148 44t44 149h119q0 -162 -73.5 -233.5t-237.5 -71.5t-238 71.5t-74 233.5z" />
<glyph unicode="&#x150;" horiz-adv-x="1509" d="M100 688q0 188 38 323.5t118 221.5t204 127t296 41t296 -41t203.5 -127t116.5 -221t37 -324q0 -188 -37 -323.5t-116.5 -221.5t-203.5 -127t-296 -41t-296 41t-204 127t-118 221.5t-38 323.5zM274 688q0 -154 27 -263.5t85 -178t149.5 -101t220.5 -32.5q127 0 218 32.5 t149.5 101t86 178.5t27.5 263q0 154 -27.5 263.5t-86 178t-149.5 101.5t-218 33q-129 0 -220.5 -33t-149.5 -101.5t-85 -178t-27 -263.5zM442 1515l250 287h176l-272 -287h-154zM852 1515l248 287h178l-272 -287h-154z" />
<glyph unicode="&#x151;" horiz-adv-x="1153" d="M86 498q0 274 116.5 398t375.5 124q258 0 373.5 -124t115.5 -398q0 -276 -115.5 -399.5t-373.5 -123.5t-375 123.5t-117 399.5zM254 498q0 -209 76 -300.5t248 -91.5q170 0 245.5 91.5t75.5 300.5t-75.5 300t-245.5 91q-172 0 -248 -91t-76 -300zM264 1155l250 287h176 l-272 -287h-154zM674 1155l248 287h178l-272 -287h-154z" />
<glyph unicode="&#x152;" horiz-adv-x="2093" d="M100 688q0 182 41 312t128 214t223.5 123t324.5 39h1168v-131h-738v-481h590v-127h-590v-506h754v-131h-1184q-188 0 -324.5 39t-223.5 123t-128 214t-41 312zM274 688q0 -147 31 -251.5t98.5 -172t173 -98.5t252.5 -31h248v1106h-248q-147 0 -252.5 -30.5t-173 -98.5 t-98.5 -172t-31 -252z" />
<glyph unicode="&#x153;" horiz-adv-x="1888" d="M86 498q0 274 116.5 398t375.5 124q324 0 405 -232q43 121 140.5 176.5t252.5 55.5q227 0 328.5 -120t101.5 -386q0 -16 -1 -32.5t-1 -30.5h-741q6 -186 95 -266.5t290 -80.5q160 0 319 50v-131q-78 -25 -158.5 -36.5t-172.5 -11.5q-180 0 -291 57.5t-158 180.5 q-35 -117 -139.5 -177.5t-269.5 -60.5q-258 0 -375 123.5t-117 399.5zM254 498q0 -209 76 -300.5t248 -91.5q170 0 245.5 91.5t75.5 300.5t-75.5 300t-245.5 91q-172 0 -248 -91t-76 -300zM1063 563h584q-4 180 -66 259t-205 79q-160 0 -234.5 -79t-78.5 -259z" />
<glyph unicode="&#x154;" horiz-adv-x="1316" d="M94 1300l15 76h624q248 0 357.5 -95t109.5 -312q0 -182 -81 -275.5t-259 -111.5l369 -582h-187l-350 563h-352v-563h-164v1247q0 18 -20 27zM340 694h375q172 0 245.5 62.5t73.5 212.5t-73.5 213t-245.5 63h-375v-551zM553 1515l248 287h178l-274 -287h-152z" />
<glyph unicode="&#x155;" horiz-adv-x="747" d="M74 911l16 84h207q18 0 18 -20v-101q115 145 324 146q27 0 53.5 -2t42.5 -6l-28 -144q-18 4 -41 8.5t-52 4.5q-109 0 -177 -32t-122 -77v-772h-163v856q0 12 -3.5 18.5t-13.5 10.5zM305 1155l248 287h178l-274 -287h-152z" />
<glyph unicode="&#x156;" horiz-adv-x="1312" d="M90 1300l15 76h624q248 0 357.5 -95t109.5 -312q0 -182 -81 -275.5t-259 -111.5l369 -582h-187l-350 563h-352v-563h-164v1247q0 18 -20 27zM336 694h375q172 0 245.5 62.5t73.5 212.5t-73.5 213t-245.5 63h-375v-551zM518 -524l103 385h145l-133 -385h-115z" />
<glyph unicode="&#x157;" horiz-adv-x="747" d="M55 -524l103 385h145l-133 -385h-115zM74 911l16 84h207q18 0 18 -20v-101q115 145 324 146q27 0 53.5 -2t42.5 -6l-28 -144q-18 4 -41 8.5t-52 4.5q-109 0 -177 -32t-122 -77v-772h-163v856q0 12 -3.5 18.5t-13.5 10.5z" />
<glyph unicode="&#x158;" horiz-adv-x="1316" d="M94 1300l15 76h624q248 0 357.5 -95t109.5 -312q0 -182 -81 -275.5t-259 -111.5l369 -582h-187l-350 563h-352v-563h-164v1247q0 18 -20 27zM328 1802h149l185 -195l184 195h150l-252 -287h-164zM340 694h375q172 0 245.5 62.5t73.5 212.5t-73.5 213t-245.5 63h-375v-551 z" />
<glyph unicode="&#x159;" horiz-adv-x="747" d="M74 911l16 84h207q18 0 18 -20v-101q115 145 324 146q27 0 53.5 -2t42.5 -6l-28 -144q-18 4 -41 8.5t-52 4.5q-109 0 -177 -32t-122 -77v-772h-163v856q0 12 -3.5 18.5t-13.5 10.5zM80 1442h149l185 -195l184 195h150l-252 -287h-164z" />
<glyph unicode="&#x15a;" horiz-adv-x="1204" d="M115 1018q0 180 120.5 281.5t382.5 101.5q115 0 223.5 -17.5t200.5 -46.5l-24 -131q-98 33 -192.5 47.5t-194.5 14.5q-186 0 -269 -54.5t-83 -191.5q0 -68 34.5 -110t93 -69.5t131 -47t149.5 -39t150.5 -46t132 -70.5t93.5 -109.5t35 -163.5q0 -201 -125 -296.5 t-387 -95.5q-119 0 -236 16.5t-227 51.5v137q113 -37 224.5 -54t225.5 -17q190 0 275.5 58t85.5 195q0 94 -60.5 145.5t-151.5 81t-197.5 53.5t-197.5 65t-151.5 112.5t-60.5 198.5zM493 1515l248 287h178l-274 -287h-152z" />
<glyph unicode="&#x15b;" horiz-adv-x="952" d="M102 733q0 145 104.5 216t291.5 71q86 0 165.5 -11.5t155.5 -33.5l-26 -127q-137 45 -287 45q-127 0 -186.5 -40t-59.5 -118q0 -61 44 -91t111.5 -47t144.5 -31.5t144.5 -46.5t111.5 -87t44 -156q0 -150 -103.5 -225.5t-295.5 -75.5q-193 0 -348 50v133q162 -55 336 -56 q131 0 192 45.5t61 126.5q0 68 -44 101t-111.5 51t-144 31.5t-144.5 42t-112 82t-44 151.5zM368 1155l248 287h178l-274 -287h-152z" />
<glyph unicode="&#x15c;" horiz-adv-x="1204" d="M115 1018q0 180 120.5 281.5t382.5 101.5q115 0 223.5 -17.5t200.5 -46.5l-24 -131q-98 33 -192.5 47.5t-194.5 14.5q-186 0 -269 -54.5t-83 -191.5q0 -68 34.5 -110t93 -69.5t131 -47t149.5 -39t150.5 -46t132 -70.5t93.5 -109.5t35 -163.5q0 -201 -125 -296.5 t-387 -95.5q-119 0 -236 16.5t-227 51.5v137q113 -37 224.5 -54t225.5 -17q190 0 275.5 58t85.5 195q0 94 -60.5 145.5t-151.5 81t-197.5 53.5t-197.5 65t-151.5 112.5t-60.5 198.5zM283 1515l252 287h164l252 -287h-150l-184 195l-185 -195h-149z" />
<glyph unicode="&#x15d;" horiz-adv-x="952" d="M102 733q0 145 104.5 216t291.5 71q86 0 165.5 -11.5t155.5 -33.5l-26 -127q-137 45 -287 45q-127 0 -186.5 -40t-59.5 -118q0 -61 44 -91t111.5 -47t144.5 -31.5t144.5 -46.5t111.5 -87t44 -156q0 -150 -103.5 -225.5t-295.5 -75.5q-193 0 -348 50v133q162 -55 336 -56 q131 0 192 45.5t61 126.5q0 68 -44 101t-111.5 51t-144 31.5t-144.5 42t-112 82t-44 151.5zM143 1155l252 287h164l252 -287h-150l-184 195l-185 -195h-149z" />
<glyph unicode="&#x15e;" horiz-adv-x="1204" d="M115 1018q0 180 120.5 281.5t382.5 101.5q115 0 223.5 -17.5t200.5 -46.5l-24 -131q-98 33 -192.5 47.5t-194.5 14.5q-186 0 -269 -54.5t-83 -191.5q0 -68 34.5 -110t93 -69.5t131 -47t149.5 -39t150.5 -46t132 -70.5t93.5 -109.5t35 -163.5q0 -188 -109.5 -283.5 t-339.5 -106.5v-100q86 -6 126 -46t40 -122q0 -98 -60.5 -140t-193.5 -42q-47 0 -90 5t-84 15v99q41 -10 77 -17.5t77 -7.5q78 0 110.5 20.5t32.5 71.5q0 49 -29.5 69.5t-103.5 20.5h-16v172q-106 4 -210 19.5t-202 48.5v137q113 -37 224.5 -54t225.5 -17q190 0 275.5 58 t85.5 195q0 94 -60.5 145.5t-151.5 81t-197.5 53.5t-197.5 65t-151.5 112.5t-60.5 198.5z" />
<glyph unicode="&#x15f;" horiz-adv-x="952" d="M102 733q0 145 104.5 216t291.5 71q86 0 165.5 -11.5t155.5 -33.5l-26 -127q-137 45 -287 45q-127 0 -186.5 -40t-59.5 -118q0 -61 44 -91t111.5 -47t144.5 -31.5t144.5 -46.5t111.5 -87t44 -156q0 -137 -88 -211.5t-248 -87.5v-100q86 -6 126 -46t40 -122 q0 -98 -60.5 -140t-193.5 -42q-47 0 -90 5t-84 15v99q41 -10 77 -17.5t77 -7.5q78 0 110.5 20.5t32.5 71.5q0 49 -29.5 69.5t-103.5 20.5h-16v172q-162 6 -297 50v133q162 -55 336 -56q131 0 192 45.5t61 126.5q0 68 -44 101t-111.5 51t-144 31.5t-144.5 42t-112 82 t-44 151.5z" />
<glyph unicode="&#x160;" horiz-adv-x="1204" d="M115 1018q0 180 120.5 281.5t382.5 101.5q115 0 223.5 -17.5t200.5 -46.5l-24 -131q-98 33 -192.5 47.5t-194.5 14.5q-186 0 -269 -54.5t-83 -191.5q0 -68 34.5 -110t93 -69.5t131 -47t149.5 -39t150.5 -46t132 -70.5t93.5 -109.5t35 -163.5q0 -201 -125 -296.5 t-387 -95.5q-119 0 -236 16.5t-227 51.5v137q113 -37 224.5 -54t225.5 -17q190 0 275.5 58t85.5 195q0 94 -60.5 145.5t-151.5 81t-197.5 53.5t-197.5 65t-151.5 112.5t-60.5 198.5zM289 1802h149l185 -195l184 195h150l-252 -287h-164z" />
<glyph unicode="&#x161;" horiz-adv-x="952" d="M102 733q0 145 104.5 216t291.5 71q86 0 165.5 -11.5t155.5 -33.5l-26 -127q-137 45 -287 45q-127 0 -186.5 -40t-59.5 -118q0 -61 44 -91t111.5 -47t144.5 -31.5t144.5 -46.5t111.5 -87t44 -156q0 -150 -103.5 -225.5t-295.5 -75.5q-193 0 -348 50v133q162 -55 336 -56 q131 0 192 45.5t61 126.5q0 68 -44 101t-111.5 51t-144 31.5t-144.5 42t-112 82t-44 151.5zM143 1442h149l185 -195l184 195h150l-252 -287h-164z" />
<glyph unicode="&#x162;" horiz-adv-x="1214" d="M43 1241v135h1128v-135h-479v-1241h-170v1241h-479zM468 -524l103 385h145l-133 -385h-115z" />
<glyph unicode="&#x163;" horiz-adv-x="753" d="M29 905l14 90h123v297h164v-297h342v-129h-342v-561q0 -106 46 -152.5t150 -46.5q37 0 74 5.5t72 13.5v-131q-78 -18 -170 -19q-176 0 -256 76t-80 248v543q0 16 -2 21t-19 9zM278 -524l103 385h145l-133 -385h-115z" />
<glyph unicode="&#x164;" horiz-adv-x="1214" d="M43 1241v135h1128v-135h-479v-1241h-170v1241h-479zM274 1802h149l185 -195l184 195h150l-252 -287h-164z" />
<glyph unicode="&#x165;" horiz-adv-x="753" d="M29 905l14 90h123v297h164v-297h342v-129h-342v-561q0 -106 46 -152.5t150 -46.5q37 0 74 5.5t72 13.5v-131q-78 -18 -170 -19q-176 0 -256 76t-80 248v543q0 16 -2 21t-19 9zM459 1135l102 385h145l-133 -385h-114z" />
<glyph unicode="&#x166;" horiz-adv-x="1214" d="M43 1241v135h1128v-135h-479v-532h312v-121h-312v-588h-170v588h-311v121h311v532h-479z" />
<glyph unicode="&#x167;" horiz-adv-x="815" d="M37 449v108h188v285q0 16 -2 21t-18 9l-117 33l14 90h123v281l166 29v-310h340v-123h-340v-315h307v-108h-307v-152q0 -104 44 -150.5t149 -46.5q74 0 147 23v-127q-39 -10 -82 -15.5t-90 -5.5q-176 0 -255 76t-79 246v152h-188z" />
<glyph unicode="&#x168;" horiz-adv-x="1499" d="M86 1300l14 76h219q18 0 19 -20v-817q0 -227 96 -326.5t318 -99.5q219 0 316 99t97 327v837h170v-850q0 -145 -33.5 -249.5t-104.5 -171t-181.5 -98.5t-263.5 -32q-154 0 -264.5 32t-181 98.5t-104.5 171t-34 249.5v721q0 18 -21 27zM434 1538v20q0 111 43 160t138 49 q43 0 77.5 -16.5t63.5 -36t55.5 -35.5t54.5 -16q47 0 65.5 23.5t18.5 80.5v14h119v-22q0 -111 -43 -160t-137 -49q-43 0 -78 16.5t-63.5 36t-56 35.5t-54.5 16q-47 0 -65.5 -23.5t-18.5 -80.5v-12h-119z" />
<glyph unicode="&#x169;" horiz-adv-x="1150" d="M70 909l14 86h209q18 0 18 -20v-584q0 -154 62.5 -219.5t210.5 -65.5q145 0 208.5 66t63.5 219v604h164v-616q0 -213 -103.5 -308.5t-332.5 -95.5q-231 0 -334 95.5t-103 308.5v481q0 10 -14 19zM266 1178v20q0 111 43 160t138 49q43 0 77.5 -16.5t63.5 -36t55.5 -35.5 t54.5 -16q47 0 65.5 23.5t18.5 80.5v14h119v-22q0 -111 -43 -160t-137 -49q-43 0 -78 16.5t-63.5 36t-56 35.5t-54.5 16q-47 0 -65.5 -23.5t-18.5 -80.5v-12h-119z" />
<glyph unicode="&#x16a;" horiz-adv-x="1499" d="M86 1300l14 76h219q18 0 19 -20v-817q0 -227 96 -326.5t318 -99.5q219 0 316 99t97 327v837h170v-850q0 -145 -33.5 -249.5t-104.5 -171t-181.5 -98.5t-263.5 -32q-154 0 -264.5 32t-181 98.5t-104.5 171t-34 249.5v721q0 18 -21 27zM443 1601v117h618v-117h-618z" />
<glyph unicode="&#x16b;" horiz-adv-x="1150" d="M70 909l14 86h209q18 0 18 -20v-584q0 -154 62.5 -219.5t210.5 -65.5q145 0 208.5 66t63.5 219v604h164v-616q0 -213 -103.5 -308.5t-332.5 -95.5q-231 0 -334 95.5t-103 308.5v481q0 10 -14 19zM275 1241v117h618v-117h-618z" />
<glyph unicode="&#x16c;" horiz-adv-x="1499" d="M86 1300l14 76h219q18 0 19 -20v-817q0 -227 96 -326.5t318 -99.5q219 0 316 99t97 327v837h170v-850q0 -145 -33.5 -249.5t-104.5 -171t-181.5 -98.5t-263.5 -32q-154 0 -264.5 32t-181 98.5t-104.5 171t-34 249.5v721q0 18 -21 27zM440 1802h119q0 -104 44 -148.5 t149 -44.5q104 0 148 44t44 149h119q0 -162 -73.5 -233.5t-237.5 -71.5t-238 71.5t-74 233.5z" />
<glyph unicode="&#x16d;" horiz-adv-x="1150" d="M70 909l14 86h209q18 0 18 -20v-584q0 -154 62.5 -219.5t210.5 -65.5q145 0 208.5 66t63.5 219v604h164v-616q0 -213 -103.5 -308.5t-332.5 -95.5q-231 0 -334 95.5t-103 308.5v481q0 10 -14 19zM272 1442h119q0 -104 44 -148.5t149 -44.5q104 0 148 44t44 149h119 q0 -162 -73.5 -233.5t-237.5 -71.5t-238 71.5t-74 233.5z" />
<glyph unicode="&#x16e;" horiz-adv-x="1499" d="M86 1300l14 76h219q18 0 19 -20v-817q0 -227 96 -326.5t318 -99.5q219 0 316 99t97 327v837h170v-850q0 -145 -33.5 -249.5t-104.5 -171t-181.5 -98.5t-263.5 -32q-154 0 -264.5 32t-181 98.5t-104.5 171t-34 249.5v721q0 18 -21 27zM541 1658q0 102 50 147.5t161 45.5 t161 -45t50 -148q0 -100 -50.5 -146t-160.5 -46q-111 0 -161 46t-50 146zM637 1658q0 -61 26.5 -87.5t88.5 -26.5q61 0 87.5 25.5t26.5 88.5q0 61 -26.5 89t-87.5 28t-88 -28t-27 -89z" />
<glyph unicode="&#x16f;" horiz-adv-x="1150" d="M70 909l14 86h209q18 0 18 -20v-584q0 -154 62.5 -219.5t210.5 -65.5q145 0 208.5 66t63.5 219v604h164v-616q0 -213 -103.5 -308.5t-332.5 -95.5q-231 0 -334 95.5t-103 308.5v481q0 10 -14 19zM373 1298q0 102 50 147.5t161 45.5t161 -45t50 -148q0 -100 -50.5 -146 t-160.5 -46q-111 0 -161 46t-50 146zM469 1298q0 -61 26.5 -87.5t88.5 -26.5q61 0 87.5 25.5t26.5 88.5q0 61 -26.5 89t-87.5 28t-88 -28t-27 -89z" />
<glyph unicode="&#x170;" horiz-adv-x="1499" d="M86 1300l14 76h219q18 0 19 -20v-817q0 -227 96 -326.5t318 -99.5q219 0 316 99t97 327v837h170v-850q0 -145 -33.5 -249.5t-104.5 -171t-181.5 -98.5t-263.5 -32q-154 0 -264.5 32t-181 98.5t-104.5 171t-34 249.5v721q0 18 -21 27zM438 1515l250 287h176l-272 -287 h-154zM848 1515l248 287h178l-272 -287h-154z" />
<glyph unicode="&#x171;" horiz-adv-x="1150" d="M70 909l14 86h209q18 0 18 -20v-584q0 -154 62.5 -219.5t210.5 -65.5q145 0 208.5 66t63.5 219v604h164v-616q0 -213 -103.5 -308.5t-332.5 -95.5q-231 0 -334 95.5t-103 308.5v481q0 10 -14 19zM270 1155l250 287h176l-272 -287h-154zM680 1155l248 287h178l-272 -287 h-154z" />
<glyph unicode="&#x172;" horiz-adv-x="1499" d="M86 1300l14 76h219q18 0 19 -20v-817q0 -227 96 -326.5t318 -99.5q219 0 316 99t97 327v837h170v-850q0 -115 -17.5 -197.5t-55 -144t-100 -106.5t-150.5 -80q-141 -55 -214 -131t-73 -141q0 -51 29.5 -74t97.5 -23q23 0 42 2t34 7v-101q-23 -6 -50.5 -8t-60.5 -2 q-117 0 -170 41t-53 133q0 143 201 281q-29 -4 -55.5 -4.5t-53.5 -0.5q-137 6 -235.5 41t-161 102.5t-92 168t-29.5 237.5v721q0 18 -21 27z" />
<glyph unicode="&#x173;" horiz-adv-x="1150" d="M70 909l14 86h209q18 0 18 -20v-584q0 -154 62.5 -219.5t210.5 -65.5q145 0 208.5 66t63.5 219v604h164v-616q0 -78 -11.5 -136.5t-38 -102.5t-68.5 -78.5t-103 -67.5q-123 -63 -190.5 -133t-67.5 -135q0 -51 29.5 -74t97.5 -23q23 0 42 2t33 7v-101q-23 -6 -50 -8 t-60 -2q-117 0 -170 41t-53 133q0 66 52 137.5t150 143.5q-27 -4 -47 -4.5t-43 2.5q-197 10 -286 103t-89 296v481q0 10 -14 19z" />
<glyph unicode="&#x174;" horiz-adv-x="1994" d="M82 1376h168q8 -49 23.5 -114.5t34 -143.5t41 -163t44.5 -171q51 -195 100.5 -350t90.5 -260h4q41 104 88 260t100 350q23 86 45.5 168t41 156t32.5 135.5t25 104.5h157q18 -92 57.5 -241t86.5 -323q53 -195 100 -350t88 -260h4q41 104 90 260t101 350q23 86 45 171 t40.5 163t33 143.5t24.5 114.5h166q-27 -135 -70 -308t-97 -358.5t-114.5 -369.5t-122.5 -340h-190q-98 262 -176 510q-23 68 -44.5 146.5t-40 157.5t-34.5 152.5t-25 135.5h-2q-10 -61 -25.5 -135t-34.5 -153t-41 -157.5t-42 -146.5q-37 -123 -82 -251t-94 -259h-191 q-61 156 -122.5 340t-115.5 369.5t-97 358.5t-70 308zM666 1515l252 287h164l252 -287h-150l-184 195l-185 -195h-149z" />
<glyph unicode="&#x175;" horiz-adv-x="1632" d="M49 995h164q14 -49 30.5 -107.5t35 -116.5t36 -115.5t31.5 -102.5q35 -111 70 -214t65 -189h4q31 86 67 189t71 214q14 45 30.5 98.5t31.5 108.5t30.5 108.5t27.5 102.5h146q12 -49 27.5 -102.5t32 -108.5t32.5 -108.5t31 -98.5q35 -111 70.5 -214t66.5 -189h4 q31 86 65.5 189t69.5 214q14 45 31.5 102.5t36 115.5t35 116.5t30.5 107.5h162q-35 -119 -77 -254t-88 -269t-93 -256t-88 -216h-178q-35 78 -71 177t-73 210q-14 41 -28.5 90t-27.5 99.5t-24.5 95.5t-17.5 80h-2q-6 -35 -17.5 -80t-24.5 -95.5t-27.5 -99.5t-28.5 -90 q-37 -111 -73 -210t-71 -177h-178q-41 94 -88 216t-93 256t-89 269.5t-76 253.5zM481 1155l252 287h164l252 -287h-150l-184 195l-185 -195h-149z" />
<glyph unicode="&#x176;" horiz-adv-x="1226" d="M25 1376h188l403 -641l400 641h188l-506 -788v-588h-170v588zM281 1515l252 287h164l252 -287h-150l-184 195l-185 -195h-149z" />
<glyph unicode="&#x177;" horiz-adv-x="1024" d="M20 995h179l329 -796l285 796h174l-426 -1134q-33 -88 -67.5 -147.5t-79.5 -96.5t-101.5 -52.5t-132.5 -15.5h-33.5t-33.5 5v127q14 -2 29.5 -2.5t25.5 -0.5q47 0 83 10.5t64.5 34t51 63.5t45.5 99l39 109zM166 1155l252 287h164l252 -287h-150l-184 195l-185 -195h-149z " />
<glyph unicode="&#x178;" horiz-adv-x="1226" d="M25 1376h188l403 -641l400 641h188l-506 -788v-588h-170v588zM308 1679q0 100 102 101q55 0 79.5 -23.5t24.5 -77.5q0 -53 -24.5 -76.5t-79.5 -23.5q-102 0 -102 100zM715 1679q0 53 24.5 77t80.5 24q102 0 102 -101q0 -100 -102 -100q-55 0 -80 23.5t-25 76.5z" />
<glyph unicode="&#x179;" horiz-adv-x="1269" d="M90 0v119l858 1122h-842v135h1055v-119l-856 -1122h873v-135h-1088zM526 1515l248 287h178l-274 -287h-152z" />
<glyph unicode="&#x17a;" horiz-adv-x="985" d="M94 0v113l582 753h-565v129h772v-114l-582 -752h598v-129h-805zM389 1155l248 287h178l-274 -287h-152z" />
<glyph unicode="&#x17b;" horiz-adv-x="1269" d="M90 0v119l858 1122h-842v135h1055v-119l-856 -1122h873v-135h-1088zM530 1658q0 53 24.5 77t80.5 24q55 0 79.5 -23.5t24.5 -77.5q0 -53 -24.5 -76.5t-79.5 -23.5t-80 23.5t-25 76.5z" />
<glyph unicode="&#x17c;" horiz-adv-x="985" d="M94 0v113l582 753h-565v129h772v-114l-582 -752h598v-129h-805zM393 1298q0 53 24.5 77t80.5 24q55 0 79.5 -23.5t24.5 -77.5q0 -53 -24.5 -76.5t-79.5 -23.5t-80 23.5t-25 76.5z" />
<glyph unicode="&#x17d;" horiz-adv-x="1269" d="M90 0v119l858 1122h-842v135h1055v-119l-856 -1122h873v-135h-1088zM301 1802h149l185 -195l184 195h150l-252 -287h-164z" />
<glyph unicode="&#x17e;" horiz-adv-x="985" d="M94 0v113l582 753h-565v129h772v-114l-582 -752h598v-129h-805zM164 1442h149l185 -195l184 195h150l-252 -287h-164z" />
<glyph unicode="&#x192;" d="M188 -8v131q66 -16 123 -17q170 0 170 183v446h-243v129h243v213q0 166 76 245t242 79q82 0 153 -17v-131q-66 16 -127 17q-94 0 -137 -47t-43 -146v-213h258v-129h-258v-446q0 -162 -74.5 -238t-232.5 -76q-74 0 -150 17z" />
<glyph unicode="&#x1cd;" horiz-adv-x="1327" d="M41 0q43 164 105.5 356.5t134 381t146.5 356.5t140 282h193q66 -115 140.5 -282.5t146 -356t134 -381t105.5 -356.5h-172q-23 82 -50.5 175t-59.5 192h-680q-33 -98 -60.5 -191.5t-50.5 -175.5h-172zM332 1802h149l185 -195l184 195h150l-252 -287h-164zM367 494h594 q-35 102 -73 204.5t-77 196.5t-75.5 178t-71.5 152q-35 -68 -73 -152t-76 -178t-76 -196.5t-72 -204.5z" />
<glyph unicode="&#x1ce;" horiz-adv-x="1085" d="M90 268q0 152 95.5 221.5t306.5 69.5q164 0 290 -43v137q0 129 -68.5 183.5t-228.5 54.5q-154 0 -307 -49v131q78 23 158 35t168 12q231 0 333.5 -89t102.5 -290v-502q0 -12 3 -18t13 -10l62 -27l-17 -84h-170q-10 0 -13 2t-5 14l-8 86q-90 -127 -336 -127 q-197 0 -288 71t-91 222zM209 1442h149l185 -195l184 195h150l-252 -287h-164zM252 270q0 -92 59.5 -134t188.5 -42q147 0 214.5 52.5t67.5 164.5v90q-115 45 -266 45q-141 0 -202.5 -39.5t-61.5 -136.5z" />
<glyph unicode="&#x1fa;" horiz-adv-x="1327" d="M41 0q43 164 105.5 356.5t134 381t146.5 356.5t140 282h193q66 -115 140.5 -282.5t146 -356t134 -381t105.5 -356.5h-172q-23 82 -50.5 175t-59.5 192h-680q-33 -98 -60.5 -191.5t-50.5 -175.5h-172zM367 494h594q-35 102 -73 204.5t-77 196.5t-75.5 178t-71.5 152 q-35 -68 -73 -152t-76 -178t-76 -196.5t-72 -204.5zM453 1658q0 88 38 133.5t122 55.5l190 217h178l-221 -225q115 -33 115 -181q0 -100 -50.5 -146t-160.5 -46q-111 0 -161 46t-50 146zM549 1658q0 -61 26.5 -87.5t88.5 -26.5q61 0 87.5 25.5t26.5 88.5q0 61 -26.5 89 t-87.5 28t-88 -28t-27 -89z" />
<glyph unicode="&#x1fb;" horiz-adv-x="1085" d="M90 268q0 152 95.5 221.5t306.5 69.5q164 0 290 -43v137q0 129 -68.5 183.5t-228.5 54.5q-154 0 -307 -49v131q78 23 158 35t168 12q231 0 333.5 -89t102.5 -290v-502q0 -12 3 -18t13 -10l62 -27l-17 -84h-170q-10 0 -13 2t-5 14l-8 86q-90 -127 -336 -127 q-197 0 -288 71t-91 222zM252 270q0 -92 59.5 -134t188.5 -42q147 0 214.5 52.5t67.5 164.5v90q-115 45 -266 45q-141 0 -202.5 -39.5t-61.5 -136.5zM320 1298q0 88 38 133.5t122 55.5l190 217h178l-221 -225q115 -33 115 -181q0 -100 -50.5 -146t-160.5 -46q-111 0 -161 46 t-50 146zM416 1298q0 -61 26.5 -87.5t88.5 -26.5q61 0 87.5 25.5t26.5 88.5q0 61 -26.5 89t-87.5 28t-88 -28t-27 -89z" />
<glyph unicode="&#x1fc;" horiz-adv-x="1978" d="M-29 0q109 197 230 394.5t240.5 377.5t233 336t210.5 268h985v-135h-754v-477h606v-127h-606v-502h770v-135h-940v367h-588q-55 -92 -109 -183.5t-104 -183.5h-174zM436 494h510v735q-111 -141 -243 -331.5t-267 -403.5zM1009 1515l248 287h178l-274 -287h-152z" />
<glyph unicode="&#x1fd;" horiz-adv-x="1761" d="M90 268q0 152 95.5 220.5t306.5 68.5q164 0 290 -43v139q0 129 -68.5 183.5t-228.5 54.5q-154 0 -307 -49v131q78 23 158 35t168 12q154 0 244 -44t124 -142q92 186 377 186q227 0 328.5 -120t101.5 -386q0 -16 -1 -32.5t-1 -30.5h-741q4 -184 94 -265.5t291 -81.5 q160 0 319 50v-131q-78 -25 -158.5 -36.5t-172.5 -11.5q-172 0 -283 46.5t-170 148.5q-76 -195 -381 -195q-199 0 -292 70.5t-93 222.5zM252 270q0 -92 60.5 -134t191.5 -42q147 0 212.5 52.5t65.5 164.5v90q-115 45 -266 45q-141 0 -202.5 -40t-61.5 -136zM776 1155 l248 287h178l-274 -287h-152zM936 563h584q-4 180 -66 259t-205 79q-160 0 -233.5 -78t-79.5 -260z" />
<glyph unicode="&#x1fe;" horiz-adv-x="1509" d="M100 688q0 188 38 323.5t118 221.5t204 127t296 41q254 0 401 -90l98 131h131l-147 -195q88 -86 129 -223t41 -336q0 -188 -37 -323.5t-116.5 -221.5t-203.5 -127t-296 -41q-252 0 -404 88l-96 -129h-131l145 193q-88 86 -129 224t-41 337zM262 688q0 -295 105 -432 l700 936q-111 78 -311 78q-131 0 -224.5 -33t-154 -103.5t-88 -180t-27.5 -265.5zM442 182q57 -41 135 -58.5t179 -17.5q131 0 224 33t152.5 103.5t87 180t27.5 265.5q0 293 -104 430zM647 1515l248 287h178l-274 -287h-152z" />
<glyph unicode="&#x1ff;" horiz-adv-x="1153" d="M86 498q0 274 116.5 398t375.5 124q182 0 288 -59l76 100h115l-117 -156q127 -125 127 -407q0 -276 -115.5 -399.5t-373.5 -123.5q-182 0 -291 58l-74 -99h-117l115 154q-125 123 -125 410zM236 498q0 -195 65 -291l483 645q-78 49 -206 49q-182 0 -262 -94t-80 -309z M369 141q74 -47 209 -47q180 0 260 94.5t80 309.5q0 195 -66 290zM469 1155l248 287h178l-274 -287h-152z" />
<glyph unicode="&#x218;" horiz-adv-x="1204" d="M115 1018q0 180 120.5 281.5t382.5 101.5q115 0 223.5 -17.5t200.5 -46.5l-24 -131q-98 33 -192.5 47.5t-194.5 14.5q-186 0 -269 -54.5t-83 -191.5q0 -68 34.5 -110t93 -69.5t131 -47t149.5 -39t150.5 -46t132 -70.5t93.5 -109.5t35 -163.5q0 -201 -125 -296.5 t-387 -95.5q-119 0 -236 16.5t-227 51.5v137q113 -37 224.5 -54t225.5 -17q190 0 275.5 58t85.5 195q0 94 -60.5 145.5t-151.5 81t-197.5 53.5t-197.5 65t-151.5 112.5t-60.5 198.5zM442 -524l103 385h145l-133 -385h-115z" />
<glyph unicode="&#x219;" horiz-adv-x="952" d="M102 733q0 145 104.5 216t291.5 71q86 0 165.5 -11.5t155.5 -33.5l-26 -127q-137 45 -287 45q-127 0 -186.5 -40t-59.5 -118q0 -61 44 -91t111.5 -47t144.5 -31.5t144.5 -46.5t111.5 -87t44 -156q0 -150 -103.5 -225.5t-295.5 -75.5q-193 0 -348 50v133q162 -55 336 -56 q131 0 192 45.5t61 126.5q0 68 -44 101t-111.5 51t-144 31.5t-144.5 42t-112 82t-44 151.5zM337 -524l103 385h145l-133 -385h-115z" />
<glyph unicode="&#x21a;" horiz-adv-x="1214" d="M43 1241v135h1128v-135h-479v-1241h-170v1241h-479zM468 -524l103 385h145l-133 -385h-115z" />
<glyph unicode="&#x21b;" horiz-adv-x="753" d="M29 905l14 90h123v297h164v-297h342v-129h-342v-561q0 -106 46 -152.5t150 -46.5q37 0 74 5.5t72 13.5v-131q-78 -18 -170 -19q-176 0 -256 76t-80 248v543q0 16 -2 21t-19 9zM278 -524l103 385h145l-133 -385h-115z" />
<glyph unicode="&#x2c6;" horiz-adv-x="491" d="M-88 1155l252 287h164l252 -287h-150l-184 195l-185 -195h-149z" />
<glyph unicode="&#x2c7;" horiz-adv-x="491" d="M-88 1442h149l185 -195l184 195h150l-252 -287h-164z" />
<glyph unicode="&#x2d8;" horiz-adv-x="491" d="M-66 1442h119q0 -104 44 -148.5t149 -44.5q104 0 148 44t44 149h119q0 -162 -73.5 -233.5t-237.5 -71.5t-238 71.5t-74 233.5z" />
<glyph unicode="&#x2d9;" horiz-adv-x="491" d="M141 1298q0 53 24.5 77t80.5 24q55 0 79.5 -23.5t24.5 -77.5q0 -53 -24.5 -76.5t-79.5 -23.5t-80 23.5t-25 76.5z" />
<glyph unicode="&#x2da;" horiz-adv-x="491" d="M35 1298q0 102 50 147.5t161 45.5t161 -45t50 -148q0 -100 -50.5 -146t-160.5 -46q-111 0 -161 46t-50 146zM131 1298q0 -61 26.5 -87.5t88.5 -26.5q61 0 87.5 25.5t26.5 88.5q0 61 -26.5 89t-87.5 28t-88 -28t-27 -89z" />
<glyph unicode="&#x2db;" horiz-adv-x="491" d="M-6 -299q0 72 52 146.5t165 172.5l117 -20q-55 -51 -94 -91t-64 -72t-35 -59.5t-10 -51.5q0 -51 29.5 -74t97.5 -23q23 0 42 2t34 7v-101q-23 -6 -50.5 -8t-62.5 -2q-117 0 -169 41t-52 133z" />
<glyph unicode="&#x2dc;" horiz-adv-x="491" d="M-72 1178v20q0 111 43 160t138 49q43 0 77.5 -16.5t63.5 -36t55.5 -35.5t54.5 -16q47 0 65.5 23.5t18.5 80.5v14h119v-22q0 -111 -43 -160t-137 -49q-43 0 -78 16.5t-63.5 36t-56 35.5t-54.5 16q-47 0 -65.5 -23.5t-18.5 -80.5v-12h-119z" />
<glyph unicode="&#x2dd;" horiz-adv-x="491" d="M-68 1155l250 287h176l-272 -287h-154zM342 1155l248 287h178l-272 -287h-154z" />
<glyph unicode="&#x394;" horiz-adv-x="1390" d="M80 0v111l520 1265h193l518 -1265v-111h-1231zM256 135h881l-441 1086z" />
<glyph unicode="&#x3a9;" horiz-adv-x="1509" d="M53 0v135h371q-160 117 -235.5 270.5t-75.5 360.5q0 168 36.5 288t115.5 196.5t200 113.5t291 37q168 0 289.5 -37t199.5 -113.5t115 -196.5t37 -288q0 -207 -76 -360.5t-236 -270.5h371v-135h-567v125q174 109 256 259.5t82 356.5q0 139 -26.5 238.5t-84 162 t-146.5 92.5t-214 30t-215 -30t-147.5 -92.5t-84 -161.5t-26.5 -239q0 -207 81.5 -357.5t256.5 -258.5v-125h-568z" />
<glyph unicode="&#x3bc;" horiz-adv-x="1161" d="M145 -426v1421h164v-610q0 -147 60.5 -210.5t197.5 -63.5q152 0 219.5 65.5t67.5 218.5v600h164v-995h-129l-12 125q-84 -147 -312 -148q-190 0 -256 111v-514h-164z" />
<glyph unicode="&#x3c0;" horiz-adv-x="1226" d="M70 866v129h1087v-129h-139v-866h-158v866h-491v-866h-158v866h-141z" />
<glyph unicode="&#x400;" horiz-adv-x="1208" d="M94 1300l15 76h991v-135h-754v-477h606v-127h-606v-502h770v-135h-940v1247q0 18 -20 27zM315 1802h179l247 -286h-151z" />
<glyph unicode="&#x401;" horiz-adv-x="1204" d="M94 1300l15 76h991v-135h-754v-477h606v-127h-606v-502h770v-135h-940v1247q0 18 -20 27zM322 1658q0 100 102 101q55 0 79.5 -23.5t24.5 -77.5q0 -53 -24.5 -76.5t-79.5 -23.5q-102 0 -102 100zM729 1658q0 53 24.5 77t80.5 24q102 0 102 -101q0 -100 -102 -100 q-55 0 -80 23.5t-25 76.5z" />
<glyph unicode="&#x402;" horiz-adv-x="1728" d="M43 1243v133h1128v-133h-479v-491q104 25 210 38t220 13q276 0 398 -98.5t122 -315.5q0 -219 -115.5 -316.5t-371.5 -97.5q-121 0 -252 31v137q119 -31 230 -30q180 0 258.5 64.5t78.5 211.5q0 150 -85 214.5t-279 64.5q-111 0 -213 -12.5t-201 -34.5v-621h-170v1243 h-479z" />
<glyph unicode="&#x403;" horiz-adv-x="1054" d="M94 1300l15 76h903v-133h-668v-1243h-168v1247q0 18 -20 27zM492 1516l247 286h179l-275 -286h-151z" />
<glyph unicode="&#x404;" horiz-adv-x="1236" d="M100 688q0 188 38 323.5t118 221.5t204 127t296 41q133 0 241.5 -18.5t157.5 -34.5l-25 -134q-90 27 -173 39.5t-179 12.5q-250 0 -370.5 -117t-135.5 -385h725v-127h-725q8 -283 129 -407t377 -124q96 0 186.5 13.5t180.5 40.5v-133q-178 -51 -389 -52q-172 0 -296 41 t-204 127t-118 221.5t-38 323.5z" />
<glyph unicode="&#x405;" horiz-adv-x="1204" d="M115 1018q0 180 120.5 281.5t382.5 101.5q115 0 223.5 -17.5t200.5 -46.5l-24 -131q-98 33 -192.5 47.5t-194.5 14.5q-186 0 -269 -54.5t-83 -191.5q0 -68 34.5 -110t93 -69.5t131 -47t149.5 -39t150.5 -46t132 -70.5t93.5 -109.5t35 -163.5q0 -201 -125 -296.5 t-387 -95.5q-119 0 -236 16.5t-227 51.5v137q113 -37 224.5 -54t225.5 -17q190 0 275.5 58t85.5 195q0 94 -60.5 145.5t-151.5 81t-197.5 53.5t-197.5 65t-151.5 112.5t-60.5 198.5z" />
<glyph unicode="&#x406;" horiz-adv-x="518" d="M96 1300l15 76h217q18 0 18 -20v-1356h-168v1247q0 18 -20 27z" />
<glyph unicode="&#x407;" horiz-adv-x="520" d="M-45 1659q0 100 102 100q55 0 80 -23.5t25 -76.5t-24.5 -76.5t-80.5 -23.5q-102 0 -102 100zM96 1300l15 76h217q18 0 18 -20v-1356h-168v1247q0 18 -20 27zM362 1659q0 53 25 76.5t80 23.5q102 0 102 -100t-102 -100q-55 0 -80 23.5t-25 76.5z" />
<glyph unicode="&#x408;" horiz-adv-x="899" d="M59 2v137q55 -12 108.5 -19t104.5 -7q154 0 220.5 67.5t66.5 222.5v973h170v-979q0 -221 -102.5 -321.5t-329.5 -100.5q-131 0 -238 27z" />
<glyph unicode="&#x409;" horiz-adv-x="2277" d="M43 -14v137q14 -2 21.5 -2h13.5q92 0 154.5 42t101.5 134t56.5 239.5t17.5 360.5v350q0 18 -21 27l-61 26l14 76h1010v-530h360q254 0 368.5 -100.5t114.5 -321.5q0 -223 -114.5 -323.5t-368.5 -100.5h-524v1243h-613v-358q0 -244 -26.5 -415t-82.5 -279.5t-147.5 -157.5 t-220.5 -49h-25.5t-27.5 2zM1350 133h348q176 0 253 68.5t77 222.5t-77 221.5t-253 67.5h-348v-580z" />
<glyph unicode="&#x40a;" horiz-adv-x="2244" d="M90 1300l14 76h232v-596h817v596h164v-596h393q238 0 344.5 -92t106.5 -297t-106.5 -298t-344.5 -93h-557v647h-817v-647h-164v1247q0 18 -20 27zM1317 133h381q158 0 227.5 61.5t69.5 196.5t-70 195.5t-227 60.5h-381v-514z" />
<glyph unicode="&#x40b;" horiz-adv-x="1728" d="M43 1243v133h1128v-133h-479v-491q100 25 199.5 38t198.5 13q266 0 387.5 -117t121.5 -356v-330h-169v317q0 180 -88.5 265.5t-286.5 85.5q-90 0 -179.5 -12.5t-183.5 -34.5v-621h-170v1243h-479z" />
<glyph unicode="&#x40c;" horiz-adv-x="1243" d="M94 1300l15 76h219q18 0 18 -20v-654l643 674h199l-602 -637l618 -739h-198l-525 633l-135 -139v-494h-170v1247q0 18 -20 27zM510 1516l248 286h178l-274 -286h-152z" />
<glyph unicode="&#x40d;" horiz-adv-x="1513" d="M94 1300l15 76h206q18 0 19 -20v-1123l844 1143h165v-1376h-157v1143l-844 -1143h-166v1247q0 18 -20 27zM545 1802h178l248 -286h-152z" />
<glyph unicode="&#x40e;" horiz-adv-x="1259" d="M57 1376h185l432 -839l385 839h178l-504 -1067q-43 -90 -88 -153.5t-98 -103.5t-120 -58.5t-153 -18.5q-82 0 -155 19v139q70 -20 143 -20q106 0 178 51t125 164l27 53zM344 1802h119q0 -104 44 -148.5t149 -44.5q104 0 148 44t44 149h119q0 -162 -73.5 -233.5 t-237.5 -71.5t-238 71.5t-74 233.5z" />
<glyph unicode="&#x40f;" horiz-adv-x="1513" d="M94 1300l15 76h217q18 0 18 -20v-1223h830v1243h169v-1376h-505v-328h-156v328h-506v1247q0 18 -20 27z" />
<glyph unicode="&#x410;" horiz-adv-x="1327" d="M41 0q43 164 105.5 356.5t134 381t146.5 356.5t140 282h193q66 -115 140.5 -282.5t146 -356t134 -381t105.5 -356.5h-172q-23 82 -50.5 175t-59.5 192h-680q-33 -98 -60.5 -191.5t-50.5 -175.5h-172zM367 494h594q-35 102 -73 204.5t-77 196.5t-75.5 178t-71.5 152 q-35 -68 -73 -152t-76 -178t-76 -196.5t-72 -204.5z" />
<glyph unicode="&#x411;" horiz-adv-x="1316" d="M94 1300l15 76h1009v-131h-778v-457h426q236 0 343.5 -92t107.5 -301q0 -211 -106.5 -303t-344.5 -92h-590v1247q0 18 -20 27zM340 127h410q160 0 230.5 63.5t70.5 204.5t-71 204t-230 63h-410v-535z" />
<glyph unicode="&#x412;" horiz-adv-x="1316" d="M94 1300l15 76h647q219 0 315 -87t96 -275q0 -236 -182 -303q231 -57 232 -336q0 -197 -100.5 -286t-328.5 -89h-612v1247q0 18 -20 27zM340 129h420q156 0 223.5 59.5t67.5 194.5t-68 194.5t-223 59.5h-420v-508zM340 764h387q147 0 212 57.5t65 184.5t-65 184t-212 57 h-387v-483z" />
<glyph unicode="&#x413;" horiz-adv-x="1054" d="M94 1300l15 76h903v-133h-668v-1243h-168v1247q0 18 -20 27z" />
<glyph unicode="&#x414;" horiz-adv-x="1607" d="M43 133h129q66 39 110 98.5t71.5 148.5t40 216t12.5 301v350q0 18 -21 27l-61 26l14 76h1022v-1243h188v-461h-155v328h-1194v-328h-156v461zM389 133h807v1110h-627v-358q0 -162 -9 -281t-30.5 -208t-56.5 -151.5t-84 -111.5z" />
<glyph unicode="&#x415;" horiz-adv-x="1208" d="M94 1300l15 76h991v-135h-754v-477h606v-127h-606v-502h770v-135h-940v1247q0 18 -20 27z" />
<glyph unicode="&#x416;" horiz-adv-x="1886" d="M41 0l592 739l-576 637h189l618 -686v686h158v-686l618 686h189l-576 -637l592 -739h-188l-508 633l-127 -139v-494h-158v494l-127 139l-508 -633h-188z" />
<glyph unicode="&#x417;" horiz-adv-x="1206" d="M94 47v135q109 -35 216.5 -55.5t211.5 -20.5q219 0 315.5 61.5t96.5 203.5q0 143 -92 204.5t-305 61.5h-236v127h236q188 0 269 59.5t81 194.5t-85 192.5t-280 57.5q-98 0 -195.5 -18.5t-203.5 -53.5l-25 133q109 35 221.5 53.5t221.5 18.5q272 0 394 -88t122 -283 q0 -133 -49.5 -210t-171.5 -111q143 -33 206.5 -115t63.5 -236q0 -203 -133 -293t-432 -90q-227 0 -447 72z" />
<glyph unicode="&#x418;" horiz-adv-x="1513" d="M94 1300l15 76h206q18 0 19 -20v-1123l844 1143h165v-1376h-157v1143l-844 -1143h-166v1247q0 18 -20 27z" />
<glyph unicode="&#x419;" horiz-adv-x="1513" d="M94 1300l15 76h206q18 0 19 -20v-1123l844 1143h165v-1376h-157v1143l-844 -1143h-166v1247q0 18 -20 27zM448 1802h119q0 -104 44 -148.5t149 -44.5q104 0 148 44t44 149h119q0 -162 -73.5 -233.5t-237.5 -71.5t-238 71.5t-74 233.5z" />
<glyph unicode="&#x41a;" horiz-adv-x="1243" d="M94 1300l15 76h219q18 0 18 -20v-654l643 674h199l-602 -637l618 -739h-198l-525 633l-135 -139v-494h-170v1247q0 18 -20 27z" />
<glyph unicode="&#x41b;" horiz-adv-x="1542" d="M43 -14v137q14 -2 21.5 -2h13.5q92 0 154.5 42t101.5 134t56.5 239.5t17.5 360.5v350q0 18 -21 27l-61 26l14 76h1032v-1376h-170v1243h-629v-358q0 -244 -26.5 -415t-82.5 -279.5t-147.5 -157.5t-220.5 -49h-25.5t-27.5 2z" />
<glyph unicode="&#x41c;" horiz-adv-x="1677" d="M94 1300l15 76h188q31 0 41 -8t31 -41l473 -754l501 803h164v-1376h-157v1122l-449 -710h-51q-25 0 -40 1t-25.5 6t-19.5 16t-22 32l-409 649v-1116h-158v1247q0 18 -20 27z" />
<glyph unicode="&#x41d;" horiz-adv-x="1513" d="M94 1300l15 76h217q18 0 18 -20v-588h830v608h169v-1376h-169v633h-830v-633h-168v1247q0 18 -20 27z" />
<glyph unicode="&#x41e;" horiz-adv-x="1509" d="M100 688q0 188 38 323.5t118 221.5t204 127t296 41t296 -41t203.5 -127t116.5 -221t37 -324q0 -188 -37 -323.5t-116.5 -221.5t-203.5 -127t-296 -41t-296 41t-204 127t-118 221.5t-38 323.5zM274 688q0 -154 27 -263.5t85 -178t149.5 -101t220.5 -32.5q127 0 218 32.5 t149.5 101t86 178.5t27.5 263q0 154 -27.5 263.5t-86 178t-149.5 101.5t-218 33q-129 0 -220.5 -33t-149.5 -101.5t-85 -178t-27 -263.5z" />
<glyph unicode="&#x41f;" horiz-adv-x="1513" d="M94 1300l15 76h1234v-1376h-169v1243h-830v-1243h-168v1247q0 18 -20 27z" />
<glyph unicode="&#x420;" horiz-adv-x="1284" d="M94 1300l15 76h608q256 0 369.5 -100t113.5 -324q0 -221 -114.5 -321.5t-368.5 -100.5h-377v-530h-164v1247q0 18 -20 27zM340 664h365q176 0 252.5 67.5t76.5 220.5q0 154 -76.5 221.5t-252.5 67.5h-365v-577z" />
<glyph unicode="&#x421;" horiz-adv-x="1236" d="M100 688q0 188 38 323.5t118 221.5t204 127t296 41q133 0 241.5 -18.5t157.5 -34.5l-25 -134q-78 23 -167 36.5t-185 13.5q-133 0 -228 -33t-156.5 -101.5t-90.5 -178t-29 -263.5t29 -263.5t90.5 -178t156.5 -101t228 -32.5q96 0 186.5 13t180.5 40v-139 q-178 -51 -389 -52q-172 0 -296 41t-204 127t-118 221.5t-38 323.5z" />
<glyph unicode="&#x422;" horiz-adv-x="1214" d="M43 1241v135h1128v-135h-479v-1241h-170v1241h-479z" />
<glyph unicode="&#x423;" horiz-adv-x="1259" d="M57 1376h185l432 -839l385 839h178l-504 -1067q-43 -90 -88 -153.5t-98 -103.5t-120 -58.5t-153 -18.5q-82 0 -155 19v139q70 -20 143 -20q106 0 178 51t125 164l27 53z" />
<glyph unicode="&#x424;" horiz-adv-x="1607" d="M84 700q0 295 155.5 440.5t485.5 155.5v179h158v-179q330 -10 485.5 -155.5t155.5 -440.5t-156 -440t-485 -156v-202h-158v202q-330 10 -485.5 156t-155.5 440zM246 700q0 -229 115.5 -340.5t363.5 -121.5v925q-248 -10 -363.5 -122t-115.5 -341zM883 238 q248 10 364.5 121.5t116.5 340.5t-117 341t-364 122v-925z" />
<glyph unicode="&#x425;" horiz-adv-x="1325" d="M59 0l498 700l-479 676h186l400 -563l397 563h190l-481 -676l496 -700h-191l-411 588l-414 -588h-191z" />
<glyph unicode="&#x426;" horiz-adv-x="1591" d="M94 1300l15 76h217q18 0 18 -20v-1223h830v1243h169v-1243h189v-461h-156v328h-1200v1247q0 18 -20 27z" />
<glyph unicode="&#x427;" horiz-adv-x="1382" d="M51 1300l15 76h217q18 0 18 -20v-330q0 -184 88 -267t289 -83q88 0 179 12t185 35v653h170v-1376h-170v592q-104 -25 -202.5 -38t-198.5 -13q-268 0 -388 113.5t-120 359.5v233q0 18 -20 27z" />
<glyph unicode="&#x428;" horiz-adv-x="2136" d="M94 1300l15 76h217q18 0 18 -20v-1223h641v1243h170v-1243h641v1243h170v-1376h-1790v1247q0 18 -20 27z" />
<glyph unicode="&#x429;" horiz-adv-x="2213" d="M94 1300l15 76h217q18 0 18 -20v-1223h641v1243h170v-1243h641v1243h170v-1243h188v-461h-155v328h-1823v1247q0 18 -20 27z" />
<glyph unicode="&#x42a;" horiz-adv-x="1607" d="M43 1243v133h637v-530h360q254 0 369 -100.5t115 -321.5q0 -223 -115 -323.5t-369 -100.5h-524v1243h-473zM680 133h348q176 0 253 68.5t77 222.5t-77 221.5t-253 67.5h-348v-580z" />
<glyph unicode="&#x42b;" horiz-adv-x="1794" d="M94 1300l15 76h213q18 0 18 -20v-510h377q254 0 368.5 -100.5t114.5 -321.5q0 -223 -114.5 -323.5t-368.5 -100.5h-541v1247q0 18 -20 27zM340 133h365q176 0 252.5 68.5t76.5 222.5t-76.5 221.5t-252.5 67.5h-365v-580zM1374 1300l15 76h217q18 0 18 -20v-1356h-168 v1247q0 18 -20 27z" />
<glyph unicode="&#x42c;" horiz-adv-x="1284" d="M94 1300l15 76h213q18 0 18 -20v-510h377q254 0 368.5 -100.5t114.5 -321.5q0 -223 -114.5 -323.5t-368.5 -100.5h-541v1247q0 18 -20 27zM340 133h365q176 0 252.5 68.5t76.5 222.5t-76.5 221.5t-252.5 67.5h-365v-580z" />
<glyph unicode="&#x42d;" horiz-adv-x="1239" d="M86 1350q78 23 174 37t225 14q172 0 296 -41t203 -127t117 -221t38 -324q0 -188 -38 -323.5t-117 -221.5t-203 -127t-296 -41q-211 0 -391 52v133q184 -53 367 -54q129 0 223 30t155.5 94.5t93.5 165t36 241.5h-727v127h725q-14 268 -135 386t-371 118q-94 0 -176 -12.5 t-174 -38.5z" />
<glyph unicode="&#x42e;" horiz-adv-x="1986" d="M94 1300l15 76h213q18 0 18 -20v-588h274q14 334 166 483.5t469 149.5q168 0 289 -41t199 -127t113.5 -221t35.5 -324q0 -188 -35.5 -323.5t-113.5 -221.5t-199 -127t-289 -41q-162 0 -279.5 38t-195.5 118t-117 204t-43 298h-274v-633h-164v1247q0 18 -20 27zM778 688 q0 -154 26.5 -263.5t84 -178t146.5 -101t214 -32.5t214 32.5t146.5 101t84 178.5t26.5 263q0 154 -26.5 263.5t-84 178t-146.5 101.5t-214 33t-214 -33t-146.5 -101.5t-84 -178t-26.5 -263.5z" />
<glyph unicode="&#x42f;" horiz-adv-x="1312" d="M90 0l367 582q-176 18 -258 111t-82 276q0 109 26.5 185.5t83 125.5t145.5 72.5t214 23.5h557v-1376h-164v563h-352l-351 -563h-186zM285 969q0 -150 73.5 -212.5t245.5 -62.5h375v551h-375q-172 0 -245.5 -63.5t-73.5 -212.5z" />
<glyph unicode="&#x430;" horiz-adv-x="1085" d="M90 268q0 152 95.5 221.5t306.5 69.5q164 0 290 -43v137q0 129 -68.5 183.5t-228.5 54.5q-154 0 -307 -49v131q78 23 158 35t168 12q231 0 333.5 -89t102.5 -290v-502q0 -12 3 -18t13 -10l62 -27l-17 -84h-170q-10 0 -13 2t-5 14l-8 86q-90 -127 -336 -127 q-197 0 -288 71t-91 222zM252 270q0 -92 59.5 -134t188.5 -42q147 0 214.5 52.5t67.5 164.5v90q-115 45 -266 45q-141 0 -202.5 -39.5t-61.5 -136.5z" />
<glyph unicode="&#x431;" horiz-adv-x="1159" d="M106 559q0 221 30 380t96.5 263.5t171 160.5t253.5 73q98 10 189.5 22t148.5 23l-26 -146q-55 -14 -134 -21t-159 -18q-100 -12 -169 -42.5t-113 -83t-69.5 -126t-37.5 -170.5q70 66 161 100t195 34q219 0 324.5 -125t105.5 -391q0 -270 -113.5 -393.5t-361.5 -123.5 q-129 0 -222 33t-152.5 103.5t-88.5 181t-29 266.5zM274 545q0 -115 15.5 -197t52.5 -136t99.5 -80t156.5 -26q162 0 234.5 89.5t72.5 296.5t-70.5 296t-230.5 89q-53 0 -101 -11.5t-89 -29t-75 -39t-56 -39.5q-4 -39 -6.5 -87t-2.5 -126z" />
<glyph unicode="&#x432;" horiz-adv-x="1073" d="M74 911l16 84h553q160 0 231.5 -64.5t71.5 -205.5q0 -164 -129 -209q162 -45 162 -240q0 -147 -75 -211.5t-245 -64.5h-507v856q0 12 -3.5 18.5t-13.5 10.5zM305 117h320q104 0 149 38t45 128t-45 128t-149 38h-320v-332zM305 563h303q98 0 139 37t41 121q0 86 -40.5 122 t-139.5 36h-303v-316z" />
<glyph unicode="&#x433;" horiz-adv-x="856" d="M74 911l16 84h723v-129h-500v-866h-161v856q0 12 -3.5 18.5t-13.5 10.5z" />
<glyph unicode="&#x434;" horiz-adv-x="1259" d="M43 127h96q43 25 74 65.5t49.5 103t26.5 148.5t8 203v209q0 12 -3 18.5t-13 10.5l-62 26l17 84h802v-868h162v-422h-151v295h-854v-295h-152v422zM340 127h541v739h-428v-231q0 -106 -6.5 -186t-19.5 -140.5t-34.5 -104.5t-52.5 -77z" />
<glyph unicode="&#x435;" horiz-adv-x="1071" d="M86 498q0 137 27.5 236.5t85 163t146.5 93t214 29.5q227 0 328.5 -120t101.5 -386v-32.5t-2 -30.5h-739q6 -186 95 -266.5t290 -80.5q158 0 317 50v-131q-76 -25 -156.5 -36.5t-172.5 -11.5q-281 0 -408 123.5t-127 399.5zM248 563h583q-4 180 -66.5 259t-205.5 79 q-160 0 -233.5 -79t-77.5 -259z" />
<glyph unicode="&#x436;" horiz-adv-x="1515" d="M43 0l446 537l-436 458h187l442 -469v469h149v-469l443 469h188l-436 -458l447 -537h-187l-366 438l-89 -96v-342h-149v342l-88 96l-365 -438h-186z" />
<glyph unicode="&#x437;" horiz-adv-x="952" d="M80 27v127q162 -55 330 -56q152 0 219 41t67 135q0 100 -65.5 138.5t-216.5 38.5h-187v110h187q131 0 191.5 38t60.5 130t-60.5 130t-195.5 38q-80 0 -150 -14.5t-147 -38.5l-25 125q76 23 163 37t177 14q211 0 306 -65.5t95 -211.5q0 -94 -35.5 -150t-125.5 -79 q102 -25 148 -85t46 -169q0 -150 -103.5 -217.5t-330.5 -67.5q-193 0 -348 52z" />
<glyph unicode="&#x438;" horiz-adv-x="1167" d="M74 911l16 84h195q18 0 18 -20v-754l559 774h162v-995h-152v774l-561 -774h-159v856q0 12 -3.5 18.5t-13.5 10.5z" />
<glyph unicode="&#x439;" horiz-adv-x="1167" d="M74 911l16 84h195q18 0 18 -20v-754l559 774h162v-995h-152v774l-561 -774h-159v856q0 12 -3.5 18.5t-13.5 10.5zM276 1442h119q0 -104 44 -148.5t149 -44.5q104 0 148 44t44 149h119q0 -162 -73.5 -233.5t-237.5 -71.5t-238 71.5t-74 233.5z" />
<glyph unicode="&#x43a;" horiz-adv-x="1009" d="M74 911l16 84h201q18 0 18 -20v-447l453 467h190l-442 -458l459 -537h-195l-368 432l-97 -96v-336h-157v856q0 12 -3.5 18.5t-13.5 10.5z" />
<glyph unicode="&#x43b;" horiz-adv-x="1193" d="M43 -14v133q10 -2 19.5 -2h11.5q119 0 172 124t53 406v209q0 12 -3 18.5t-13 10.5l-62 26l17 84h813v-995h-164v866h-430v-231q0 -174 -20.5 -298t-65.5 -202t-117 -114.5t-172 -36.5h-16.5t-22.5 2z" />
<glyph unicode="&#x43c;" horiz-adv-x="1298" d="M74 911l16 84h182q27 0 38.5 -7t33.5 -44l309 -481l340 532h162v-995h-151v762l-302 -459h-34q-23 0 -37.5 1t-23.5 5t-16 13.5t-20 27.5l-268 412v-762h-151v856q0 12 -3.5 18.5t-13.5 10.5z" />
<glyph unicode="&#x43d;" horiz-adv-x="1167" d="M74 911l16 84h205q18 0 18 -20v-406h547v426h164v-995h-164v442h-547v-442h-161v856q0 12 -3.5 18.5t-13.5 10.5z" />
<glyph unicode="&#x43e;" horiz-adv-x="1153" d="M86 498q0 274 116.5 398t375.5 124q258 0 373.5 -124t115.5 -398q0 -276 -115.5 -399.5t-373.5 -123.5t-375 123.5t-117 399.5zM254 498q0 -209 76 -300.5t248 -91.5q170 0 245.5 91.5t75.5 300.5t-75.5 300t-245.5 91q-172 0 -248 -91t-76 -300z" />
<glyph unicode="&#x43f;" horiz-adv-x="1167" d="M74 911l16 84h934v-995h-164v866h-547v-866h-161v856q0 12 -3.5 18.5t-13.5 10.5z" />
<glyph unicode="&#x440;" horiz-adv-x="1163" d="M74 911l16 84h207q18 0 18 -20v-82q47 61 123 94t207 33q227 0 329.5 -123t102.5 -399t-102.5 -399.5t-329.5 -123.5q-123 0 -199.5 31t-130.5 78v-510h-163v1282q0 12 -3.5 18.5t-13.5 10.5zM315 201q49 -39 120 -67t171 -28q162 0 232.5 91.5t70.5 300.5t-70.5 300 t-232.5 91q-156 0 -223.5 -65.5t-67.5 -219.5v-403z" />
<glyph unicode="&#x441;" horiz-adv-x="948" d="M86 498q0 274 116.5 398t375.5 124q111 0 185.5 -13.5t115.5 -29.5l-27 -127q-43 16 -104.5 27.5t-147.5 11.5q-184 0 -265 -91t-81 -300t81 -300.5t265 -91.5q139 0 268 41v-133q-125 -39 -290 -39q-258 0 -375 123.5t-117 399.5z" />
<glyph unicode="&#x442;" horiz-adv-x="931" d="M43 866v129h846v-129h-340v-866h-164v866h-342z" />
<glyph unicode="&#x443;" horiz-adv-x="1024" d="M20 995h179l329 -796l285 796h174l-426 -1134q-33 -88 -67.5 -147.5t-79.5 -96.5t-101.5 -52.5t-132.5 -15.5h-33.5t-33.5 5v127q14 -2 29.5 -2.5t25.5 -0.5q47 0 83 10.5t64.5 34t51 63.5t45.5 99l39 109z" />
<glyph unicode="&#x444;" horiz-adv-x="1423" d="M74 498q0 258 134 383t431 135v287q0 12 -3 18t-13 10l-62 27l17 84h190q18 0 18 -21v-405q295 -10 429.5 -135t134.5 -383q0 -260 -134.5 -385t-429.5 -136v-264q0 -12 3.5 -18t13.5 -10l61 -27l-16 -84h-191q-18 0 -18 20v383q-297 10 -431 135.5t-134 385.5zM229 498 q0 -201 96.5 -291t313.5 -98v776q-217 -6 -313.5 -97t-96.5 -290zM786 109q213 8 310.5 98t97.5 291q0 199 -96.5 290t-311.5 97v-776z" />
<glyph unicode="&#x445;" horiz-adv-x="1024" d="M55 0l357 506l-344 489h176l268 -387l270 387h174l-344 -489l357 -506h-181l-276 401l-283 -401h-174z" />
<glyph unicode="&#x446;" horiz-adv-x="1239" d="M68 911l16 84h205q18 0 18 -20v-848h547v868h164v-868h162v-422h-152v295h-883v856q0 12 -3 18.5t-13 10.5z" />
<glyph unicode="&#x447;" horiz-adv-x="1095" d="M23 911l16 84h207q18 0 18 -20v-232q0 -127 61.5 -181t206.5 -54q68 0 131.5 10t124.5 27v450h164v-995h-164v420q-70 -20 -140 -31.5t-146 -11.5q-213 0 -307.5 84t-94.5 270v125q0 12 -3 18.5t-13 10.5z" />
<glyph unicode="&#x448;" horiz-adv-x="1724" d="M74 911l16 84h205q18 0 18 -20v-848h471v868h164v-868h469v868h164v-995h-1429v856q0 12 -3.5 18.5t-13.5 10.5z" />
<glyph unicode="&#x449;" horiz-adv-x="1802" d="M74 911l16 84h205q18 0 18 -20v-848h471v868h164v-868h469v868h164v-868h162v-422h-152v295h-1439v856q0 12 -3.5 18.5t-13.5 10.5z" />
<glyph unicode="&#x44a;" horiz-adv-x="1247" d="M43 866v129h487v-372h289q188 0 271.5 -73t83.5 -239t-83 -238.5t-272 -72.5h-446v866h-330zM530 123h265q117 0 168 42t51 146q0 102 -51.5 145.5t-167.5 43.5h-265v-377z" />
<glyph unicode="&#x44b;" horiz-adv-x="1488" d="M74 911l16 84h201q18 0 18 -20v-352h297q188 0 272.5 -73t84.5 -239t-84 -238.5t-273 -72.5h-454v856q0 12 -3.5 18.5t-13.5 10.5zM309 123h275q117 0 167 43t50 145t-50.5 145.5t-166.5 43.5h-275v-377zM1104 911l16 84h205q18 0 18 -20v-975h-161v856q0 12 -3 18.5 t-14 10.5z" />
<glyph unicode="&#x44c;" horiz-adv-x="1036" d="M74 911l16 84h201q18 0 18 -20v-352h297q188 0 272.5 -73t84.5 -239t-84 -238.5t-273 -72.5h-454v856q0 12 -3.5 18.5t-13.5 10.5zM309 123h275q117 0 167 43t50 145t-50.5 145.5t-166.5 43.5h-275v-377z" />
<glyph unicode="&#x44d;" horiz-adv-x="948" d="M80 14v127q129 -41 268 -41q174 0 255 81t91 268h-516v114h514q-12 176 -92 254t-252 78q-70 0 -124 -10.5t-118 -30.5l-26 127q125 39 293 39q258 0 373.5 -128t115.5 -394q0 -262 -115.5 -392.5t-373.5 -130.5q-168 0 -293 39z" />
<glyph unicode="&#x44e;" horiz-adv-x="1583" d="M74 911l16 84h201q18 0 18 -20v-406h244q14 238 127 344.5t344 106.5q248 0 360.5 -124t112.5 -398q0 -276 -112.5 -399.5t-360.5 -123.5q-236 0 -348.5 111t-122.5 356h-244v-442h-157v856q0 12 -3.5 18.5t-13.5 10.5zM711 498q0 -209 72.5 -300.5t240.5 -91.5 q166 0 238.5 91.5t72.5 300.5t-72.5 300t-238.5 91q-168 0 -240.5 -91t-72.5 -300z" />
<glyph unicode="&#x44f;" horiz-adv-x="1062" d="M80 0l256 408q-229 33 -230 284q0 160 84 231.5t271 71.5h459v-995h-156v389h-275l-235 -389h-174zM264 692q0 -98 49 -140t164 -42h287v362h-287q-115 0 -164 -40.5t-49 -139.5z" />
<glyph unicode="&#x450;" horiz-adv-x="1083" d="M86 498q0 137 27.5 236.5t85 163t146.5 93t214 29.5q227 0 328.5 -120t101.5 -386v-32.5t-2 -30.5h-739q6 -186 95 -266.5t290 -80.5q158 0 317 50v-131q-76 -25 -156.5 -36.5t-172.5 -11.5q-281 0 -408 123.5t-127 399.5zM238 1442h178l248 -287h-152zM248 563h583 q-4 180 -66.5 259t-205.5 79q-160 0 -233.5 -79t-77.5 -259z" />
<glyph unicode="&#x451;" horiz-adv-x="1083" d="M86 498q0 137 27.5 236.5t85 163t146.5 93t214 29.5q227 0 328.5 -120t101.5 -386v-32.5t-2 -30.5h-739q6 -186 95 -266.5t290 -80.5q158 0 317 50v-131q-76 -25 -156.5 -36.5t-172.5 -11.5q-281 0 -408 123.5t-127 399.5zM248 563h583q-4 180 -66.5 259t-205.5 79 q-160 0 -233.5 -79t-77.5 -259zM252 1298q0 100 102 101q55 0 79.5 -23.5t24.5 -77.5q0 -53 -24.5 -76.5t-79.5 -23.5q-102 0 -102 100zM659 1298q0 53 24.5 77t80.5 24q102 0 102 -101q0 -100 -102 -100q-55 0 -80 23.5t-25 76.5z" />
<glyph unicode="&#x452;" horiz-adv-x="1150" d="M10 1145v110h135v48q0 12 -3 18t-13 10l-61 27l16 84h207q18 0 18 -21v-166h363v-110h-363v-240q53 49 133 82t191 33q207 0 296 -92t89 -303v-752q0 -172 -79 -248t-255 -76q-92 0 -172 19v131q35 -8 72 -13t75 -5q104 0 149.5 46t45.5 152v742q0 145 -57.5 204.5 t-192.5 59.5q-49 0 -95 -7.5t-85 -18.5t-68.5 -23.5t-46.5 -24.5v-811h-164v1145h-135z" />
<glyph unicode="&#x453;" horiz-adv-x="856" d="M74 911l16 84h723v-129h-500v-866h-161v856q0 12 -3.5 18.5t-13.5 10.5zM362 1155l248 287h178l-274 -287h-152z" />
<glyph unicode="&#x454;" horiz-adv-x="948" d="M86 498q0 262 116.5 392t375.5 130q82 0 161.5 -10.5t139.5 -32.5l-27 -127q-39 14 -102.5 27.5t-149.5 13.5q-172 0 -252 -76t-92 -252h514v-114h-516q10 -186 91 -267.5t255 -81.5q139 0 268 41v-127q-125 -39 -290 -39q-258 0 -375 128t-117 395z" />
<glyph unicode="&#x455;" horiz-adv-x="952" d="M102 733q0 145 104.5 216t291.5 71q86 0 165.5 -11.5t155.5 -33.5l-26 -127q-137 45 -287 45q-127 0 -186.5 -40t-59.5 -118q0 -61 44 -91t111.5 -47t144.5 -31.5t144.5 -46.5t111.5 -87t44 -156q0 -150 -103.5 -225.5t-295.5 -75.5q-193 0 -348 50v133q162 -55 336 -56 q131 0 192 45.5t61 126.5q0 68 -44 101t-111.5 51t-144 31.5t-144.5 42t-112 82t-44 151.5z" />
<glyph unicode="&#x456;" horiz-adv-x="471" d="M84 911l16 84h207q18 0 19 -20v-975h-164v856q0 12 -3 18.5t-14 10.5zM133 1298q0 55 24.5 80t82.5 25q55 0 80.5 -24.5t25.5 -80.5q0 -102 -106 -102q-57 0 -82 24.5t-25 77.5z" />
<glyph unicode="&#x457;" horiz-adv-x="471" d="M-84 1298q0 100 102 101q55 0 80 -23.5t25 -77.5q0 -53 -24.5 -76.5t-80.5 -23.5q-102 0 -102 100zM84 911l16 84h207q18 0 19 -20v-975h-164v856q0 12 -3 18.5t-14 10.5zM324 1298q0 53 24.5 77t79.5 24q102 0 102 -101q0 -100 -102 -100q-55 0 -79.5 23.5t-24.5 76.5z " />
<glyph unicode="&#x458;" horiz-adv-x="471" d="M-78 -313q18 -2 34.5 -2h27.5q106 0 142 51t36 153v967q0 12 -3 18.5t-14 10.5l-61 26l16 84h207q18 0 19 -20v-1086q0 -154 -72 -243.5t-240 -89.5h-44.5t-47.5 4v127zM133 1298q0 55 24.5 80t82.5 25q55 0 80.5 -24.5t25.5 -80.5q0 -102 -106 -102q-57 0 -82 24.5 t-25 77.5z" />
<glyph unicode="&#x459;" horiz-adv-x="1738" d="M43 -14v133q10 -2 19.5 -2h11.5q119 0 172 124t53 406v209q0 12 -3 18.5t-13 10.5l-62 26l17 84h790v-372h283q188 0 271 -73t83 -239t-83 -238.5t-271 -72.5h-441v866h-413v-231q0 -174 -20.5 -298t-65.5 -202t-117 -114.5t-172 -36.5h-16.5t-22.5 2zM1028 123h258 q117 0 168 43t51 145t-51 145.5t-168 43.5h-258v-377z" />
<glyph unicode="&#x45a;" horiz-adv-x="1712" d="M74 911l16 84h201q18 0 18 -20v-391h535v411h157v-411h306q176 0 253.5 -69t77.5 -222q0 -154 -77.5 -223.5t-253.5 -69.5h-463v457h-535v-457h-157v856q0 12 -3.5 18.5t-13.5 10.5zM1001 117h273q111 0 158 41t47 135t-47.5 134t-157.5 40h-273v-350z" />
<glyph unicode="&#x45b;" horiz-adv-x="1161" d="M10 1145v110h135v48q0 12 -3 18t-13 10l-61 27l16 84h207q18 0 18 -21v-166h363v-110h-363v-240q53 49 133 82t191 33q207 0 296 -92t89 -303v-486q0 -12 3 -18t13 -10l62 -27l-17 -84h-207q-18 0 -18 20v601q0 145 -57.5 204.5t-192.5 59.5q-49 0 -95 -7.5t-85 -18.5 t-68.5 -23.5t-46.5 -24.5v-811h-164v1145h-135z" />
<glyph unicode="&#x45c;" horiz-adv-x="989" d="M74 911l16 84h201q18 0 18 -20v-447l453 467h190l-442 -458l459 -537h-195l-368 432l-97 -96v-336h-157v856q0 12 -3.5 18.5t-13.5 10.5zM387 1155l248 287h178l-274 -287h-152z" />
<glyph unicode="&#x45d;" horiz-adv-x="1167" d="M74 911l16 84h195q18 0 18 -20v-754l559 774h162v-995h-152v774l-561 -774h-159v856q0 12 -3.5 18.5t-13.5 10.5zM270 1442h179l247 -287h-151z" />
<glyph unicode="&#x45e;" horiz-adv-x="1024" d="M20 995h179l329 -796l285 796h174l-426 -1134q-33 -88 -67.5 -147.5t-79.5 -96.5t-101.5 -52.5t-132.5 -15.5h-33.5t-33.5 5v127q14 -2 29.5 -2.5t25.5 -0.5q47 0 83 10.5t64.5 34t51 63.5t45.5 99l39 109zM211 1442h119q0 -104 44 -148.5t148 -44.5t148.5 44t44.5 149 h119q0 -162 -74 -233.5t-238 -71.5t-237.5 71.5t-73.5 233.5z" />
<glyph unicode="&#x45f;" horiz-adv-x="1167" d="M74 911l16 84h205q18 0 18 -20v-848h547v868h164v-995h-360v-295h-152v295h-360v856q0 12 -3.5 18.5t-13.5 10.5z" />
<glyph unicode="&#x490;" horiz-adv-x="1054" d="M94 1300l15 76h745v328h158v-461h-668v-1243h-168v1247q0 18 -20 27z" />
<glyph unicode="&#x491;" horiz-adv-x="856" d="M74 911l16 84h572v295h151v-424h-500v-866h-161v856q0 12 -3.5 18.5t-13.5 10.5z" />
<glyph unicode="&#x492;" horiz-adv-x="1083" d="M27 588v121h178v538q0 18 -21 27l-61 26l14 76h903v-133h-667v-534h401v-121h-401v-588h-168v588h-178z" />
<glyph unicode="&#x493;" horiz-adv-x="888" d="M16 406v116h168v334q0 12 -3 18.5t-13 10.5l-62 26l17 84h723v-129h-500v-344h287v-116h-287v-406h-162v406h-168z" />
<glyph unicode="&#x49a;" horiz-adv-x="1361" d="M94 1300l15 76h219q18 0 18 -20v-654l643 674h197l-600 -637l516 -606h233v-461h-155v328h-174l-525 633l-135 -139v-494h-170v1247q0 18 -20 27z" />
<glyph unicode="&#x49b;" horiz-adv-x="1093" d="M74 911l16 84h201q18 0 18 -20v-443l441 463h190l-432 -458l336 -410h223v-422h-152v295h-153l-356 434l-97 -98v-336h-157v856q0 12 -3.5 18.5t-13.5 10.5z" />
<glyph unicode="&#x4a2;" horiz-adv-x="1591" d="M94 1300l15 76h217q18 0 18 -20v-588h830v608h169v-1243h189v-461h-156v328h-202v633h-830v-633h-168v1247q0 18 -20 27z" />
<glyph unicode="&#x4a3;" horiz-adv-x="1245" d="M74 911l16 84h205q18 0 18 -20v-406h547v426h164v-868h162v-422h-152v295h-174v442h-547v-442h-161v856q0 12 -3.5 18.5t-13.5 10.5z" />
<glyph unicode="&#x4ae;" horiz-adv-x="1226" d="M25 1376h188l403 -641l400 641h188l-506 -788v-588h-170v588z" />
<glyph unicode="&#x4af;" horiz-adv-x="1042" d="M47 995h172l303 -829l301 829h172l-393 -1018v-403h-162v403z" />
<glyph unicode="&#x4b0;" horiz-adv-x="1251" d="M37 1376h188l404 -641l399 641h189l-461 -712h299v-123h-344v-541h-170v541h-344v123h299z" />
<glyph unicode="&#x4b1;" horiz-adv-x="1058" d="M55 995h172l303 -829l301 829h173l-355 -909h277v-115h-316v-397h-161v397h-295v115h256z" />
<glyph unicode="&#x4ba;" horiz-adv-x="1382" d="M94 1300l15 76h217q18 0 18 -20v-572q104 25 202.5 38.5t198.5 13.5q268 0 389 -114t121 -360v-362h-170v350q0 184 -88 267t-286 83q-92 0 -183.5 -12t-183.5 -35v-653h-168v1247q0 18 -20 27z" />
<glyph unicode="&#x4bb;" horiz-adv-x="1155" d="M61 1358l17 84h207q18 0 18 -21v-516q53 49 133 82t191 33q207 0 296 -92t89 -303v-486q0 -12 3 -18t13 -10l62 -27l-17 -84h-207q-18 0 -18 20v601q0 145 -57.5 204.5t-192.5 59.5q-49 0 -95 -7.5t-85 -18.5t-69 -23.5t-46 -24.5v-811h-164v1303q0 12 -3 18t-13 10z" />
<glyph unicode="&#x4d8;" horiz-adv-x="1398" d="M100 659q0 20 1 39t3 39h1024q-2 143 -33.5 243.5t-97 165t-169 94.5t-248.5 30q-117 0 -216.5 -19.5t-191.5 -50.5l-25 133q86 29 202 48.5t243 19.5q186 0 320.5 -41t220.5 -127t125.5 -221.5t39.5 -323.5t-35.5 -323.5t-111.5 -221.5t-193.5 -127t-283.5 -41 q-152 0 -260.5 39t-178 122t-102.5 212t-33 311zM268 614q2 -139 25.5 -236t73 -158.5t125.5 -90.5t182 -29q119 0 203 29t139 91.5t81.5 159.5t30.5 234h-860z" />
<glyph unicode="&#x4d9;" horiz-adv-x="1075" d="M86 481q0 16 1 31.5t1 32.5h741q-4 92 -23.5 157.5t-62.5 107.5t-110.5 61.5t-167.5 19.5q-80 0 -161 -15.5t-142 -37.5l-29 127q156 55 344 55q141 0 238.5 -29.5t158 -93t88 -163t27.5 -236.5q0 -276 -111.5 -399.5t-361.5 -123.5q-115 0 -195.5 29t-133 90.5 t-77 157.5t-24.5 229zM244 434q2 -182 65.5 -261t206.5 -79q160 0 233.5 80t79.5 260h-585z" />
<glyph unicode="&#x4e8;" horiz-adv-x="1509" d="M100 688q0 188 38 323.5t118 221.5t204 127t296 41t296 -41t203.5 -127t116.5 -221t37 -324q0 -188 -37 -323.5t-116.5 -221.5t-203.5 -127t-296 -41t-296 41t-204 127t-118 221.5t-38 323.5zM262 637q4 -141 35 -241.5t90 -165t150.5 -94.5t218.5 -30q125 0 216 30 t150.5 94.5t90 165t34.5 241.5h-985zM264 764h983q-14 268 -130.5 387t-360.5 119q-246 0 -363 -119t-129 -387z" />
<glyph unicode="&#x4e9;" horiz-adv-x="1153" d="M86 498q0 274 116.5 398t375.5 124q258 0 373.5 -124t115.5 -398q0 -276 -115.5 -399.5t-373.5 -123.5t-375 123.5t-117 399.5zM238 444q10 -186 89 -268t251 -82q170 0 248.5 82t88.5 268h-677zM238 559h677q-10 182 -89.5 262t-247.5 80t-249 -80t-91 -262z" />
<glyph unicode="&#x1e80;" horiz-adv-x="1994" d="M82 1376h168q8 -49 23.5 -114.5t34 -143.5t41 -163t44.5 -171q51 -195 100.5 -350t90.5 -260h4q41 104 88 260t100 350q23 86 45.5 168t41 156t32.5 135.5t25 104.5h157q18 -92 57.5 -241t86.5 -323q53 -195 100 -350t88 -260h4q41 104 90 260t101 350q23 86 45 171 t40.5 163t33 143.5t24.5 114.5h166q-27 -135 -70 -308t-97 -358.5t-114.5 -369.5t-122.5 -340h-190q-98 262 -176 510q-23 68 -44.5 146.5t-40 157.5t-34.5 152.5t-25 135.5h-2q-10 -61 -25.5 -135t-34.5 -153t-41 -157.5t-42 -146.5q-37 -123 -82 -251t-94 -259h-191 q-61 156 -122.5 340t-115.5 369.5t-97 358.5t-70 308zM692 1802h178l248 -287h-151z" />
<glyph unicode="&#x1e81;" horiz-adv-x="1632" d="M49 995h164q14 -49 30.5 -107.5t35 -116.5t36 -115.5t31.5 -102.5q35 -111 70 -214t65 -189h4q31 86 67 189t71 214q14 45 30.5 98.5t31.5 108.5t30.5 108.5t27.5 102.5h146q12 -49 27.5 -102.5t32 -108.5t32.5 -108.5t31 -98.5q35 -111 70.5 -214t66.5 -189h4 q31 86 65.5 189t69.5 214q14 45 31.5 102.5t36 115.5t35 116.5t30.5 107.5h162q-35 -119 -77 -254t-88 -269t-93 -256t-88 -216h-178q-35 78 -71 177t-73 210q-14 41 -28.5 90t-27.5 99.5t-24.5 95.5t-17.5 80h-2q-6 -35 -17.5 -80t-24.5 -95.5t-27.5 -99.5t-28.5 -90 q-37 -111 -73 -210t-71 -177h-178q-41 94 -88 216t-93 256t-89 269.5t-76 253.5zM477 1442h178l248 -287h-151z" />
<glyph unicode="&#x1e82;" horiz-adv-x="1994" d="M82 1376h168q8 -49 23.5 -114.5t34 -143.5t41 -163t44.5 -171q51 -195 100.5 -350t90.5 -260h4q41 104 88 260t100 350q23 86 45.5 168t41 156t32.5 135.5t25 104.5h157q18 -92 57.5 -241t86.5 -323q53 -195 100 -350t88 -260h4q41 104 90 260t101 350q23 86 45 171 t40.5 163t33 143.5t24.5 114.5h166q-27 -135 -70 -308t-97 -358.5t-114.5 -369.5t-122.5 -340h-190q-98 262 -176 510q-23 68 -44.5 146.5t-40 157.5t-34.5 152.5t-25 135.5h-2q-10 -61 -25.5 -135t-34.5 -153t-41 -157.5t-42 -146.5q-37 -123 -82 -251t-94 -259h-191 q-61 156 -122.5 340t-115.5 369.5t-97 358.5t-70 308zM901 1515l248 287h178l-274 -287h-152z" />
<glyph unicode="&#x1e83;" horiz-adv-x="1632" d="M49 995h164q14 -49 30.5 -107.5t35 -116.5t36 -115.5t31.5 -102.5q35 -111 70 -214t65 -189h4q31 86 67 189t71 214q14 45 30.5 98.5t31.5 108.5t30.5 108.5t27.5 102.5h146q12 -49 27.5 -102.5t32 -108.5t32.5 -108.5t31 -98.5q35 -111 70.5 -214t66.5 -189h4 q31 86 65.5 189t69.5 214q14 45 31.5 102.5t36 115.5t35 116.5t30.5 107.5h162q-35 -119 -77 -254t-88 -269t-93 -256t-88 -216h-178q-35 78 -71 177t-73 210q-14 41 -28.5 90t-27.5 99.5t-24.5 95.5t-17.5 80h-2q-6 -35 -17.5 -80t-24.5 -95.5t-27.5 -99.5t-28.5 -90 q-37 -111 -73 -210t-71 -177h-178q-41 94 -88 216t-93 256t-89 269.5t-76 253.5zM702 1155l248 287h178l-274 -287h-152z" />
<glyph unicode="&#x1e84;" horiz-adv-x="1994" d="M82 1376h168q8 -49 23.5 -114.5t34 -143.5t41 -163t44.5 -171q51 -195 100.5 -350t90.5 -260h4q41 104 88 260t100 350q23 86 45.5 168t41 156t32.5 135.5t25 104.5h157q18 -92 57.5 -241t86.5 -323q53 -195 100 -350t88 -260h4q41 104 90 260t101 350q23 86 45 171 t40.5 163t33 143.5t24.5 114.5h166q-27 -135 -70 -308t-97 -358.5t-114.5 -369.5t-122.5 -340h-190q-98 262 -176 510q-23 68 -44.5 146.5t-40 157.5t-34.5 152.5t-25 135.5h-2q-10 -61 -25.5 -135t-34.5 -153t-41 -157.5t-42 -146.5q-37 -123 -82 -251t-94 -259h-191 q-61 156 -122.5 340t-115.5 369.5t-97 358.5t-70 308zM693 1658q0 100 102 101q55 0 79.5 -23.5t24.5 -77.5q0 -53 -24.5 -76.5t-79.5 -23.5q-102 0 -102 100zM1100 1658q0 53 24.5 77t80.5 24q102 0 102 -101q0 -100 -102 -100q-55 0 -80 23.5t-25 76.5z" />
<glyph unicode="&#x1e85;" horiz-adv-x="1632" d="M49 995h164q14 -49 30.5 -107.5t35 -116.5t36 -115.5t31.5 -102.5q35 -111 70 -214t65 -189h4q31 86 67 189t71 214q14 45 30.5 98.5t31.5 108.5t30.5 108.5t27.5 102.5h146q12 -49 27.5 -102.5t32 -108.5t32.5 -108.5t31 -98.5q35 -111 70.5 -214t66.5 -189h4 q31 86 65.5 189t69.5 214q14 45 31.5 102.5t36 115.5t35 116.5t30.5 107.5h162q-35 -119 -77 -254t-88 -269t-93 -256t-88 -216h-178q-35 78 -71 177t-73 210q-14 41 -28.5 90t-27.5 99.5t-24.5 95.5t-17.5 80h-2q-6 -35 -17.5 -80t-24.5 -95.5t-27.5 -99.5t-28.5 -90 q-37 -111 -73 -210t-71 -177h-178q-41 94 -88 216t-93 256t-89 269.5t-76 253.5zM508 1298q0 100 102 101q55 0 79.5 -23.5t24.5 -77.5q0 -53 -24.5 -76.5t-79.5 -23.5q-102 0 -102 100zM915 1298q0 53 24.5 77t80.5 24q102 0 102 -101q0 -100 -102 -100q-55 0 -80 23.5 t-25 76.5z" />
<glyph unicode="&#x1e9e;" horiz-adv-x="1509" d="M172 0v827q0 150 37 258.5t115.5 179t201.5 103.5t295 33q139 0 268.5 -13.5t253.5 -37.5v-109l-331 -463q207 -14 302 -108.5t95 -282.5q0 -217 -124 -314.5t-398 -97.5q-182 0 -332 37v133q78 -18 157 -28.5t165 -10.5q197 0 281.5 66t84.5 217q0 147 -86 213t-283 66 h-45v106l332 465q-164 31 -334 31q-131 0 -224 -25.5t-152.5 -80t-87 -140.5t-27.5 -207v-817h-164z" />
<glyph unicode="&#x1ef2;" horiz-adv-x="1226" d="M25 1376h188l403 -641l400 641h188l-506 -788v-588h-170v588zM297 1802h178l248 -287h-151z" />
<glyph unicode="&#x1ef3;" horiz-adv-x="1024" d="M20 995h179l329 -796l285 796h174l-426 -1134q-33 -88 -67.5 -147.5t-79.5 -96.5t-101.5 -52.5t-132.5 -15.5h-33.5t-33.5 5v127q14 -2 29.5 -2.5t25.5 -0.5q47 0 83 10.5t64.5 34t51 63.5t45.5 99l39 109zM182 1442h178l248 -287h-151z" />
<glyph unicode="&#x2000;" horiz-adv-x="1032" />
<glyph unicode="&#x2001;" horiz-adv-x="2064" />
<glyph unicode="&#x2002;" horiz-adv-x="1032" />
<glyph unicode="&#x2003;" horiz-adv-x="2064" />
<glyph unicode="&#x2004;" horiz-adv-x="688" />
<glyph unicode="&#x2005;" horiz-adv-x="516" />
<glyph unicode="&#x2006;" horiz-adv-x="344" />
<glyph unicode="&#x2007;" horiz-adv-x="344" />
<glyph unicode="&#x2008;" horiz-adv-x="258" />
<glyph unicode="&#x2009;" horiz-adv-x="412" />
<glyph unicode="&#x200a;" horiz-adv-x="114" />
<glyph unicode="&#x2010;" horiz-adv-x="655" d="M53 442v127h549v-127h-549z" />
<glyph unicode="&#x2011;" horiz-adv-x="655" d="M53 442v127h549v-127h-549z" />
<glyph unicode="&#x2012;" horiz-adv-x="655" d="M53 442v127h549v-127h-549z" />
<glyph unicode="&#x2013;" d="M53 442v127h1073v-127h-1073z" />
<glyph unicode="&#x2014;" horiz-adv-x="1769" d="M53 442v127h1663v-127h-1663z" />
<glyph unicode="&#x2018;" horiz-adv-x="473" d="M90 911l154 465h135l-119 -465h-170z" />
<glyph unicode="&#x2019;" horiz-adv-x="473" d="M96 911l117 465h172l-155 -465h-134z" />
<glyph unicode="&#x201a;" horiz-adv-x="473" d="M63 -295l117 465h172l-155 -465h-134z" />
<glyph unicode="&#x201c;" horiz-adv-x="882" d="M90 911l154 465h135l-119 -465h-170zM498 911l154 465h135l-119 -465h-170z" />
<glyph unicode="&#x201d;" horiz-adv-x="882" d="M96 911l117 465h172l-155 -465h-134zM503 911l117 465h172l-155 -465h-134z" />
<glyph unicode="&#x201e;" horiz-adv-x="882" d="M63 -295l117 465h172l-155 -465h-134zM471 -295l117 465h172l-155 -465h-134z" />
<glyph unicode="&#x2020;" horiz-adv-x="964" d="M70 911v129h342v336h141v-336h342v-129h-342v-911h-141v911h-342z" />
<glyph unicode="&#x2021;" horiz-adv-x="964" d="M70 336v129h342v446h-342v129h342v336h141v-336h342v-129h-342v-446h342v-129h-342v-336h-141v336h-342z" />
<glyph unicode="&#x2022;" horiz-adv-x="983" d="M197 590q0 61 22.5 114.5t62.5 93.5t94 63.5t116 23.5q61 0 114 -23.5t93 -63.5t63.5 -93.5t23.5 -114.5t-23.5 -115.5t-63.5 -94.5t-93 -62.5t-114 -22.5t-115.5 22.5t-94.5 62.5t-62.5 94.5t-22.5 115.5z" />
<glyph unicode="&#x2026;" horiz-adv-x="1550" d="M125 90q0 59 26.5 84t86.5 25q59 0 84.5 -24.5t25.5 -84.5q0 -59 -25.5 -83.5t-84.5 -24.5t-86 24.5t-27 83.5zM664 90q0 59 26.5 84t85.5 25t85 -24.5t26 -84.5q0 -59 -25.5 -83.5t-85.5 -24.5q-59 0 -85.5 24.5t-26.5 83.5zM1202 90q0 59 26.5 84t86.5 25 q59 0 84.5 -24.5t25.5 -84.5q0 -59 -25.5 -83.5t-84.5 -24.5t-86 24.5t-27 83.5z" />
<glyph unicode="&#x202f;" horiz-adv-x="412" />
<glyph unicode="&#x2030;" horiz-adv-x="2555" d="M90 1032q0 195 79 282t257 87t257 -87t79 -282t-79 -281.5t-257 -86.5t-257 86.5t-79 281.5zM221 1032q0 -137 47 -196.5t158 -59.5t158 59.5t47 196.5t-47 196.5t-158 59.5t-158 -59.5t-47 -196.5zM522 0l619 1376h106l-618 -1376h-107zM1008 344q0 195 78.5 282 t256.5 87t257 -87t79 -282t-78.5 -282t-257.5 -87q-178 0 -256.5 87t-78.5 282zM1139 344q0 -137 47 -196.5t157 -59.5q111 0 158 59.5t47 196.5t-47 196.5t-158 59.5t-157.5 -59.5t-46.5 -196.5zM1794 344q0 195 79 282t257 87t257 -87t79 -282t-79 -282t-257 -87t-257 87 t-79 282zM1925 344q0 -137 47 -196.5t158 -59.5t158 59.5t47 196.5t-47 196.5t-158 59.5t-158 -59.5t-47 -196.5z" />
<glyph unicode="&#x2039;" horiz-adv-x="571" d="M63 498l285 395h156l-271 -395l271 -396h-156z" />
<glyph unicode="&#x203a;" horiz-adv-x="571" d="M68 102l270 396l-270 395h155l287 -395l-287 -396h-155z" />
<glyph unicode="&#x2044;" horiz-adv-x="262" d="M-231 0l618 1376h107l-619 -1376h-106z" />
<glyph unicode="&#x205f;" horiz-adv-x="516" />
<glyph unicode="&#x20ac;" d="M96 496v104h133q-2 23 -2 44.5v43.5v56.5t2 56.5h-133v104h144q37 260 177 378t402 118q162 0 297 -39v-127q-141 41 -278 41q-195 0 -297.5 -86t-132.5 -285h524v-104h-537q-2 -27 -2 -55.5v-57.5v-45t2 -43h537v-104h-529q27 -213 130.5 -304.5t304.5 -91.5 q137 0 278 41v-127q-135 -39 -297 -39q-270 0 -409.5 123t-171.5 398h-142z" />
<glyph unicode="&#x2105;" horiz-adv-x="1769" d="M90 1044q0 184 78 266.5t254 82.5q53 0 103 -6.5t93 -20.5v-104q-86 29 -178 28q-121 0 -172 -56t-51 -190q0 -133 51 -189t172 -56q94 0 178 30v-104q-82 -27 -196 -27q-176 0 -254 81t-78 265zM489 0l619 1376h106l-618 -1376h-107zM1014 330q0 184 78.5 266t253.5 82 q174 0 252.5 -82t78.5 -266t-77.5 -265t-253.5 -81q-174 0 -253 81t-79 265zM1141 330q0 -131 47 -188.5t158 -57.5t157.5 57.5t46.5 188.5q0 133 -47 189t-157 56q-111 0 -158 -56t-47 -189z" />
<glyph unicode="&#x2113;" horiz-adv-x="780" d="M145 299v817q0 186 68 268t221 82q141 0 207 -75.5t66 -245.5q0 -184 -104.5 -340t-305.5 -283v-217q0 -106 46 -152.5t153 -46.5q39 0 76.5 5.5t76.5 13.5v-131q-78 -18 -172 -19q-176 0 -254 76t-78 248zM297 678q141 98 209.5 211t68.5 250q0 106 -30.5 151t-102.5 45 q-78 0 -111.5 -51t-33.5 -172v-434z" />
<glyph unicode="&#x2116;" horiz-adv-x="2334" d="M172 0v1376h166l844 -1140v1140h157v-1376h-165l-844 1141v-1141h-158zM1591 1047q0 184 78 265t254 81q174 0 253 -81t79 -265t-79 -266.5t-253 -82.5q-176 0 -254 82.5t-78 266.5zM1597 467v102h652v-102h-652zM1718 1047q0 -133 47 -189.5t158 -56.5t158 56t47 190 q0 131 -47 188t-158 57t-158 -57t-47 -188z" />
<glyph unicode="&#x2117;" horiz-adv-x="1703" d="M86 688q0 197 44 339t136 234.5t237.5 136.5t348.5 44t348.5 -44t237.5 -136.5t136 -234.5t44 -339t-44 -339t-136 -234t-237.5 -136.5t-348.5 -44.5t-348.5 44.5t-237.5 136.5t-136 234t-44 339zM188 688q0 -176 39 -302t121 -206t207 -117.5t297 -37.5t297 37.5 t207 117.5t121 206t39 302t-38 302t-118 206t-206 118t-302 38t-302 -38t-206 -118t-118 -206t-38 -302zM567 262v852h348q162 0 235 -62.5t73 -203.5t-73 -203.5t-235 -62.5h-227v-320h-121zM688 682h221q102 0 146.5 38t44.5 128t-44 128t-147 38h-221v-332z" />
<glyph unicode="&#x2120;" horiz-adv-x="1892" d="M88 1153q0 125 76 182.5t250 57.5q137 0 258 -35v-107q-61 18 -125 28.5t-125 10.5q-111 0 -157 -30.5t-46 -102.5q0 -55 37 -81.5t93.5 -43t121 -30t120.5 -40t93 -74.5t37 -132q0 -129 -79 -188.5t-253 -59.5q-156 0 -293 43v106q72 -23 141.5 -35t141.5 -12 q113 0 162 34t49 108q0 55 -37 84.5t-93.5 46t-121 30t-120.5 40t-93 72.5t-37 128zM924 524v852h125l297 -481l301 481h122v-852h-118v664l-262 -418h-89l-256 418v-664h-120z" />
<glyph unicode="&#x2122;" horiz-adv-x="1902" d="M49 1274v102h713v-102h-293v-750h-127v750h-293zM934 524v852h123l297 -481l301 481h125v-852h-121v664l-262 -418h-86l-258 418v-664h-119z" />
<glyph unicode="&#x2126;" horiz-adv-x="1509" d="M53 0v135h371q-160 117 -235.5 270.5t-75.5 360.5q0 168 36.5 288t115.5 196.5t200 113.5t291 37q168 0 289.5 -37t199.5 -113.5t115 -196.5t37 -288q0 -207 -76 -360.5t-236 -270.5h371v-135h-567v125q174 109 256 259.5t82 356.5q0 139 -26.5 238.5t-84 162 t-146.5 92.5t-214 30t-215 -30t-147.5 -92.5t-84 -161.5t-26.5 -239q0 -207 81.5 -357.5t256.5 -258.5v-125h-568z" />
<glyph unicode="&#x212e;" horiz-adv-x="1966" d="M197 688q0 150 61 281t169 229t250 154.5t306 56.5q162 0 305.5 -56.5t251 -154.5t168.5 -229t61 -281q0 -23 -2 -33h-1275v-401q90 -104 217 -162.5t274 -58.5q150 0 278 61.5t220 167.5h135q-109 -135 -272.5 -215t-360.5 -80q-164 0 -306 56.5t-250 154.5t-169 229.5 t-61 280.5zM492 721h983v401q-92 102 -218.5 161.5t-273.5 59.5t-274 -59t-217 -162v-401z" />
<glyph unicode="&#x2153;" horiz-adv-x="1769" d="M164 1170v104l245 102h99v-852h-125v738zM523 0l618 1376h107l-619 -1376h-106zM1093 15v100q104 -31 211 -31q125 0 181.5 37t56.5 123t-59.5 123t-194.5 37h-35v74l227 276h-378v98h526v-82l-236 -284q147 -10 212 -68.5t65 -173.5q0 -139 -84 -199.5t-273 -60.5 q-59 0 -113 7t-106 24z" />
<glyph unicode="&#x2154;" horiz-adv-x="1769" d="M77 524v91l328 317q57 55 83 102t26 95q0 86 -43 122.5t-144 36.5q-57 0 -112.5 -8t-112.5 -26v104q57 18 117.5 26.5t126.5 8.5q154 0 224.5 -59.5t70.5 -190.5q0 -66 -34 -129.5t-95 -122.5l-271 -264h404v-103h-568zM523 0l618 1376h107l-619 -1376h-106zM1093 15v100 q104 -31 211 -31q125 0 181.5 37t56.5 123t-59.5 123t-194.5 37h-35v74l227 276h-378v98h526v-82l-236 -284q147 -10 212 -68.5t65 -173.5q0 -139 -84 -199.5t-273 -60.5q-59 0 -113 7t-106 24z" />
<glyph unicode="&#x2155;" horiz-adv-x="1769" d="M164 1169v105l246 102h98v-852h-125v738zM522 0l619 1376h106l-618 -1376h-107zM1116 14v101q106 -31 211 -31q121 0 175 38t54 130q0 88 -56 125t-187 37q-49 0 -95.5 -2t-72.5 -6v446h500v-98h-385v-252q20 4 45.5 5t52.5 1q170 0 247.5 -62.5t77.5 -197.5 q0 -139 -81.5 -201.5t-264.5 -62.5q-59 0 -113.5 7t-107.5 23z" />
<glyph unicode="&#x2156;" horiz-adv-x="1769" d="M78 524v90l328 318q57 55 82.5 102t25.5 94q0 86 -43 123t-143 37q-57 0 -112.5 -8t-113.5 -27v105q57 18 118 26.5t126 8.5q154 0 224.5 -59.5t70.5 -190.5q0 -66 -34 -129.5t-95 -122.5l-270 -264h403v-103h-567zM522 0l619 1376h106l-618 -1376h-107zM1116 14v101 q106 -31 211 -31q121 0 175 38t54 130q0 88 -56 125t-187 37q-49 0 -95.5 -2t-72.5 -6v446h500v-98h-385v-252q20 4 45.5 5t52.5 1q170 0 247.5 -62.5t77.5 -197.5q0 -139 -81.5 -201.5t-264.5 -62.5q-59 0 -113.5 7t-107.5 23z" />
<glyph unicode="&#x2157;" horiz-adv-x="1769" d="M78 539v100q104 -31 211 -31q125 0 181 37t56 123t-59 123t-195 37h-34v73l227 277h-379v98h526v-82l-235 -284q147 -10 211.5 -68.5t64.5 -173.5q0 -139 -84 -199.5t-272 -60.5q-59 0 -113.5 7t-105.5 24zM522 0l619 1376h106l-618 -1376h-107zM1116 14v101 q106 -31 211 -31q121 0 175 38t54 130q0 88 -56 125t-187 37q-49 0 -95.5 -2t-72.5 -6v446h500v-98h-385v-252q20 4 45.5 5t52.5 1q170 0 247.5 -62.5t77.5 -197.5q0 -139 -81.5 -201.5t-264.5 -62.5q-59 0 -113.5 7t-107.5 23z" />
<glyph unicode="&#x2158;" horiz-adv-x="1769" d="M37 709v92l418 575h129v-571h125v-96h-125v-185h-113v185h-434zM156 805h315v434zM522 0l619 1376h106l-618 -1376h-107zM1116 14v101q106 -31 211 -31q121 0 175 38t54 130q0 88 -56 125t-187 37q-49 0 -95.5 -2t-72.5 -6v446h500v-98h-385v-252q20 4 45.5 5t52.5 1 q170 0 247.5 -62.5t77.5 -197.5q0 -139 -81.5 -201.5t-264.5 -62.5q-59 0 -113.5 7t-107.5 23z" />
<glyph unicode="&#x2159;" horiz-adv-x="1769" d="M164 1169v105l246 102h98v-852h-125v738zM522 0l619 1376h106l-618 -1376h-107zM1090 385q0 254 89 368.5t296 114.5q49 0 96 -7t94 -19v-99q-92 27 -182 27q-147 0 -209 -76t-66 -245q25 49 78 75.5t141 26.5q147 0 217 -65.5t70 -213.5q0 -150 -73.5 -219t-235.5 -69 q-170 0 -242.5 94t-72.5 307zM1217 285q0 -205 186 -205q104 0 149 45t45 145q0 98 -43 142.5t-139 44.5q-104 0 -151 -42t-47 -130z" />
<glyph unicode="&#x215a;" horiz-adv-x="1769" d="M100 539v100q106 -31 211 -31q121 0 175.5 38t54.5 130q0 88 -56.5 125t-187.5 37q-49 0 -95 -2t-73 -6v446h500v-98h-385v-252q20 4 45.5 5t52.5 1q170 0 248 -62.5t78 -197.5q0 -139 -82 -201.5t-264 -62.5q-59 0 -113.5 7t-108.5 24zM522 0l619 1376h106l-618 -1376 h-107zM1090 385q0 254 89 368.5t296 114.5q49 0 96 -7t94 -19v-99q-92 27 -182 27q-147 0 -209 -76t-66 -245q25 49 78 75.5t141 26.5q147 0 217 -65.5t70 -213.5q0 -150 -73.5 -219t-235.5 -69q-170 0 -242.5 94t-72.5 307zM1217 285q0 -205 186 -205q104 0 149 45t45 145 q0 98 -43 142.5t-139 44.5q-104 0 -151 -42t-47 -130z" />
<glyph unicode="&#x215b;" horiz-adv-x="1769" d="M164 1169v105l246 102h98v-852h-125v738zM522 0l619 1376h106l-618 -1376h-107zM1073 223q0 96 41 143.5t146 67.5q-92 18 -129 66.5t-37 138.5q0 121 69.5 175t229.5 54q158 0 227.5 -54t69.5 -175q0 -90 -37 -138t-129 -67q104 -20 145 -67.5t41 -143.5 q0 -127 -75.5 -183t-241.5 -56q-168 0 -244 56t-76 183zM1192 227q0 -80 47 -114.5t154 -34.5q104 0 151 34.5t47 114.5q0 78 -43.5 113t-154.5 47q-111 -12 -156 -47t-45 -113zM1210 635q0 -72 42.5 -106t140.5 -44q98 10 139 44t41 106q0 74 -41 106.5t-139 32.5 t-140.5 -32.5t-42.5 -106.5z" />
<glyph unicode="&#x215c;" horiz-adv-x="1769" d="M78 539v100q104 -31 211 -31q125 0 181 37t56 123t-59 123t-195 37h-34v73l227 277h-379v98h526v-82l-235 -284q147 -10 211.5 -68.5t64.5 -173.5q0 -139 -84 -199.5t-272 -60.5q-59 0 -113.5 7t-105.5 24zM522 0l619 1376h106l-618 -1376h-107zM1073 223q0 96 41 143.5 t146 67.5q-92 18 -129 66.5t-37 138.5q0 121 69.5 175t229.5 54q158 0 227.5 -54t69.5 -175q0 -90 -37 -138t-129 -67q104 -20 145 -67.5t41 -143.5q0 -127 -75.5 -183t-241.5 -56q-168 0 -244 56t-76 183zM1192 227q0 -80 47 -114.5t154 -34.5q104 0 151 34.5t47 114.5 q0 78 -43.5 113t-154.5 47q-111 -12 -156 -47t-45 -113zM1210 635q0 -72 42.5 -106t140.5 -44q98 10 139 44t41 106q0 74 -41 106.5t-139 32.5t-140.5 -32.5t-42.5 -106.5z" />
<glyph unicode="&#x215d;" horiz-adv-x="1769" d="M100 539v100q106 -31 211 -31q121 0 175.5 38t54.5 130q0 88 -56.5 125t-187.5 37q-49 0 -95 -2t-73 -6v446h500v-98h-385v-252q20 4 45.5 5t52.5 1q170 0 248 -62.5t78 -197.5q0 -139 -82 -201.5t-264 -62.5q-59 0 -113.5 7t-108.5 24zM522 0l619 1376h106l-618 -1376 h-107zM1073 223q0 96 41 143.5t146 67.5q-92 18 -129 66.5t-37 138.5q0 121 69.5 175t229.5 54q158 0 227.5 -54t69.5 -175q0 -90 -37 -138t-129 -67q104 -20 145 -67.5t41 -143.5q0 -127 -75.5 -183t-241.5 -56q-168 0 -244 56t-76 183zM1192 227q0 -80 47 -114.5 t154 -34.5q104 0 151 34.5t47 114.5q0 78 -43.5 113t-154.5 47q-111 -12 -156 -47t-45 -113zM1210 635q0 -72 42.5 -106t140.5 -44q98 10 139 44t41 106q0 74 -41 106.5t-139 32.5t-140.5 -32.5t-42.5 -106.5z" />
<glyph unicode="&#x215e;" horiz-adv-x="1769" d="M84 1274v102h578v-86l-345 -766h-127l342 750h-448zM522 0l619 1376h106l-618 -1376h-107zM1073 223q0 96 41 143.5t146 67.5q-92 18 -129 66.5t-37 138.5q0 121 69.5 175t229.5 54q158 0 227.5 -54t69.5 -175q0 -90 -37 -138t-129 -67q104 -20 145 -67.5t41 -143.5 q0 -127 -75.5 -183t-241.5 -56q-168 0 -244 56t-76 183zM1192 227q0 -80 47 -114.5t154 -34.5q104 0 151 34.5t47 114.5q0 78 -43.5 113t-154.5 47q-111 -12 -156 -47t-45 -113zM1210 635q0 -72 42.5 -106t140.5 -44q98 10 139 44t41 106q0 74 -41 106.5t-139 32.5 t-140.5 -32.5t-42.5 -106.5z" />
<glyph unicode="&#x215f;" horiz-adv-x="1015" d="M164 1170v104l245 102h99v-852h-125v738zM523 0l618 1376h107l-619 -1376h-106z" />
<glyph unicode="&#x2190;" horiz-adv-x="1769" d="M84 590l547 549h219l-477 -473h1290v-152h-1290l477 -473h-219z" />
<glyph unicode="&#x2191;" horiz-adv-x="1769" d="M336 625v219l549 547l549 -547v-219l-473 477v-1290h-152v1290z" />
<glyph unicode="&#x2192;" horiz-adv-x="1769" d="M106 514v152h1291l-477 473h219l547 -549l-547 -549h-219l477 473h-1291z" />
<glyph unicode="&#x2193;" horiz-adv-x="1769" d="M336 336v219l473 -477v1290h152v-1290l473 477v-219l-549 -547z" />
<glyph unicode="&#x2196;" horiz-adv-x="1769" d="M319 381v774h775l153 -154l-669 5l911 -912l-109 -108l-911 911l4 -670z" />
<glyph unicode="&#x2197;" horiz-adv-x="1769" d="M281 94l911 912l-672 -5l156 154h774v-774l-154 -156l4 672l-911 -911z" />
<glyph unicode="&#x2198;" horiz-adv-x="1769" d="M281 1085l108 109l911 -911l-4 669l154 -153v-774h-774l-154 153l670 -4z" />
<glyph unicode="&#x2199;" horiz-adv-x="1769" d="M319 25v774l154 153l-4 -669l911 911l109 -109l-911 -911l669 4l-153 -153h-775z" />
<glyph unicode="&#x2202;" horiz-adv-x="1161" d="M90 498q0 274 103.5 398t330.5 124q258 0 355 -156q-18 252 -109.5 363.5t-265.5 111.5q-156 0 -309 -55v131q147 51 321 51q143 0 245.5 -47t167 -150.5t95.5 -267t31 -397.5q0 -324 -116 -476.5t-374 -152.5q-250 0 -362.5 124.5t-112.5 398.5zM258 498 q0 -209 71.5 -300.5t235.5 -91.5q172 0 247 105.5t75 312.5q0 182 -78 273.5t-252 91.5q-158 0 -228.5 -91t-70.5 -300z" />
<glyph unicode="&#x2206;" horiz-adv-x="1390" d="M80 0v111l520 1265h193l518 -1265v-111h-1231zM256 135h881l-441 1086z" />
<glyph unicode="&#x220f;" horiz-adv-x="1607" d="M172 -426v1868h1266v-1868h-170v1733h-926v-1733h-170z" />
<glyph unicode="&#x2211;" horiz-adv-x="1335" d="M84 -313l668 837l-635 805v113h1136v-135h-921l583 -740v-86l-616 -772h987v-135h-1202v113z" />
<glyph unicode="&#x2212;" d="M152 520v139h876v-139h-876z" />
<glyph unicode="&#x2215;" horiz-adv-x="262" d="M-231 0l618 1376h107l-619 -1376h-106z" />
<glyph unicode="&#x221a;" horiz-adv-x="1390" d="M27 139v148l465 153l227 -667l463 1603h147l-522 -1802h-172l-234 692z" />
<glyph unicode="&#x221e;" horiz-adv-x="1607" d="M74 590q0 207 84 300t270 93q68 0 122 -14.5t98 -46t82 -85t75 -130.5q37 78 75 131t82 84.5t97 46t123 14.5q186 0 269 -92t83 -301q0 -207 -83 -300t-269 -93q-70 0 -123 13t-97 46t-82 86t-75 131q-37 -78 -75 -131t-82 -86t-98 -46t-122 -13q-186 0 -270 92t-84 301z M227 590q0 -141 50.5 -201.5t166.5 -60.5q49 0 88 12t71 43t61.5 81t60.5 126q-31 76 -60.5 126t-61.5 80.5t-70.5 43t-88.5 12.5q-117 0 -167 -60.5t-50 -201.5zM883 590q31 -76 60.5 -126t62 -81t70.5 -43t87 -12q117 0 168 60.5t51 201.5t-51 201.5t-168 60.5 q-49 0 -87 -12.5t-70.5 -43t-62.5 -80.5t-60 -126z" />
<glyph unicode="&#x222b;" horiz-adv-x="821" d="M172 1141q0 172 76 248.5t246 76.5q41 0 76.5 -3t68.5 -11v-135q-29 8 -58.5 11t-56.5 3q-104 0 -151 -46t-47 -157q0 -66 24.5 -162t60 -209.5t77.5 -236.5t78 -240.5t60.5 -223t24.5 -181.5q0 -172 -76.5 -249t-246.5 -77q-82 0 -146 15v135q29 -8 58.5 -11t56.5 -3 q106 0 152.5 46t46.5 156q0 63 -23.5 160.5t-60.5 211.5t-78 236.5t-78 240.5t-60.5 222.5t-23.5 182.5z" />
<glyph unicode="&#x2248;" d="M152 283v153q92 96 241 96q74 0 124 -23.5t92 -53t85 -53t105 -23.5q68 0 122 26.5t107 83.5v-153q-92 -96 -242 -96q-74 0 -124 23.5t-92 52t-85 52t-104 23.5q-68 0 -122 -26.5t-107 -81.5zM152 690v154q92 96 241 96q74 0 124 -23.5t92 -52t85 -52.5t105 -24 q68 0 122 27t107 82v-154q-92 -96 -242 -96q-74 0 -124 23.5t-92 53.5t-85 53.5t-104 23.5q-68 0 -122 -26.5t-107 -84.5z" />
<glyph unicode="&#x2260;" d="M152 315v142h319l90 266h-409v141h454l107 316h147l-104 -316h272v-141h-319l-91 -266h410v-142h-455l-106 -315h-148l105 315h-272z" />
<glyph unicode="&#x2264;" d="M152 0v139h876v-139h-876zM152 690v158l876 350v-149l-709 -281l709 -281v-147z" />
<glyph unicode="&#x2265;" d="M152 0v139h876v-139h-876zM152 340v147l708 281l-708 281v149l876 -350v-158z" />
<glyph unicode="&#x22c5;" horiz-adv-x="473" d="M125 506q0 59 26.5 84t86.5 25q59 0 84.5 -24.5t25.5 -84.5q0 -59 -25.5 -83.5t-84.5 -24.5t-86 24.5t-27 83.5z" />
<glyph unicode="&#x25ca;" d="M84 688l424 688h164l424 -688l-424 -688h-164zM252 688l338 -549l338 549l-338 545z" />
<glyph unicode="&#x25fc;" horiz-adv-x="993" d="M0 0v993h993v-993h-993z" />
<glyph unicode="&#xe010;" horiz-adv-x="1302" d="M117 688q0 188 30.5 323.5t96 221.5t166 127t241.5 41t241.5 -41t165 -127t95.5 -221t31 -324q0 -188 -31 -323.5t-95.5 -221.5t-164.5 -127t-242 -41q-141 0 -241.5 41t-166 127t-96 221.5t-30.5 323.5zM285 688q0 -305 86 -440t280 -135q98 0 167 32.5t114 101 t65.5 178.5t20.5 263q0 154 -20.5 263.5t-65.5 178t-113.5 101.5t-167.5 33q-98 0 -166.5 -33t-113.5 -101.5t-65.5 -178t-20.5 -263.5z" />
<glyph unicode="&#xe011;" horiz-adv-x="800" d="M70 1077v135l395 164h133v-1376h-164v1229z" />
<glyph unicode="&#xe012;" horiz-adv-x="1060" d="M54 0v123l542 528q92 90 136.5 172t44.5 168q0 145 -74 209t-246 64q-180 0 -360 -62v139q92 33 186 46.5t199 13.5q244 0 352 -93.5t108 -299.5q0 -111 -50 -211.5t-156 -204.5l-463 -457h682v-135h-901z" />
<glyph unicode="&#xe013;" horiz-adv-x="1060" d="M54 27v135q162 -55 333 -56q217 0 311.5 66t94.5 217q0 150 -100.5 214.5t-331.5 64.5h-51v100l397 479h-637v129h823v-112l-397 -486q242 -12 352.5 -106t110.5 -285q0 -217 -131 -314.5t-428 -97.5q-186 0 -346 52z" />
<glyph unicode="&#xe014;" horiz-adv-x="1214" d="M70 303v123l688 950h172v-944h205v-129h-205v-303h-152v303h-708zM229 432h549v758z" />
<glyph unicode="&#xe015;" horiz-adv-x="1093" d="M107 27v135q166 -55 333 -56q211 0 303.5 69t92.5 222q0 152 -96.5 219.5t-315.5 67.5q-66 0 -133.5 -4t-138.5 -10v706h786v-129h-635v-448q88 6 180 6q274 0 397.5 -96.5t123.5 -313.5q0 -221 -131.5 -320.5t-419.5 -99.5q-186 0 -346 52z" />
<glyph unicode="&#xe016;" horiz-adv-x="1191" d="M119 623q0 205 33.5 352t107.5 241.5t188.5 139.5t278.5 45q162 0 303 -43v-133q-72 23 -145.5 34t-145.5 11q-125 0 -212 -33t-141 -103.5t-79 -179t-27 -258.5q35 94 125 138.5t246 44.5q238 0 344.5 -104.5t106.5 -338.5q0 -242 -116 -351.5t-374 -109.5 q-131 0 -224 37t-153.5 115t-88 201t-27.5 295zM295 459q0 -352 315 -353q178 0 255 77t77 249q0 168 -71.5 244t-237.5 76q-178 0 -258 -70.5t-80 -222.5z" />
<glyph unicode="&#xe017;" horiz-adv-x="985" d="M27 1241v135h924v-116l-574 -1260h-166l565 1241h-749z" />
<glyph unicode="&#xe018;" horiz-adv-x="1204" d="M100 354q0 78 17.5 136.5t55.5 100.5t97.5 69.5t143.5 44.5q-147 29 -214 108.5t-67 224.5q0 193 110.5 278t358.5 85t357.5 -85t109.5 -278q0 -145 -66.5 -225t-211.5 -108q168 -33 239.5 -114t71.5 -237q0 -201 -118 -290t-382 -89t-383 89t-119 290zM262 360 q0 -137 79 -196.5t261 -59.5t261 59.5t79 196.5q0 66 -17.5 114t-57.5 81t-105.5 52.5t-159.5 29.5q-94 -10 -159.5 -29.5t-105.5 -52.5t-57.5 -81t-17.5 -114zM293 1032q0 -123 70.5 -182.5t238.5 -77.5q168 18 238.5 77.5t70.5 182.5q0 129 -71.5 184.5t-237.5 55.5 t-237.5 -55.5t-71.5 -184.5z" />
<glyph unicode="&#xe019;" horiz-adv-x="1191" d="M90 940q0 242 115.5 351.5t373.5 109.5q131 0 224.5 -37t154 -115t88 -200.5t27.5 -294.5q0 -205 -34 -352.5t-107.5 -241.5t-189 -139.5t-277.5 -45.5t-303 43v134q72 -23 145.5 -34.5t144.5 -11.5q125 0 212 33t141.5 103.5t79 178t26.5 259.5q-35 -94 -125 -138 t-245 -44q-238 0 -344.5 104.5t-106.5 337.5zM250 944q0 -168 71.5 -243.5t237.5 -75.5q178 0 258 70.5t80 222.5q0 352 -316 352q-178 0 -254.5 -77t-76.5 -249z" />
<glyph unicode="&#xe01a;" horiz-adv-x="1116" d="M108 985q0 166 89 249t286 97v340h152v-338q172 -6 319 -49v-135q-178 55 -367 55q-168 0 -237.5 -49t-69.5 -166q0 -84 54.5 -125t136.5 -65.5t178 -44t178 -57.5t136.5 -106.5t54.5 -191.5q0 -168 -91.5 -254t-291.5 -102v-338h-152v336q-199 10 -360 63v136 q197 -68 407 -68q172 0 244 53.5t72 169.5q0 86 -54.5 130t-136.5 70t-178 46.5t-178 57t-136.5 102t-54.5 184.5z" />
<glyph unicode="&#xe01b;" horiz-adv-x="985" d="M109 688q0 246 91 370t294 146v342h151v-336q137 -6 244 -39v-133q-127 41 -266 41q-186 0 -267 -91t-81 -300t80.5 -300t267.5 -91q139 0 266 41v-133q-55 -16 -115.5 -26.5t-128.5 -12.5v-336h-151v342q-203 23 -294 145.5t-91 370.5z" />
<glyph unicode="&#xe01c;" horiz-adv-x="1138" d="M76 496v104h133q-2 23 -2 44.5v43.5v56.5t2 56.5h-133v104h144q37 260 177 378t402 118q162 0 297 -39v-127q-141 41 -278 41q-195 0 -297.5 -86t-132.5 -285h524v-104h-537q-2 -27 -2 -55.5v-57.5v-45t2 -43h537v-104h-529q27 -213 130.5 -304.5t304.5 -91.5 q137 0 278 41v-127q-135 -39 -297 -39q-270 0 -409.5 123t-171.5 398h-142z" />
<glyph unicode="&#xe01d;" horiz-adv-x="1017" d="M82 0v131h184v506h-151v127h151v201q0 227 105.5 331.5t341.5 104.5q123 0 237 -31v-135q-111 31 -213 31q-162 0 -231.5 -71t-69.5 -237v-194h404v-127h-404v-506h531v-131h-885z" />
<glyph unicode="&#xe01e;" horiz-adv-x="1161" d="M8 1376h187l387 -614l387 614h186l-442 -686h287v-102h-334v-203h334v-104h-334v-281h-168v281h-334v104h334v203h-334v102h287z" />
<glyph unicode="&#xe020;" d="M100 530q0 287 116 421t374 134t373.5 -134t115.5 -421t-115.5 -421t-373.5 -134t-374 134t-116 421zM256 530q0 -221 78 -322.5t256 -101.5t256 101.5t78 322.5q0 219 -78 321.5t-256 102.5t-256 -101.5t-78 -322.5z" />
<glyph unicode="&#xe021;" d="M244 760v137l411 164h131v-1061h-163v911z" />
<glyph unicode="&#xe022;" d="M145 0v123l469 338q100 72 144.5 136.5t44.5 141.5q0 117 -66.5 166t-220.5 49q-78 0 -160 -14t-168 -43v133q84 27 172.5 41t180.5 14q227 0 327.5 -76.5t100.5 -250.5q0 -111 -51.5 -195t-174.5 -170l-362 -264h600v-129h-836z" />
<glyph unicode="&#xe023;" d="M113 -131q160 -57 333 -57q217 0 311.5 64.5t94.5 213.5q0 145 -100.5 208.5t-331.5 63.5h-51v101l397 469h-637v129h823v-115l-397 -473q242 -12 352.5 -105.5t110.5 -281.5q0 -106 -32 -183t-99.5 -126t-174 -72.5t-253.5 -23.5q-186 0 -346 51v137z" />
<glyph unicode="&#xe024;" d="M84 0v117l661 944h166v-932h172v-129h-172v-295h-151v295h-676zM240 129h520v752z" />
<glyph unicode="&#xe025;" d="M150 -133q166 -55 333 -55q211 0 303.5 66.5t92.5 219.5q0 150 -96.5 215.5t-315.5 65.5q-66 0 -133.5 -4t-138.5 -10v696h786v-129h-635v-438q88 6 180 6q274 0 397.5 -96.5t123.5 -309.5q0 -217 -131.5 -315t-419.5 -98q-186 0 -346 51v135z" />
<glyph unicode="&#xe026;" d="M113 616q0 203 33.5 347.5t107.5 237.5t188.5 136t278.5 43q162 0 303 -43v-133q-72 23 -145.5 34t-145.5 11q-125 0 -212 -31.5t-141 -99t-79 -173t-27 -253.5q35 94 125 135t246 41q238 0 344.5 -103t106.5 -335q0 -240 -116 -347.5t-374 -107.5q-131 0 -224 36 t-153.5 114t-88 199.5t-27.5 291.5zM289 453q0 -346 315 -347q178 0 255 76t77 246q0 166 -71.5 238.5t-237.5 72.5q-178 0 -258 -67t-80 -219z" />
<glyph unicode="&#xe027;" d="M123 926v135h924v-117l-574 -1239h-166l565 1221h-749z" />
<glyph unicode="&#xe028;" d="M96 348q0 154 72 234t240 112q-147 29 -213 107t-66 223q0 186 108.5 271t352.5 85t352.5 -85t108.5 -271q0 -145 -65.5 -223t-213.5 -107q168 -33 239.5 -112.5t71.5 -233.5q0 -197 -115.5 -285t-377.5 -88t-378 88t-116 285zM256 354q0 -133 78 -191.5t256 -58.5 t256 58.5t78 191.5q0 63 -17.5 110.5t-56.5 80.5t-103.5 52.5t-156.5 29.5q-92 -10 -156.5 -29.5t-103.5 -52.5t-56.5 -80t-17.5 -111zM287 1018q0 -121 69.5 -179.5t233.5 -78.5q164 20 233.5 78.5t69.5 179.5q0 125 -69.5 179t-233.5 54t-233.5 -54t-69.5 -179z" />
<glyph unicode="&#xe029;" d="M84 631q0 238 115.5 346t373.5 108q131 0 224.5 -35.5t154 -113.5t88 -200t27.5 -294q0 -203 -34 -347t-107.5 -236t-189 -135t-277.5 -43t-303 43v133q72 -23 145.5 -34t144.5 -11q125 0 212 31.5t141.5 99t79 173t26.5 253.5q-35 -94 -125 -135t-245 -41 q-238 0 -344.5 103t-106.5 335zM244 633q0 -166 71.5 -240t237.5 -74q178 0 258 67.5t80 219.5q0 348 -316 348q-178 0 -254.5 -75.5t-76.5 -245.5z" />
<glyph unicode="&#xe02a;" d="M201 782q0 141 73.5 212t239.5 87v308h152v-306q131 -6 262 -41v-131q-78 23 -156 34t-154 11q-135 0 -192 -39.5t-57 -132.5q0 -66 46 -99.5t114.5 -54t148.5 -36.5t148.5 -49t114.5 -93.5t46 -164.5q0 -145 -76.5 -218t-244.5 -89v-308h-152v305q-158 6 -299 50v131 q176 -53 346 -54q139 0 198.5 41t59.5 140q0 68 -46 103.5t-114.5 56t-148.5 38t-148.5 49t-114.5 90t-46 160.5z" />
<glyph unicode="&#xe02b;" d="M205 530q0 246 91 370t294 146v342h151v-336q137 -6 244 -39v-133q-127 41 -266 41q-186 0 -267 -91t-81 -300t80.5 -300t267.5 -91q139 0 266 41v-133q-55 -16 -115.5 -26.5t-128.5 -12.5v-336h-151v342q-203 23 -294 145.5t-91 370.5z" />
<glyph unicode="&#xe02c;" d="M156 373v90h104v67v42.5t2 39.5h-106v88h116q31 201 152 293t358 92q147 0 275 -34v-121q-59 20 -125 29.5t-131 9.5q-166 0 -251 -63.5t-112 -205.5h445v-88h-455q-2 -20 -2 -39.5v-42.5v-34.5t2 -32.5h455v-90h-447q25 -150 111 -215.5t254 -65.5q66 0 131 8.5 t125 28.5v-119q-127 -35 -275 -35q-240 0 -361.5 94.5t-150.5 303.5h-114z" />
<glyph unicode="&#xe02d;" d="M188 0v121h170v358h-137v119h137v125q0 186 89.5 274t291.5 88q111 0 219 -34v-127q-102 37 -196 37q-135 0 -187.5 -56.5t-52.5 -185.5v-121h328v-119h-328v-358h453v-121h-787z" />
<glyph unicode="&#xe02e;" d="M131 1061h180l279 -445l278 445h181l-334 -518h237v-92h-280v-148h280v-92h-280v-211h-164v211h-281v92h281v148h-281v92h238z" />
<glyph unicode="&#xe030;" horiz-adv-x="1214" d="M106 530q0 293 119 424t383 131t382 -131t118 -424t-118 -424t-382 -131t-383 131t-119 424zM268 530q0 -115 19.5 -194.5t60.5 -130.5t105.5 -75t154.5 -24q180 0 260 98.5t80 325.5t-80 325.5t-260 98.5q-90 0 -154.5 -23.5t-105.5 -74.5t-60.5 -132t-19.5 -194z" />
<glyph unicode="&#xe031;" horiz-adv-x="768" d="M53 760v137l396 164h133v-1061h-164v911z" />
<glyph unicode="&#xe032;" horiz-adv-x="995" d="M53 0v123l469 338q100 72 144.5 136.5t44.5 141.5q0 117 -66.5 166t-220.5 49q-78 0 -160 -14t-168 -43v133q84 27 172.5 41t180.5 14q227 0 327.5 -76.5t100.5 -250.5q0 -111 -51.5 -195t-174.5 -170l-362 -264h600v-129h-836z" />
<glyph unicode="&#xe033;" horiz-adv-x="995" d="M21 -131q160 -57 333 -57q217 0 311.5 64.5t94.5 213.5q0 145 -100.5 208.5t-331.5 63.5h-51v101l397 469h-637v129h823v-115l-397 -473q242 -12 352.5 -105.5t110.5 -281.5q0 -106 -32 -183t-99.5 -126t-174 -72.5t-253.5 -23.5q-186 0 -346 51v137z" />
<glyph unicode="&#xe034;" horiz-adv-x="1083" d="M37 0v117l661 944h166v-932h172v-129h-172v-295h-151v295h-676zM193 129h520v752z" />
<glyph unicode="&#xe035;" horiz-adv-x="1060" d="M107 -133q166 -55 333 -55q211 0 303.5 66.5t92.5 219.5q0 150 -96.5 215.5t-315.5 65.5q-66 0 -133.5 -4t-138.5 -10v696h786v-129h-635v-438q88 6 180 6q274 0 397.5 -96.5t123.5 -309.5q0 -217 -131.5 -315t-419.5 -98q-186 0 -346 51v135z" />
<glyph unicode="&#xe036;" horiz-adv-x="1204" d="M125 616q0 203 33.5 347.5t107.5 237.5t188.5 136t278.5 43q162 0 303 -43v-133q-72 23 -145.5 34t-145.5 11q-125 0 -212 -31.5t-141 -99t-79 -173t-27 -253.5q35 94 125 135t246 41q238 0 344.5 -103t106.5 -335q0 -240 -116 -347.5t-374 -107.5q-131 0 -224 36 t-153.5 114t-88 199.5t-27.5 291.5zM301 453q0 -346 315 -347q178 0 255 76t77 246q0 166 -71.5 238.5t-237.5 72.5q-178 0 -258 -67t-80 -219z" />
<glyph unicode="&#xe037;" horiz-adv-x="985" d="M27 926v135h924v-117l-574 -1239h-166l565 1221h-749z" />
<glyph unicode="&#xe038;" horiz-adv-x="1171" d="M92 348q0 154 72 234t240 112q-147 29 -213 107t-66 223q0 186 108.5 271t352.5 85t352.5 -85t108.5 -271q0 -145 -65.5 -223t-213.5 -107q168 -33 239.5 -112.5t71.5 -233.5q0 -197 -115.5 -285t-377.5 -88t-378 88t-116 285zM252 354q0 -133 78 -191.5t256 -58.5 t256 58.5t78 191.5q0 63 -17.5 110.5t-56.5 80.5t-103.5 52.5t-156.5 29.5q-92 -10 -156.5 -29.5t-103.5 -52.5t-56.5 -80t-17.5 -111zM283 1018q0 -121 69.5 -179.5t233.5 -78.5q164 20 233.5 78.5t69.5 179.5q0 125 -69.5 179t-233.5 54t-233.5 -54t-69.5 -179z" />
<glyph unicode="&#xe039;" horiz-adv-x="1204" d="M96 631q0 238 115.5 346t373.5 108q131 0 224.5 -35.5t154 -113.5t88 -200t27.5 -294q0 -203 -34 -347t-107.5 -236t-189 -135t-277.5 -43t-303 43v133q72 -23 145.5 -34t144.5 -11q125 0 212 31.5t141.5 99t79 173t26.5 253.5q-35 -94 -125 -135t-245 -41 q-238 0 -344.5 103t-106.5 335zM256 633q0 -166 71.5 -240t237.5 -74q178 0 258 67.5t80 219.5q0 348 -316 348q-178 0 -254.5 -75.5t-76.5 -245.5z" />
<glyph unicode="&#xe03a;" horiz-adv-x="1017" d="M121 782q0 141 73.5 212t239.5 87v308h152v-306q131 -6 262 -41v-131q-78 23 -156 34t-154 11q-135 0 -192 -39.5t-57 -132.5q0 -66 46 -99.5t114.5 -54t148.5 -36.5t148.5 -49t114.5 -93.5t46 -164.5q0 -145 -76.5 -218t-244.5 -89v-308h-152v305q-158 6 -299 50v131 q176 -53 346 -54q139 0 198.5 41t59.5 140q0 68 -46 103.5t-114.5 56t-148.5 38t-148.5 49t-114.5 90t-46 160.5z" />
<glyph unicode="&#xe03b;" horiz-adv-x="985" d="M109 530q0 246 91 370t294 146v342h151v-336q137 -6 244 -39v-133q-127 41 -266 41q-186 0 -267 -91t-81 -300t80.5 -300t267.5 -91q139 0 266 41v-133q-55 -16 -115.5 -26.5t-128.5 -12.5v-336h-151v342q-203 23 -294 145.5t-91 370.5z" />
<glyph unicode="&#xe03c;" horiz-adv-x="1073" d="M103 373v90h104v67v42.5t2 39.5h-106v88h116q31 201 152 293t358 92q147 0 275 -34v-121q-59 20 -125 29.5t-131 9.5q-166 0 -251 -63.5t-112 -205.5h445v-88h-455q-2 -20 -2 -39.5v-42.5v-34.5t2 -32.5h455v-90h-447q25 -150 111 -215.5t254 -65.5q66 0 131 8.5 t125 28.5v-119q-127 -35 -275 -35q-240 0 -361.5 94.5t-150.5 303.5h-114z" />
<glyph unicode="&#xe03d;" horiz-adv-x="919" d="M59 0v121h170v358h-137v119h137v125q0 186 89.5 274t291.5 88q111 0 219 -34v-127q-102 37 -196 37q-135 0 -187.5 -56.5t-52.5 -185.5v-121h328v-119h-328v-358h453v-121h-787z" />
<glyph unicode="&#xe03e;" horiz-adv-x="976" d="M31 1061h180l279 -445l278 445h181l-334 -518h237v-92h-280v-148h280v-92h-280v-211h-164v211h-281v92h281v148h-281v92h238z" />
<glyph unicode="&#xe800;" horiz-adv-x="688" d="M53 637v127h549v-127h-549z" />
<glyph unicode="&#xe801;" horiz-adv-x="688" d="M53 637v127h549v-127h-549z" />
<glyph unicode="&#xe802;" d="M53 637v127h1073v-127h-1073z" />
<glyph unicode="&#xe803;" horiz-adv-x="1769" d="M53 637v127h1663v-127h-1663z" />
<glyph unicode="&#xe805;" horiz-adv-x="473" d="M125 700q0 59 26.5 84t86.5 25q59 0 84.5 -24.5t25.5 -84.5q0 -59 -25.5 -83.5t-84.5 -24.5t-86 24.5t-27 83.5z" />
<glyph unicode="&#xe806;" horiz-adv-x="786" d="M18 -164l605 1704h145l-604 -1704h-146z" />
<glyph unicode="&#xe807;" horiz-adv-x="786" d="M18 1540h146l604 -1704h-145z" />
<glyph unicode="&#xe808;" horiz-adv-x="636" d="M150 688q0 248 68.5 463t203.5 389h164q-139 -178 -210 -394.5t-71 -457.5q0 -242 70.5 -458t210.5 -394h-164q-135 174 -203.5 389t-68.5 463z" />
<glyph unicode="&#xe809;" horiz-adv-x="636" d="M51 -164q139 178 210 394t71 458t-71 458t-210 394h164q135 -174 203.5 -389t68.5 -463t-68.5 -463t-203.5 -389h-164z" />
<glyph unicode="&#xe80a;" horiz-adv-x="636" d="M195 -164v1704h389v-129h-238v-1446h238v-129h-389z" />
<glyph unicode="&#xe80b;" horiz-adv-x="636" d="M53 -35h240v1446h-240v129h391v-1704h-391v129z" />
<glyph unicode="&#xe80c;" horiz-adv-x="636" d="M20 624v127h23q98 0 141 43t43 142v299q0 160 73 232.5t239 72.5h45v-129h-23q-98 0 -140 -42t-42 -141v-305q0 -92 -34 -152.5t-105 -82.5q72 -23 105.5 -83.5t33.5 -152.5v-305q0 -98 42 -140t140 -42h23v-129h-45q-166 0 -239 72.5t-73 232.5v299q0 98 -43 141 t-141 43h-23z" />
<glyph unicode="&#xe80d;" horiz-adv-x="636" d="M53 -35h23q98 0 141 42t43 140v305q0 92 33 152.5t104 83.5q-72 23 -104.5 83t-32.5 152v305q0 98 -43 140.5t-141 42.5h-23v129h47q164 0 238 -73t74 -232v-299q0 -98 42 -141.5t140 -43.5h22v-127h-22q-98 0 -140 -43t-42 -141v-299q0 -160 -74 -232.5t-238 -72.5h-47 v129z" />
<glyph unicode="&#xe80e;" horiz-adv-x="571" d="M63 693l285 395h156l-271 -395l271 -396h-156z" />
<glyph unicode="&#xe80f;" horiz-adv-x="571" d="M68 297l270 396l-270 395h155l287 -395l-287 -396h-155z" />
<glyph unicode="&#xe810;" horiz-adv-x="1036" d="M63 693l285 395h156l-271 -395l271 -396h-156zM528 693l285 395h156l-271 -395l271 -396h-156z" />
<glyph unicode="&#xe811;" horiz-adv-x="1036" d="M68 297l270 396l-270 395h155l287 -395l-287 -396h-155zM533 297l270 396l-270 395h155l287 -395l-287 -396h-155z" />
<glyph unicode="&#xe812;" horiz-adv-x="505" d="M143 1288q0 57 26 82t85 25t85 -25t26 -82q0 -59 -26 -83.5t-85 -24.5t-85 24.5t-26 83.5zM170 0l8 959h150l8 -959h-166z" />
<glyph unicode="&#xe813;" horiz-adv-x="909" d="M84 318q0 84 28.5 145t70.5 108.5t92.5 86t92.5 79.5t70.5 89.5t28.5 115.5v17h139v-29q0 -84 -26.5 -144.5t-65.5 -106.5t-85 -84t-85 -77t-65.5 -83t-26.5 -105q0 -121 66.5 -172t220.5 -51q72 0 148.5 14t156.5 43v-133q-158 -55 -324 -56q-231 0 -333.5 81 t-102.5 262zM426 1288q0 57 25.5 82t85.5 25q59 0 84.5 -25t25.5 -82q0 -59 -25.5 -83.5t-84.5 -24.5t-85 24.5t-26 83.5z" />
<glyph unicode="&#xe814;" horiz-adv-x="2000" d="M117 688q0 242 52 414.5t161.5 284.5t281.5 164t412 52q227 0 390 -46t267.5 -144.5t153.5 -252t49 -368.5q0 -285 -87 -420t-290 -135q-88 0 -148.5 33t-86.5 94q-47 -66 -124 -96.5t-192 -30.5q-201 0 -287.5 106.5t-86.5 344.5t87 344t287 106q213 0 297 -119l9 95 h131v-609q0 -76 32.5 -109.5t106.5 -33.5q115 0 162 102.5t47 315.5q0 184 -41 317t-129 217t-224.5 124t-328.5 40q-201 0 -344.5 -45t-235.5 -140t-135 -244.5t-43 -360.5t45 -360.5t142.5 -245t250 -140.5t365.5 -45q287 0 561 90v-131q-268 -84 -567 -84 q-248 0 -426 52.5t-292 163t-168 283.5t-54 417zM743 688q0 -172 58.5 -246t193.5 -74q129 0 184.5 54.5t55.5 181.5v168q0 127 -55.5 181t-184.5 54q-135 0 -193.5 -73.5t-58.5 -245.5z" />
<glyph unicode="&#xe815;" horiz-adv-x="983" d="M197 688q0 61 22.5 114.5t62.5 93.5t94 63.5t116 23.5q61 0 114 -23.5t93 -63.5t63.5 -93.5t23.5 -114.5t-23.5 -115.5t-63.5 -94.5t-93 -62.5t-114 -22.5t-115.5 22.5t-94.5 62.5t-62.5 94.5t-22.5 115.5z" />
<glyph unicode="&#xe840;" horiz-adv-x="491" d="M-72 1802h178l248 -287h-151z" />
<glyph unicode="&#xe841;" horiz-adv-x="491" d="M137 1515l248 287h178l-274 -287h-152z" />
<glyph unicode="&#xe842;" horiz-adv-x="491" d="M-88 1515l252 287h164l252 -287h-150l-184 195l-185 -195h-149z" />
<glyph unicode="&#xe843;" horiz-adv-x="491" d="M-88 1802h149l185 -195l184 195h150l-252 -287h-164z" />
<glyph unicode="&#xe844;" horiz-adv-x="491" d="M-72 1538v20q0 111 43 160t138 49q43 0 77.5 -16.5t63.5 -36t55.5 -35.5t54.5 -16q47 0 65.5 23.5t18.5 80.5v14h119v-22q0 -111 -43 -160t-137 -49q-43 0 -78 16.5t-63.5 36t-56 35.5t-54.5 16q-47 0 -65.5 -23.5t-18.5 -80.5v-12h-119z" />
<glyph unicode="&#xe845;" horiz-adv-x="491" d="M-61 1658q0 100 102 101q55 0 79.5 -23.5t24.5 -77.5q0 -53 -24.5 -76.5t-79.5 -23.5q-102 0 -102 100zM346 1658q0 53 24.5 77t80.5 24q102 0 102 -101q0 -100 -102 -100q-55 0 -80 23.5t-25 76.5z" />
<glyph unicode="&#xe846;" horiz-adv-x="491" d="M-63 1601v117h618v-117h-618z" />
<glyph unicode="&#xe847;" horiz-adv-x="491" d="M-66 1802h119q0 -104 44 -148.5t149 -44.5q104 0 148 44t44 149h119q0 -162 -73.5 -233.5t-237.5 -71.5t-238 71.5t-74 233.5z" />
<glyph unicode="&#xe848;" horiz-adv-x="491" d="M35 1658q0 102 50 147.5t161 45.5t161 -45t50 -148q0 -100 -50.5 -146t-160.5 -46q-111 0 -161 46t-50 146zM131 1658q0 -61 26.5 -87.5t88.5 -26.5q61 0 87.5 25.5t26.5 88.5q0 61 -26.5 89t-87.5 28t-88 -28t-27 -89z" />
<glyph unicode="&#xe849;" horiz-adv-x="491" d="M-68 1515l250 287h176l-272 -287h-154zM342 1515l248 287h178l-272 -287h-154z" />
<glyph unicode="&#xe84a;" horiz-adv-x="491" d="M141 1658q0 53 24.5 77t80.5 24q55 0 79.5 -23.5t24.5 -77.5q0 -53 -24.5 -76.5t-79.5 -23.5t-80 23.5t-25 76.5z" />
<glyph unicode="&#xe880;" horiz-adv-x="1769" d="M84 688l547 549h219l-477 -473h1290v-152h-1290l477 -473h-219z" />
<glyph unicode="&#xe881;" horiz-adv-x="1769" d="M336 723v219l549 547l549 -547v-219l-473 477v-1290h-152v1290z" />
<glyph unicode="&#xe882;" horiz-adv-x="1769" d="M106 612v152h1291l-477 473h219l547 -549l-547 -549h-219l477 473h-1291z" />
<glyph unicode="&#xe883;" horiz-adv-x="1769" d="M336 434v219l473 -477v1290h152v-1290l473 477v-219l-549 -547z" />
<glyph unicode="&#xe884;" horiz-adv-x="1769" d="M319 479v774h775l153 -154l-669 5l911 -912l-109 -108l-911 911l4 -670z" />
<glyph unicode="&#xe885;" horiz-adv-x="1769" d="M281 192l911 912l-672 -5l156 154h774v-774l-154 -156l4 672l-911 -911z" />
<glyph unicode="&#xe886;" horiz-adv-x="1769" d="M281 1183l108 109l911 -911l-4 669l154 -153v-774h-774l-154 153l670 -4z" />
<glyph unicode="&#xe887;" horiz-adv-x="1769" d="M319 123v774l154 153l-4 -669l911 911l109 -109l-911 -911l669 4l-153 -153h-775z" />
<glyph unicode="&#xea01;" horiz-adv-x="491" d="M137 1135l133 385h115l-102 -385h-146z" />
<glyph unicode="&#xea02;" horiz-adv-x="491" d="M150 1135l102 385h145l-133 -385h-114z" />
<glyph unicode="&#xea03;" horiz-adv-x="491" d="M35 1298q0 88 38 133.5t122 55.5l190 217h178l-221 -225q115 -33 115 -181q0 -100 -50.5 -146t-160.5 -46q-111 0 -161 46t-50 146zM131 1298q0 -61 26.5 -87.5t88.5 -26.5q61 0 87.5 25.5t26.5 88.5q0 61 -26.5 89t-87.5 28t-88 -28t-27 -89z" />
<glyph unicode="&#xec00;" horiz-adv-x="1081" d="M74 950q0 242 109.5 350.5t357.5 108.5q246 0 356.5 -108.5t110.5 -350.5q0 -244 -111 -351t-356 -107q-246 0 -356.5 107t-110.5 351zM147 950q0 -211 92.5 -303t301.5 -92t301 92t92 303t-92 303.5t-301 92.5t-301.5 -92.5t-92.5 -303.5zM367 705v491h204q90 0 131 -35 t41 -112q0 -127 -116 -142l129 -202h-84l-123 194h-111v-194h-71zM438 958h129q55 0 80 20.5t25 70.5q0 47 -24.5 67.5t-80.5 20.5h-129v-179z" />
<glyph unicode="&#xf6c3;" horiz-adv-x="491" d="M106 -524l103 385h145l-133 -385h-115z" />
<glyph unicode="&#xf8ff;" horiz-adv-x="1210" d="M205 0v1350h801v-133h-668v-1084h149v-133h-282zM471 414v133h401v135h-401v399h535v-133h-402v-133h402v-401h-535z" />
<glyph horiz-adv-x="471" d="M84 911l16 84h207q18 0 19 -20v-975h-164v856q0 12 -3 18.5t-14 10.5zM133 1298q0 55 24.5 80t82.5 25q55 0 80.5 -24.5t25.5 -80.5q0 -102 -106 -102q-57 0 -82 24.5t-25 77.5z" />
<glyph horiz-adv-x="1087" d="M74 422q0 166 87 292t263 204q-61 35 -104.5 64.5t-69 60t-37.5 64.5t-12 77q0 121 89 183.5t288 74.5q106 6 202.5 15t161.5 24l-27 -135q-49 -12 -125.5 -19.5t-171.5 -11.5q-143 -8 -201.5 -42t-58.5 -102q0 -27 12.5 -48t44 -45.5t85 -52.5t135.5 -67 q104 -49 177 -102t117 -117.5t64.5 -142.5t20.5 -174q0 -221 -111.5 -334t-357.5 -113q-250 0 -360.5 114t-110.5 333zM236 428q0 -160 71.5 -241t237.5 -81q164 0 235.5 81t71.5 241q0 74 -14.5 133.5t-50 110.5t-96 96t-154.5 92q-84 -43 -142.5 -88t-93.5 -97t-50 -113.5 t-15 -133.5z" />
<glyph horiz-adv-x="950" d="M90 260q0 102 44 160.5t111.5 92.5t144.5 50.5t144.5 34.5t111.5 48t44 89q0 78 -59.5 118t-186.5 40q-150 0 -286 -45l-27 127q76 23 156 34t166 11q186 0 290.5 -71t104.5 -216q0 -96 -44 -149.5t-111.5 -83t-144.5 -45t-144.5 -36t-111.5 -56t-44 -105.5 q0 -82 61.5 -119t192.5 -37q172 0 336 56v-133q-158 -49 -349 -50q-193 0 -296 68t-103 217z" />
<glyph horiz-adv-x="1153" d="M86 498q0 276 102.5 399t331.5 123q104 0 195.5 -27.5t161.5 -81.5l8 84h129v-1038q0 -123 -35 -202t-94.5 -125t-138 -63.5t-166.5 -17.5q-66 0 -125.5 5.5t-92.5 11.5v131q53 -8 108.5 -12t100.5 -4q279 0 279 247v174q-49 -66 -129 -96.5t-201 -30.5 q-229 0 -331.5 123t-102.5 400zM254 498q0 -209 70.5 -300.5t234.5 -91.5q156 0 223.5 66t67.5 219v424q-49 29 -129 51.5t-162 22.5q-164 0 -234.5 -91t-70.5 -300z" />
<glyph horiz-adv-x="1167" d="M74 911l16 84h207q18 0 18 -20v-70q53 49 133 82t191 33q207 0 296 -92t89 -303v-486q0 -12 3 -18t13 -10l62 -27l-17 -84h-206q-18 0 -19 20v601q0 145 -57.5 204.5t-192.5 59.5q-49 0 -95 -7.5t-85 -18.5t-68.5 -23.5t-46.5 -24.5v-811h-163v856q0 12 -3.5 18.5 t-13.5 10.5z" />
<glyph horiz-adv-x="1789" d="M74 911l16 84h207q18 0 18 -20v-62q53 47 127 77t181 30q123 0 191.5 -33.5t113.5 -101.5q66 61 154.5 98t199.5 37q193 0 279 -87t86 -284v-510q0 -12 3 -18t13 -10l61 -27l-16 -84h-207q-18 0 -18 20v623q0 129 -53.5 185.5t-176.5 56.5q-94 0 -168.5 -21.5 t-119.5 -58.5q10 -35 13 -70t3 -80v-655h-164v643q0 129 -53 185.5t-176 56.5q-45 0 -87 -7.5t-78 -18.5t-64.5 -23.5t-43.5 -24.5v-811h-163v856q0 12 -3.5 18.5t-13.5 10.5z" />
</font>
</defs>
</svg>
